<svg width="40" height="40" viewBox="0 0 40 40" fill="none" xmlns="http://www.w3.org/2000/svg">
<circle cx="20" cy="20" r="20" fill="#202225"/>
<path d="M13.998 30V26H11.998C10.895 26 9.998 25.103 9.998 24V12C9.998 10.896 10.895 10 11.998 10H27.998C29.101 10 29.998 10.896 29.998 12V24C29.998 25.103 29.101 26 27.998 26H19.331L13.998 30ZM11.998 12V24H15.998V26L18.665 24H27.998V12H11.998Z" fill="#7289DA"/>
<path d="M16.998 14H14.998V22H16.998V14Z" fill="#7289DA"/>
<path d="M20.998 18H18.998V22H20.998V18Z" fill="#7289DA"/>
<path d="M24.998 16H22.998V22H24.998V16Z" fill="#7289DA"/>
</svg>
