<svg width="210" height="121" viewBox="0 0 210 121" fill="none" xmlns="http://www.w3.org/2000/svg">
<path d="M56.6477 120.97H156.942C161.715 120.97 165.59 117.1 165.59 112.322V43.9578C165.59 39.185 161.719 35.3101 156.942 35.3101H56.6477C51.8749 35.3101 48 39.1803 48 43.9578V112.322C48.0047 117.1 51.8749 120.97 56.6477 120.97Z" fill="black"/>
<path d="M156.942 118.134H56.6477C51.8749 118.134 48 114.264 48 109.487V41.1223C48 36.3495 51.8702 32.4746 56.6477 32.4746H156.942C161.715 32.4746 165.59 36.3448 165.59 41.1223V109.487C165.585 114.264 161.715 118.134 156.942 118.134Z" fill="#242145"/>
<path d="M53.8321 45.5452C55.5899 44.9876 56.9604 44.5907 58.7466 44.1606C59.1861 44.0567 59.6255 44.3402 59.7201 44.7939L64.2093 65.5957C64.3038 66.0493 64.025 66.503 63.5855 66.6117C61.7993 67.0417 60.4005 67.3063 58.5906 67.5993C55.4624 68.1096 52.5089 66.1627 51.6111 63.0628C50.6754 59.8305 49.8059 56.1729 49.3523 52.8273C48.9128 49.6186 50.803 46.5092 53.8321 45.5452Z" fill="black"/>
<path d="M135.632 8.41207C134.191 7.48114 133.217 5.97842 132.967 4.28195L132.537 1.39465C132.513 1.25288 132.395 1.14893 132.248 1.14893C132.107 1.14893 131.984 1.25288 131.96 1.39465L131.53 4.28195C131.275 5.97842 130.306 7.48114 128.865 8.41207L128.492 8.65307C128.407 8.70505 128.359 8.79957 128.359 8.8988V8.9177C128.359 9.01694 128.411 9.10673 128.492 9.16343L128.865 9.40444C130.306 10.3354 131.28 11.8381 131.53 13.5346L131.96 16.4219C131.979 16.5636 132.102 16.6676 132.248 16.6676C132.39 16.6676 132.513 16.5636 132.537 16.4219L132.967 13.5346C133.222 11.8381 134.191 10.3354 135.632 9.40444L136.005 9.16343C136.09 9.11145 136.138 9.01694 136.138 8.9177V8.8988C136.138 8.79957 136.086 8.70978 136.005 8.65307L135.632 8.41207Z" fill="#57F287"/>
<path d="M142.793 12.6229C142.179 12.226 141.763 11.5833 141.654 10.8603L141.47 9.6269C141.46 9.56547 141.408 9.52295 141.347 9.52295C141.286 9.52295 141.234 9.5702 141.224 9.6269L141.04 10.8603C140.931 11.5833 140.515 12.226 139.901 12.6229L139.74 12.7269C139.702 12.7505 139.684 12.7883 139.684 12.8308V12.8403C139.684 12.8828 139.707 12.9206 139.74 12.9442L139.901 13.0482C140.515 13.4451 140.931 14.0878 141.04 14.8108L141.224 16.0442C141.234 16.1056 141.286 16.1482 141.347 16.1482C141.408 16.1482 141.46 16.1009 141.47 16.0442L141.654 14.8108C141.763 14.0878 142.179 13.4451 142.793 13.0482L142.954 12.9442C142.991 12.9206 143.01 12.8828 143.01 12.8403V12.8308C143.01 12.7883 142.987 12.7505 142.954 12.7269L142.793 12.6229Z" fill="#5865F2"/>
<path d="M180.13 20.6088C179.336 20.0985 178.797 19.2668 178.66 18.3311L178.424 16.7386C178.415 16.6583 178.344 16.6016 178.263 16.6016C178.183 16.6016 178.117 16.6583 178.103 16.7386L177.866 18.3311C177.725 19.2668 177.191 20.0985 176.397 20.6088L176.189 20.7411C176.142 20.7695 176.113 20.8215 176.113 20.8782V20.8876C176.113 20.9443 176.142 20.9916 176.189 21.0247L176.397 21.157C177.191 21.6673 177.729 22.499 177.866 23.4347L178.103 25.0272C178.112 25.1075 178.183 25.1642 178.263 25.1642C178.344 25.1642 178.41 25.1075 178.424 25.0272L178.66 23.4347C178.802 22.499 179.336 21.6673 180.13 21.157L180.338 21.0247C180.385 20.9963 180.413 20.9443 180.413 20.8876V20.8782C180.413 20.8215 180.385 20.7742 180.338 20.7411L180.13 20.6088Z" fill="#FFE75C"/>
<path d="M188.003 42.8991C187.256 42.4171 186.751 41.6373 186.618 40.7584L186.396 39.2604C186.387 39.1848 186.321 39.1328 186.245 39.1328C186.17 39.1328 186.108 39.1895 186.094 39.2604L185.872 40.7584C185.74 41.6373 185.234 42.4171 184.487 42.8991L184.294 43.0219C184.251 43.0503 184.223 43.0975 184.223 43.1495V43.159C184.223 43.211 184.246 43.2582 184.294 43.2866L184.487 43.4094C185.234 43.8914 185.74 44.6711 185.872 45.5501L186.094 47.0481C186.103 47.1237 186.17 47.1757 186.245 47.1757C186.321 47.1757 186.382 47.119 186.396 47.0481L186.618 45.5501C186.751 44.6711 187.256 43.8914 188.003 43.4094L188.197 43.2866C188.239 43.2582 188.268 43.211 188.268 43.159V43.1495C188.268 43.0975 188.244 43.0503 188.197 43.0219L188.003 42.8991Z" fill="#8CD9FF"/>
<path d="M182.526 58.5263C181.179 57.6615 180.272 56.2533 180.035 54.6702L179.634 51.9767C179.615 51.8443 179.501 51.7451 179.364 51.7451C179.232 51.7451 179.114 51.8443 179.095 51.9767L178.693 54.6702C178.457 56.2533 177.55 57.6568 176.203 58.5263L175.853 58.7531C175.778 58.8051 175.73 58.8901 175.73 58.9799V58.9988C175.73 59.0886 175.778 59.1784 175.853 59.2257L176.203 59.4525C177.55 60.3172 178.457 61.7255 178.693 63.3085L179.095 66.0021C179.114 66.1344 179.227 66.2336 179.364 66.2336C179.497 66.2336 179.615 66.1344 179.634 66.0021L180.035 63.3085C180.272 61.7255 181.179 60.322 182.526 59.4525L182.875 59.2257C182.951 59.1737 182.998 59.0886 182.998 58.9988V58.9799C182.998 58.8901 182.951 58.8004 182.875 58.7531L182.526 58.5263Z" fill="#5865F2"/>
<path d="M86.3105 114.958H71.4157C69.4829 114.958 67.9141 113.39 67.9141 111.457V104.902C67.9141 102.97 69.4829 101.401 71.4157 101.401H86.3105C88.2432 101.401 89.8121 102.97 89.8121 104.902V111.457C89.8121 113.39 88.2479 114.958 86.3105 114.958Z" fill="#423D80"/>
<path d="M78.8643 113.456C81.7795 113.456 84.1427 111.093 84.1427 108.177C84.1427 105.262 81.7795 102.899 78.8643 102.899C75.9491 102.899 73.5859 105.262 73.5859 108.177C73.5859 111.093 75.9491 113.456 78.8643 113.456Z" fill="#FF78B9"/>
<path d="M80.2521 108.277C80.6822 107.894 80.9562 107.341 80.9562 106.722C80.9562 105.564 80.0206 104.628 78.8628 104.628C77.7051 104.628 76.7694 105.564 76.7694 106.722C76.7694 107.341 77.0435 107.894 77.4735 108.277C76.6277 108.91 76.0512 110.101 76.0039 111.48C76.7694 112.147 77.7665 112.548 78.8628 112.548C79.9544 112.548 80.9515 112.142 81.7218 111.48C81.6698 110.101 81.0933 108.91 80.2521 108.277Z" fill="#5865F2"/>
<path d="M142.783 114.958H127.888C125.956 114.958 124.387 113.39 124.387 111.457V104.902C124.387 102.97 125.956 101.401 127.888 101.401H142.783C144.716 101.401 146.285 102.97 146.285 104.902V111.457C146.285 113.39 144.716 114.958 142.783 114.958Z" fill="#423D80"/>
<path d="M135.337 113.456C138.252 113.456 140.615 111.093 140.615 108.177C140.615 105.262 138.252 102.899 135.337 102.899C132.422 102.899 130.059 105.262 130.059 108.177C130.059 111.093 132.422 113.456 135.337 113.456Z" fill="#91FFAD"/>
<path d="M136.725 108.277C137.155 107.894 137.429 107.341 137.429 106.722C137.429 105.564 136.493 104.628 135.336 104.628C134.178 104.628 133.242 105.564 133.242 106.722C133.242 107.341 133.516 107.894 133.946 108.277C133.1 108.91 132.524 110.101 132.477 111.48C133.242 112.147 134.239 112.548 135.336 112.548C136.427 112.548 137.424 112.142 138.194 111.48C138.142 110.101 137.566 108.91 136.725 108.277Z" fill="#5865F2"/>
<path d="M114.494 114.958H99.5993C97.6665 114.958 96.0977 113.39 96.0977 111.457V104.902C96.0977 102.97 97.6665 101.401 99.5993 101.401H114.494C116.427 101.401 117.996 102.97 117.996 104.902V111.457C117.996 113.39 116.432 114.958 114.494 114.958Z" fill="#423D80"/>
<path d="M107.048 113.456C109.963 113.456 112.326 111.093 112.326 108.177C112.326 105.262 109.963 102.899 107.048 102.899C104.133 102.899 101.77 105.262 101.77 108.177C101.77 111.093 104.133 113.456 107.048 113.456Z" fill="#8CD9FF"/>
<path d="M108.436 108.277C108.866 107.894 109.14 107.341 109.14 106.722C109.14 105.564 108.204 104.628 107.046 104.628C105.889 104.628 104.953 105.564 104.953 106.722C104.953 107.341 105.227 107.894 105.657 108.277C104.811 108.91 104.235 110.101 104.188 111.48C104.953 112.147 105.95 112.548 107.046 112.548C108.138 112.548 109.135 112.142 109.905 111.48C109.858 110.101 109.277 108.91 108.436 108.277Z" fill="#5865F2"/>
<path d="M163.271 65.9789C163.271 61.6314 159.122 58.1108 154 58.1108C149.402 58.1108 145.598 60.9556 144.865 64.6793C139.799 65.2842 122.509 67.1697 103.701 67.2406C103.701 67.2406 103.531 82.4332 106.362 82.0882C109.192 81.7432 133.122 80.5713 147.214 78.7425C158.456 77.2823 162.321 71.2762 163.176 67.4154C163.2 67.302 163.191 67.1981 163.158 67.0941C163.228 66.7255 163.271 66.3569 163.271 65.9789Z" fill="black"/>
<path d="M64.303 41.751H149.287C151.257 41.751 152.859 43.3482 152.859 45.3235V93.4578C152.859 95.4283 151.262 97.0303 149.287 97.0303H64.303C62.3324 97.0303 60.7305 95.4331 60.7305 93.4578V45.3235C60.7352 43.3529 62.3324 41.751 64.303 41.751Z" fill="url(#paint0_linear_1203_93571)"/>
<path d="M103.963 61.0595C126.362 60.9744 146.62 58.314 146.62 58.314C146.62 58.314 164.067 58.4179 163.443 61.2344C162.583 65.0951 158.722 71.106 147.48 72.5615C133.389 74.3902 109.459 75.5669 106.628 75.9071C103.788 76.2521 103.963 61.0595 103.963 61.0595Z" fill="#5865F2"/>
<path d="M113.062 77.7593C112.977 71.6634 111.087 59.7362 98.4697 59.9913C93.2291 60.1 82.162 62.8219 76.5859 81.2751C73.8545 88.5572 70.4332 92.6873 68.3398 97.0254H111.635C112.32 92.8905 113.176 85.9818 113.062 77.7593Z" fill="#698EFF"/>
<path d="M177.193 48.4896L173.507 31.3312L173.379 30.7405L173.28 30.7594L166.088 32.3047L158.744 33.883L151.557 35.4282L144.18 37.0113L136.988 38.5565L133.274 39.3552L137.295 37.6256L142.607 35.3432L155.744 29.6962L157.733 28.8408L171.38 22.915L169.079 17.5657C167.775 14.5272 164.084 13.1993 160.98 13.9885C160.904 14.0074 160.828 14.0263 160.753 14.0499C160.672 14.0735 160.597 14.0972 160.516 14.1208C160.337 14.1775 160.162 14.2436 159.987 14.3193L146.042 20.316L141.01 22.4803L134.129 25.4385L134.044 25.4763C133.855 25.5566 133.676 25.6464 133.501 25.7409C133.453 25.7645 133.411 25.7929 133.364 25.8165C133.208 25.9063 133.061 25.9961 132.915 26.0953C132.896 26.1095 132.877 26.1189 132.858 26.1331C132.702 26.2418 132.551 26.3599 132.404 26.4828C132.362 26.5159 132.324 26.5537 132.281 26.5868C132.163 26.6907 132.055 26.7947 131.946 26.9034C131.918 26.9317 131.885 26.9601 131.856 26.9884C131.729 27.1207 131.61 27.2578 131.497 27.3995C131.459 27.4468 131.426 27.4941 131.388 27.5413C131.308 27.65 131.228 27.7587 131.152 27.8721C131.119 27.9194 131.086 27.9666 131.058 28.0139C130.963 28.1604 130.878 28.3116 130.798 28.4628C130.765 28.5195 130.741 28.5809 130.708 28.6424C130.656 28.7511 130.604 28.8645 130.557 28.9731C130.528 29.0393 130.5 29.1007 130.476 29.1669C130.415 29.3228 130.363 29.4788 130.316 29.6394C130.297 29.7056 130.278 29.7765 130.259 29.8474C130.231 29.9561 130.202 30.0695 130.179 30.1782C130.164 30.2538 130.146 30.3294 130.131 30.4097C130.103 30.5704 130.079 30.7358 130.061 30.9012C129.952 31.9786 130.108 33.1033 130.566 34.1665L132.83 39.4355L132.797 39.4449L132.924 40.0356L134.866 49.0709L134.928 49.3497L136.61 57.1893C137.38 60.7666 140.901 63.0443 144.483 62.2787L172.099 56.3482C175.685 55.5921 177.963 52.0716 177.193 48.4896Z" fill="black"/>
<path d="M136.276 55.1477C137.046 58.7249 140.566 61.0026 144.148 60.2371L171.764 54.3066C175.342 53.5363 177.619 50.0158 176.854 46.4338L173.168 29.2754L132.59 37.9893L136.276 55.1477Z" fill="#FF78B9"/>
<path d="M173.035 28.684L132.461 37.3989L134.589 47.3045L175.163 38.5896L173.035 28.684Z" fill="#FFE75C"/>
<path d="M136.651 36.501C135.909 40.0687 135.096 43.9673 134.496 46.8593L134.591 47.3083L141.636 45.7961L143.843 34.9604L136.651 36.501Z" fill="#FF8C19"/>
<path d="M151.219 33.3725C150.453 37.049 149.598 41.1697 148.965 44.2224L156.204 42.6677L158.411 31.832L151.219 33.3725Z" fill="#FF8C19"/>
<path d="M165.75 30.249C164.961 34.0436 164.101 38.1926 163.496 41.0989L170.74 39.5441L172.947 28.7085L165.75 30.249Z" fill="#FF8C19"/>
<path d="M159.649 12.2589L133.701 23.4158C130.337 24.8619 128.787 28.7604 130.233 32.125L132.534 37.4743L170.66 21.0814L168.358 15.7321C166.912 12.3675 163.014 10.8128 159.649 12.2589Z" fill="#FFE75C"/>
<path d="M133.702 23.4157C131.405 24.4034 129.954 26.5346 129.723 28.8548C131.939 30.9104 134.599 33.3819 136.953 35.5651L143.705 32.6636L133.787 23.3779L133.702 23.4157Z" fill="#FF8C19"/>
<path d="M140.668 20.4246C143.234 22.8063 147.312 26.5867 150.648 29.6867L157.396 26.7852L147.477 17.4995L140.668 20.4246Z" fill="#FF8C19"/>
<path d="M170.656 21.0769L170.269 20.1743L161.314 11.7959C160.752 11.8762 160.194 12.0274 159.651 12.259L154.32 14.5509C156.688 16.7483 160.813 20.5759 164.301 23.8129L170.656 21.0769Z" fill="#FF8C19"/>
<path d="M135.15 31.9125C136.513 31.9125 137.617 30.8081 137.617 29.4457C137.617 28.0834 136.513 26.979 135.15 26.979C133.788 26.979 132.684 28.0834 132.684 29.4457C132.684 30.8081 133.788 31.9125 135.15 31.9125Z" fill="#FFE75C"/>
<path d="M154.26 67.6657C159.38 67.6657 163.531 64.1431 163.531 59.7977C163.531 55.4523 159.38 51.9297 154.26 51.9297C149.139 51.9297 144.988 55.4523 144.988 59.7977C144.988 64.1431 149.139 67.6657 154.26 67.6657Z" fill="#698EFF"/>
<path d="M116.087 64.2208C117.14 64.1783 118.067 63.5309 118.468 62.5574C120.373 57.9453 125.911 44.7516 127.782 39.8606C132.588 26.2983 152.242 35.3997 141.042 50.6301C140.314 53.078 135.679 65.0052 134.091 69.6835C132.503 74.3618 130.098 79.5126 119.158 80.1128C118.128 79.9852 110.704 80.4577 99.2024 80.6278C86.4151 81.1429 87.3602 65.2651 97.4019 65.0525C101.74 64.8115 111.99 64.3862 116.087 64.2208Z" fill="#698EFF"/>
<path d="M71.5042 22.3621C70.1574 21.573 69.1745 20.3254 68.8437 18.7707C68.3097 16.2567 69.6423 13.6671 72.0004 12.1644C72.6714 11.7344 73.4322 11.3942 74.2544 11.1721C74.33 11.1484 74.4104 11.1295 74.4907 11.1106C78.3136 10.1844 80.4212 11.9092 83.9512 14.1255C86.0871 15.4676 89.1114 16.7813 91.4884 17.7216L71.5042 22.3621Z" fill="#55F186"/>
<path d="M82.6347 21.1051C82.9939 21.02 83.3057 20.7365 83.4239 20.3301C83.6034 19.7252 83.2868 19.0873 82.7198 18.8983C77.6682 17.2112 73.5239 13.1095 71.3596 7.65621C71.1281 7.07497 70.4996 6.80562 69.9514 7.05134C69.408 7.29707 69.1528 7.9681 69.3797 8.54934C71.7944 14.6264 76.4207 19.1913 82.0771 21.0815C82.2661 21.1429 82.4552 21.1476 82.6347 21.1051Z" fill="#008D3C"/>
<path d="M78.8203 20.8214L94.0884 17.334C98.7762 14.8767 100.742 10.3827 99.4425 5.73279C98.4926 2.33513 94.8587 0.208632 90.8704 1.22462C86.2535 2.40601 85.0155 6.10611 83.7207 9.37145C80.8381 16.6299 78.8203 20.8214 78.8203 20.8214Z" fill="#26CB7A"/>
<path d="M85.7696 23.4396C85.9539 23.3924 86.1335 23.2979 86.28 23.1419C90.8118 18.4353 93.6045 12.8922 93.9448 7.93516C93.9873 7.30666 93.5431 6.75849 92.9524 6.71124C92.357 6.66398 91.8466 7.14126 91.8041 7.76976C91.6623 9.85372 90.6936 15.3684 84.782 21.5069C84.3567 21.9464 84.3473 22.6741 84.7631 23.123C85.0372 23.4207 85.42 23.5247 85.7696 23.4396Z" fill="#008D3C"/>
<path d="M117.398 23.6095C115.588 23.912 114.189 24.1861 112.408 24.6208C111.968 24.7295 111.69 25.1879 111.784 25.6368L116.174 46.0511C116.273 46.5048 116.708 46.7883 117.147 46.6796C118.929 46.2449 120.299 45.8432 122.057 45.2761C125.082 44.2979 126.958 41.1791 126.513 37.9752C126.05 34.6295 125.342 31.3452 124.392 28.1177C123.489 25.0178 120.522 23.085 117.398 23.6095Z" fill="#5D6FDC"/>
<path d="M119.518 27.9189C118.53 28.0512 118.195 28.0843 116.853 28.3961C116.366 28.5096 116.073 29.0814 116.196 29.672L118.502 40.5928C118.625 41.1834 119.121 41.5662 119.608 41.4434C120.945 41.1173 121.262 40.985 122.207 40.6542C123.251 40.2903 123.908 39.142 123.762 37.9323C123.492 35.7018 122.67 31.808 122.018 29.672C121.663 28.5096 120.61 27.7724 119.518 27.9189Z" fill="#AEBCFA"/>
<path d="M121.495 35.7635C122.502 40.4748 122.752 42.5304 122.988 46.4574C123.319 51.9248 120.437 56.8583 115.692 59.0982C111.846 60.9128 102.031 63.6772 95.1314 65.3501C88.2322 67.0229 78.2566 69.0501 74.0556 69.1825C68.867 69.3479 64.2691 66.229 62.3458 61.1443C60.9659 57.4962 60.3611 55.5257 59.3545 50.8143C58.348 46.1029 56.8831 40.2291 56.6468 36.3022C56.316 30.8347 59.1986 25.9013 63.943 23.6614C67.7896 21.8468 77.6045 19.0823 84.5037 17.4095C91.403 15.7366 101.379 13.7094 105.58 13.5771C110.768 13.4117 115.366 16.5305 117.289 21.6152C118.669 25.2633 120.489 31.0521 121.495 35.7635Z" fill="#698EFF"/>
<path d="M53.5783 39.3646C55.3362 38.8069 56.7066 38.41 58.4928 37.98C58.9323 37.876 59.3718 38.1595 59.4663 38.6132L63.9555 59.415C64.05 59.8687 63.7712 60.3223 63.3317 60.431C61.5455 60.861 60.1467 61.1257 58.3369 61.4234C55.2086 61.9337 52.2551 59.9868 51.3573 56.8869C50.4216 53.6546 49.5521 49.997 49.0985 46.6513C48.659 43.4427 50.5445 40.3333 53.5783 39.3646Z" fill="#698EFF"/>
<path d="M54.4409 43.2628C55.3719 42.8894 55.6837 42.743 57.0069 42.3744C57.4889 42.2373 58.0134 42.6721 58.1741 43.3431L61.2126 55.7524C61.378 56.4234 61.1181 57.0708 60.6361 57.1984C59.3082 57.5528 58.968 57.5811 57.9851 57.7324C56.8982 57.9025 55.7877 57.0613 55.3529 55.7382C54.5543 53.3093 53.4722 48.8861 53.0564 46.3533C52.8295 44.9781 53.4155 43.6739 54.4409 43.2628Z" fill="#B7CCFF"/>
<path d="M94.8415 58.687L106.802 55.658C113.158 53.5362 114.188 51.5373 113.734 47.2607C113.422 44.2931 112.52 40.3425 111.518 37.5497C110.464 34.5962 107.737 33.8874 104.973 34.601L87.1389 39.2036C84.3745 39.9172 82.6308 42.6864 83.2498 45.3847L84.8471 52.317C86.1182 57.8128 89.6482 60.0244 94.8415 58.687Z" fill="#B7CCFF"/>
<path d="M106.593 50.4551L108.862 49.8786C110.071 49.5714 111.201 49.9967 111.39 50.8332C111.579 51.6696 110.752 52.5958 109.542 52.9077L107.274 53.4842C106.064 53.7913 104.935 53.3661 104.746 52.5296C104.557 51.6932 105.384 50.767 106.593 50.4551Z" fill="#698EFF"/>
<path d="M93.8577 53.815L96.126 53.2385C97.3357 52.9313 98.4651 53.3566 98.6541 54.193C98.8432 55.0294 98.0162 55.9557 96.8065 56.2675L94.5382 56.8441C93.3285 57.1512 92.1991 56.7259 92.0101 55.8895C91.8258 55.0531 92.6527 54.1269 93.8577 53.815Z" fill="#698EFF"/>
<path d="M85.3376 58.7439C83.9861 58.7345 82.8803 58.0776 82.2046 57.0286C80.7113 54.7083 77.6539 55.5353 77.5547 58.3186C79.1236 58.2525 80.7728 58.8574 82.0345 60.1238C83.1355 61.2248 83.7357 62.6236 83.8302 64.0082C84.1846 63.994 84.5484 63.9562 84.9218 63.8901C88.8156 63.2048 89.0424 58.7723 85.3376 58.7439Z" fill="black"/>
<path d="M77.5536 58.314C77.53 58.9283 77.6529 59.6419 77.9695 60.4358C78.9098 62.8032 81.0694 64.1217 83.8291 63.9988C83.7393 62.6189 83.1392 61.2202 82.0334 60.1144C80.7717 58.8527 79.1225 58.2478 77.5536 58.314Z" fill="#FF78B9"/>
<path d="M77.5743 46.9727C78.7893 46.6088 79.3136 44.7756 78.7452 42.8781C78.1769 40.9807 76.7313 39.7375 75.5163 40.1014C74.3013 40.4653 73.7771 42.2985 74.3454 44.1959C74.9137 46.0934 76.3594 47.3366 77.5743 46.9727Z" fill="black"/>
<path d="M74.1825 43.4661C74.7515 43.4661 75.2127 43.0049 75.2127 42.4359C75.2127 41.867 74.7515 41.4058 74.1825 41.4058C73.6136 41.4058 73.1523 41.867 73.1523 42.4359C73.1523 43.0049 73.6136 43.4661 74.1825 43.4661Z" fill="white"/>
<path d="M113.282 38.2642C114.308 37.9347 114.704 36.3099 114.167 34.6351C113.629 32.9603 112.361 31.8698 111.335 32.1993C110.308 32.5288 109.912 34.1536 110.45 35.8284C110.988 37.5031 112.256 38.5937 113.282 38.2642Z" fill="black"/>
<path d="M110.394 34.5391C110.863 34.5391 111.244 34.1583 111.244 33.6885C111.244 33.2187 110.863 32.8379 110.394 32.8379C109.924 32.8379 109.543 33.2187 109.543 33.6885C109.543 34.1583 109.924 34.5391 110.394 34.5391Z" fill="white"/>
<defs>
<linearGradient id="paint0_linear_1203_93571" x1="106.795" y1="21.7804" x2="106.795" y2="121.667" gradientUnits="userSpaceOnUse">
<stop offset="0.3747" stop-color="#57F287"/>
<stop offset="0.4214" stop-color="#61F184"/>
<stop offset="0.5008" stop-color="#7CF07E"/>
<stop offset="0.6033" stop-color="#A8ED72"/>
<stop offset="0.7236" stop-color="#E4E963"/>
<stop offset="0.7742" stop-color="#FFE75C"/>
</linearGradient>
</defs>
</svg>
