<svg xmlns="http://www.w3.org/2000/svg" width="200" height="160" xmlns:xlink="http://www.w3.org/1999/xlink">
  <defs>
    <path id="a" d="M0 .681h184V146H0V.681z"/>
    <path id="c" d="M13.09.477C6.143.477.51 6.108.51 13.055c0 1.545 1.252 2.796 2.796 2.796h32.845c1.544 0 2.796-1.251 2.796-2.796 0-6.947-5.633-12.578-12.58-12.578"/>
    <path id="e" d="M13.09.477C6.143.477.51 6.108.51 13.055c0 1.545 1.252 2.796 2.796 2.796h32.845c1.544 0 2.796-1.251 2.796-2.796 0-6.947-5.633-12.578-12.58-12.578"/>
    <path id="g" d="M13.09.477C6.143.477.51 6.108.51 13.055c0 1.545 1.252 2.796 2.796 2.796h32.845c1.544 0 2.796-1.251 2.796-2.796 0-6.947-5.633-12.578-12.58-12.578"/>
    <path id="i" d="M0 .681h184V146H0V.681z"/>
  </defs>
  <g fill="none" fill-rule="evenodd">
    <path d="M0 0h200v160H0z"/>
    <g transform="translate(8 7)">
      <path fill="#E8EFFB" d="M135.8666 22.7448v-5.99h-4.193v5.99c0 3.042-.718 6.041-2.097 8.753-1.378 2.712-2.096 5.711-2.096 8.753v.963c0 .772.626 1.398 1.398 1.398h9.783c.772 0 1.398-.626 1.398-1.398v-.963c0-3.042-.718-6.041-2.097-8.753-1.378-2.712-2.096-5.711-2.096-8.753"/>
      <path fill="#FFF" d="M135.8666 22.7448v-5.99h-4.193v5.99c0 3.042-.718 6.041-2.097 8.753-1.378 2.712-2.096 5.711-2.096 8.753v.963c0 .772.626 1.398 1.398 1.398h9.783c.772 0 1.398-.626 1.398-1.398v-.963c0-3.042-.718-6.041-2.097-8.753-1.378-2.712-2.096-5.711-2.096-8.753"/>
      <path fill="#C7CFE2" d="M139.6893 36.5707c-.341-1.757-.91-3.467-1.726-5.073-1.378-2.712-2.097-5.711-2.097-8.753v-5.99h-4.193v5.99c0 3.042-.718 6.041-2.096 8.753-.816 1.606-1.386 3.316-1.726 5.073h11.838z"/>
      <path fill="#FFF" d="M112.2227 22.7448v-5.99h-6.988v5.99c0 3.042-.719 6.041-2.097 8.753-1.378 2.712-2.096 5.711-2.096 8.753v.963c0 .772.625 1.398 1.397 1.398h12.579c.772 0 1.398-.626 1.398-1.398v-.963c0-3.042-.718-6.041-2.097-8.753-1.378-2.712-2.096-5.711-2.096-8.753"/>
      <path fill="#E8EFFB" d="M112.2227 22.7448v-5.99h-6.988v5.99c0 3.042-.719 6.041-2.097 8.753-1.378 2.712-2.096 5.711-2.096 8.753v.963c0 .772.625 1.398 1.397 1.398h12.579c.772 0 1.398-.626 1.398-1.398v-.963c0-3.042-.718-6.041-2.097-8.753-1.378-2.712-2.096-5.711-2.096-8.753"/>
      <mask id="b" fill="#fff">
        <use xlink:href="#a"/>
      </mask>
      <path fill="#C7CFE2" d="M112.223 16.755h-6.988v7.388h6.988v-7.388z" mask="url(#b)"/>
      <path stroke="#282B2E" stroke-width="3" d="M135.8666 23.1409v-5.99h-4.193v5.99c0 3.042-.718 6.041-2.097 8.753-1.378 2.712-2.096 5.711-2.096 8.753v.963c0 .772.626 1.398 1.398 1.398h9.783c.772 0 1.398-.626 1.398-1.398v-.963c0-3.042-.718-6.041-2.097-8.753-1.378-2.712-2.096-5.711-2.096-8.753zm-34.8252 17.5058v.963c0 .772.626 1.398 1.398 1.398h12.579c.772 0 1.397-.626 1.397-1.398v-.963c0-3.042-.718-6.041-2.096-8.753-1.378-2.712-2.097-5.711-2.097-8.753v-5.99h-6.988v5.99c0 3.042-.718 6.041-2.096 8.753h-.001" stroke-linecap="round" stroke-linejoin="round" mask="url(#b)"/>
      <path fill="#738BD7" d="M145.9997 32.1778h-24.459c-1.544 0-2.796-1.252-2.796-2.795v-1.398c0-7.719 6.258-13.977 13.977-13.977h2.097c7.719 0 13.976 6.258 13.976 13.977v1.398c0 1.543-1.251 2.795-2.795 2.795" mask="url(#b)"/>
      <path stroke="#282B2E" stroke-width="3" d="M141.233 15.9598c1.123.581 2.157 1.31 3.077 2.161m3.8818 6.1854c.392 1.289.603 2.657.603 4.075v1.397c0 1.544-1.251 2.796-2.795 2.796h-24.459c-1.544 0-2.796-1.252-2.796-2.796v-1.397c0-7.719 6.258-13.977 13.977-13.977h2.097" stroke-linecap="round" stroke-linejoin="round" mask="url(#b)"/>
      <path fill="#738BD7" d="M125.1511 18.851h-32.845c-1.544 0-2.796-1.252-2.796-2.795 0-6.948 5.632-12.579 12.579-12.579h13.278c6.948 0 12.579 5.631 12.579 12.579 0 1.543-1.251 2.795-2.795 2.795" mask="url(#b)"/>
    </g>
    <g transform="translate(97 10)">
      <mask id="d" fill="#fff">
        <use xlink:href="#c"/>
      </mask>
      <path fill="#C9D2F0" d="M12.0414 4.1456c0 3.57-2.894 6.464-6.464 6.464-3.57 0-6.464-2.894-6.464-6.464 0-3.57 2.894-6.464 6.464-6.464 3.57 0 6.464 2.894 6.464 6.464" mask="url(#d)"/>
    </g>
    <g transform="translate(97 10)">
      <mask id="f" fill="#fff">
        <use xlink:href="#e"/>
      </mask>
      <path fill="#C9D2F0" d="M28.3533 12.5671c0 3.57-2.894 6.464-6.464 6.464-3.57 0-6.464-2.894-6.464-6.464 0-3.57 2.894-6.464 6.464-6.464 3.57 0 6.464 2.894 6.464 6.464" mask="url(#f)"/>
    </g>
    <g transform="translate(97 10)">
      <mask id="h" fill="#fff">
        <use xlink:href="#g"/>
      </mask>
      <path fill="#C9D2F0" d="M43.4947 4.1456c0 3.57-2.894 6.464-6.464 6.464-3.57 0-6.464-2.894-6.464-6.464 0-3.57 2.894-6.464 6.464-6.464 3.57 0 6.464 2.894 6.464 6.464" mask="url(#h)"/>
    </g>
    <g transform="translate(8 7)">
      <path stroke="#282B2E" stroke-width="3" d="M125.5262 9.0319c1.522 2.08 2.42 4.645 2.42 7.42 0 1.544-1.251 2.795-2.795 2.795h-32.845c-1.544 0-2.796-1.251-2.796-2.795 0-6.947 5.632-12.579 12.579-12.579h13.278" stroke-linecap="round" stroke-linejoin="round"/>
      <path fill="#E8EFFB" d="M175.5 146H8.5c-4.694 0-8.5-3.806-8.5-8.5s3.806-8.5 8.5-8.5h167c4.694 0 8.5 3.806 8.5 8.5s-3.806 8.5-8.5 8.5"/>
      <path fill="#A8AFC1" d="M154.4798 132.1817h-113c-2.209 0-4-1.791-4-4v-27.929h121v27.929c0 2.209-1.791 4-4 4"/>
      <path stroke="#282B2E" stroke-width="3" d="M154.4798 132.5777h-113c-2.209 0-4-1.791-4-4v-27.929h121v27.929c0 2.209-1.791 4-4 4z" stroke-linecap="round" stroke-linejoin="round"/>
      <mask id="j" fill="#fff">
        <use xlink:href="#i"/>
      </mask>
      <path fill="#A8AFC1" d="M158.48 93.182h-121V61.253h121v31.929z" mask="url(#j)"/>
      <path fill="#C7CFE2" d="M144.4798 132.1817h-113c-2.209 0-4-1.791-4-4v-27.929h121v27.929c0 2.209-1.791 4-4 4" mask="url(#j)"/>
      <path stroke="#282B2E" stroke-width="3" d="M158.48 93.578h-121V61.649h121v31.929zm-14.0002 38.9997h-113c-2.209 0-4-1.791-4-4v-27.929h121v27.929c0 2.209-1.791 4-4 4z" stroke-linecap="round" stroke-linejoin="round" mask="url(#j)"/>
      <path fill="#C7CFE2" d="M148.48 93.182h-121V61.253h121v31.929z" mask="url(#j)"/>
      <path stroke="#282B2E" stroke-width="3" d="M148.48 93.578h-121V61.649h121v31.929z" stroke-linecap="round" stroke-linejoin="round" mask="url(#j)"/>
      <path fill="#C7CFE2" d="M166.4798 77.2528h-126c-1.657 0-3-1.343-3-3v-29c0-1.657 1.343-3 3-3h126c1.657 0 3 1.343 3 3v29c0 1.657-1.343 3-3 3m0 44.9289h-126c-1.657 0-3-1.343-3-3v-29c0-1.657 1.343-3 3-3h126c1.657 0 3 1.343 3 3v29c0 1.657-1.343 3-3 3" mask="url(#j)"/>
      <path stroke="#282B2E" stroke-width="3" d="M68.8258 77.6489h97.654c1.657 0 3-1.343 3-3v-29c0-1.657-1.343-3-3-3h-97.654m97.654 79.9288h-126c-1.657 0-3-1.343-3-3v-29c0-1.657 1.343-3 3-3h126c1.657 0 3 1.343 3 3v29c0 1.657-1.343 3-3 3z" stroke-linecap="round" stroke-linejoin="round" mask="url(#j)"/>
      <path fill="#E8EFFB" d="M145.4798 77.2528h-125c-1.657 0-3-1.343-3-3v-29c0-1.657 1.343-3 3-3h125c1.657 0 3 1.343 3 3v29c0 1.657-1.343 3-3 3" mask="url(#j)"/>
      <path fill="#4CD964" d="M36.4798 65.2528h-8c-.552 0-1-.448-1-1v-9c0-.552.448-1 1-1h8c.552 0 1 .448 1 1v9c0 .552-.448 1-1 1" mask="url(#j)"/>
      <path fill="#A8AFC1" d="M57.4798 65.2528h-8c-.552 0-1-.448-1-1v-9c0-.552.448-1 1-1h8c.552 0 1 .448 1 1v9c0 .552-.448 1-1 1m78 0h-54c-.552 0-1-.448-1-1v-9c0-.552.448-1 1-1h54c.552 0 1 .448 1 1v9c0 .552-.448 1-1 1" mask="url(#j)"/>
      <path fill="#E8EFFB" d="M145.4798 122.1817h-125c-1.657 0-3-1.343-3-3v-29c0-1.657 1.343-3 3-3h125c1.657 0 3 1.343 3 3v29c0 1.657-1.343 3-3 3" mask="url(#j)"/>
      <path fill="#FC0" d="M36.4798 110.1817h-8c-.552 0-1-.448-1-1v-9c0-.552.448-1 1-1h8c.552 0 1 .448 1 1v9c0 .552-.448 1-1 1" mask="url(#j)"/>
      <path fill="#4CD964" d="M57.4798 110.1817h-8c-.552 0-1-.448-1-1v-9c0-.552.448-1 1-1h8c.552 0 1 .448 1 1v9c0 .552-.448 1-1 1" mask="url(#j)"/>
      <path fill="#A8AFC1" d="M135.4798 110.1817h-54c-.552 0-1-.448-1-1v-9c0-.552.448-1 1-1h54c.552 0 1 .448 1 1v9c0 .552-.448 1-1 1" mask="url(#j)"/>
      <path stroke="#282B2E" stroke-width="3" d="M58.4797 42.6488h87c1.657 0 3 1.343 3 3v5.001m.0001 11.958v12.041c0 1.657-1.343 3-3 3h-125c-1.657 0-3-1.343-3-3v-29c0-1.657 1.343-3 3-3h9.846" stroke-linecap="round" stroke-linejoin="round" mask="url(#j)"/>
      <path stroke="#282B2E" stroke-width="3" d="M37.48 65.649h-10v-11h10v11zm21 0h-10v-11h10v11zm78 0h-56v-11h56v11zM69.4798 51.6488v17.959m76 52.9699h-125c-1.657 0-3-1.343-3-3v-29c0-1.657 1.343-3 3-3h125c1.657 0 3 1.343 3 3v29c0 1.657-1.343 3-3 3z" stroke-linecap="round" stroke-linejoin="round" mask="url(#j)"/>
      <path stroke="#282B2E" stroke-width="3" d="M37.48 110.578h-10v-11h10v11zm21 0h-10v-11h10v11zm65.8461-11.0003h12.154v11h-56v-11h29m-40.0003-12v32.959" stroke-linecap="round" stroke-linejoin="round" mask="url(#j)"/>
    </g>
  </g>
</svg>