<svg width="1440" height="70" viewBox="0 0 1440 70" fill="none" xmlns="http://www.w3.org/2000/svg">
<g clip-path="url(#clip0_810_132)">
<path d="M576.651 312.435L427.543 -356.565C427.264 -357.814 428.215 -359 429.495 -359H1011.09C1012.34 -359 1013.28 -357.861 1013.05 -356.629L886.807 312.371C886.629 313.316 885.804 314 884.842 314H578.603C577.666 314 576.855 313.35 576.651 312.435Z" fill="url(#paint0_linear_810_132)"/>
<path opacity="0.3" d="M530.116 420.436L332.544 -464.564C332.265 -465.814 333.215 -467 334.496 -467H1105.59C1106.84 -467 1107.78 -465.86 1107.55 -464.629L940.274 420.371C940.095 421.316 939.27 422 938.309 422H532.068C531.132 422 530.32 421.35 530.116 420.436Z" fill="url(#paint1_linear_810_132)"/>
<path opacity="0.1" d="M492.502 508.436L255.544 -552.564C255.265 -553.814 256.216 -555 257.496 -555H1182.59C1183.84 -555 1184.78 -553.86 1184.55 -552.628L983.927 508.372C983.748 509.316 982.923 510 981.962 510H494.454C493.518 510 492.706 509.35 492.502 508.436Z" fill="url(#paint2_linear_810_132)"/>
<path opacity="0.5" d="M406.81 134.522L290.012 37.0742L304.562 25.8316L413.834 125.918L406.81 134.522Z" fill="url(#paint3_linear_810_132)" fill-opacity="0.4"/>
<path d="M289.573 19.1175C288.328 17.507 286.729 18.7573 288.001 20.4042C289.868 23.4046 291.392 26.611 292.549 29.9685C293.634 33.7795 289.983 36.3104 291.269 37.9755C292.31 39.3222 294.848 37.0409 298.351 38.5921C301.634 40.0373 307.172 45.2762 307.924 46.2498C308.083 46.4549 308.321 46.585 308.586 46.6115C308.852 46.6381 309.122 46.5591 309.339 46.3915C309.556 46.224 309.701 45.9817 309.743 45.7182C309.784 45.4547 309.718 45.1914 309.56 44.9863C309.56 44.9863 304.698 38.0771 304.121 34.5269C303.511 30.755 306.821 28.0809 305.795 26.7524C304.389 24.9326 301.442 28.4155 297.724 25.9697C294.805 23.9255 292.078 21.6334 289.573 19.1175Z" fill="white"/>
<path opacity="0.5" d="M1133.81 96.4549L1218.66 24.0441L1231.93 40.1689L1133 109.563L1133.81 96.4549Z" fill="url(#paint4_linear_810_132)" fill-opacity="0.4"/>
<path d="M1231.83 38.2189C1231.6 35.9878 1231.84 33.7334 1232.53 31.6005C1233.23 29.4676 1234.36 27.5033 1235.85 25.8336L1240.98 20.145C1241.14 20.0174 1241.23 19.8334 1241.25 19.6335C1241.27 19.4336 1241.21 19.2342 1241.08 19.0791C1240.96 18.924 1240.77 18.826 1240.57 18.8066C1240.37 18.7872 1240.17 18.8479 1240.02 18.9756L1233.45 22.9099C1231.52 24.0579 1229.38 24.7904 1227.15 25.0604C1224.92 25.3304 1222.66 25.132 1220.52 24.4779L1219.36 23.9617C1219.22 23.9269 1219.07 23.9259 1218.92 23.9586C1218.78 23.9914 1218.65 24.0571 1218.53 24.1504L1218.19 24.924L1218.47 26.1619C1218.7 28.3931 1218.46 30.6474 1217.77 32.7803C1217.07 34.9132 1215.94 36.8775 1214.45 38.5472L1209.32 44.2358C1209.16 44.3634 1209.07 44.5474 1209.05 44.7473C1209.03 44.9472 1209.09 45.1466 1209.22 45.3017C1209.34 45.4567 1209.53 45.5548 1209.73 45.5742C1209.93 45.5936 1210.13 45.5328 1210.28 45.4052L1216.85 41.4708C1218.78 40.3229 1220.92 39.5904 1223.15 39.3204C1225.38 39.0504 1227.63 39.2488 1229.78 39.9029L1230.94 40.4192C1231.23 40.436 1231.51 40.3705 1231.77 40.2304C1231.88 40.137 1231.97 40.0185 1232.03 39.8842C1232.09 39.7499 1232.12 39.6037 1232.11 39.4569L1231.83 38.2189Z" fill="#FFE75C"/>
<path d="M253.419 36.6852C253.419 35.7647 252.538 35.7699 252.538 36.7112C252.383 38.3011 252.056 39.8701 251.563 41.3914C250.925 43.0555 249 42.9515 249 43.9031C249 44.6728 250.476 44.5583 251.267 46.082C252.011 47.5069 252.522 50.9131 252.522 51.4695C252.522 51.5867 252.57 51.6991 252.654 51.782C252.738 51.8649 252.852 51.9115 252.971 51.9115C253.089 51.9115 253.203 51.8649 253.288 51.782C253.372 51.6991 253.419 51.5867 253.419 51.4695C253.419 51.4695 253.582 47.6525 254.326 46.2224C255.117 44.704 256.962 44.6624 256.962 43.9031C256.962 42.8631 255.027 43.2947 254.4 41.3914C253.94 39.8525 253.611 38.2783 253.419 36.6852Z" fill="white"/>
<path d="M45.4188 17.6852C45.4188 16.7647 44.5383 16.7699 44.5383 17.7112C44.3832 19.3011 44.0561 20.8701 43.5627 22.3914C42.9246 24.0555 41 23.9515 41 24.9031C41 25.6728 42.4764 25.5583 43.2673 27.082C44.0109 28.5069 44.5224 31.9131 44.5224 32.4695C44.5224 32.5867 44.5697 32.6991 44.6537 32.782C44.7378 32.8649 44.8517 32.9115 44.9706 32.9115C45.0894 32.9115 45.2035 32.8649 45.2875 32.782C45.3716 32.6991 45.4188 32.5867 45.4188 32.4695C45.4188 32.4695 45.5823 28.6525 46.3258 27.2224C47.1168 25.704 48.9624 25.6624 48.9624 24.9031C48.9624 23.8631 47.0272 24.2947 46.3997 22.3914C45.9396 20.8525 45.6115 19.2783 45.4188 17.6852Z" fill="white"/>
<path d="M1134.42 13.6852C1134.42 12.7647 1133.54 12.7699 1133.54 13.7112C1133.38 15.3011 1133.06 16.8701 1132.56 18.3914C1131.92 20.0555 1130 19.9515 1130 20.9031C1130 21.6728 1131.48 21.5583 1132.27 23.082C1133.01 24.5069 1133.52 27.9131 1133.52 28.4695C1133.52 28.5867 1133.57 28.6991 1133.65 28.782C1133.74 28.8649 1133.85 28.9115 1133.97 28.9115C1134.09 28.9115 1134.2 28.8649 1134.29 28.782C1134.37 28.6991 1134.42 28.5867 1134.42 28.4695C1134.42 28.4695 1134.58 24.6525 1135.33 23.2224C1136.12 21.704 1137.96 21.6624 1137.96 20.9031C1137.96 19.8631 1136.03 20.2947 1135.4 18.3914C1134.94 16.8525 1134.61 15.2783 1134.42 13.6852Z" fill="white"/>
<path d="M332.764 16.5759C332.764 15.8054 332.018 15.8107 332.018 16.5759C331.884 17.9078 331.603 19.2221 331.179 20.4963C330.634 21.88 329 21.7856 329 22.5928C329 23.2322 330.264 23.1169 330.945 24.4063C331.625 25.6956 332.034 28.4315 332.034 28.8927C332.034 28.99 332.074 29.0833 332.146 29.1521C332.217 29.2209 332.314 29.2596 332.415 29.2596C332.516 29.2596 332.613 29.2209 332.685 29.1521C332.756 29.0833 332.796 28.99 332.796 28.8927C332.796 28.8927 332.938 25.7165 333.57 24.5268C334.245 23.2584 335.825 23.2322 335.825 22.5928C335.825 21.7175 334.191 22.0687 333.646 20.4963C333.237 19.2159 332.942 17.9044 332.764 16.5759Z" fill="#FFE75C"/>
<path d="M1261.76 41.5759C1261.76 40.8054 1261.02 40.8107 1261.02 41.5759C1260.88 42.9078 1260.6 44.2221 1260.18 45.4963C1259.63 46.88 1258 46.7856 1258 47.5928C1258 48.2322 1259.26 48.1169 1259.94 49.4063C1260.63 50.6956 1261.03 53.4315 1261.03 53.8927C1261.03 53.99 1261.07 54.0833 1261.15 54.1521C1261.22 54.2209 1261.31 54.2596 1261.42 54.2596C1261.52 54.2596 1261.61 54.2209 1261.68 54.1521C1261.76 54.0833 1261.8 53.99 1261.8 53.8927C1261.8 53.8927 1261.94 50.7165 1262.57 49.5268C1263.25 48.2584 1264.82 48.2322 1264.82 47.5928C1264.82 46.7175 1263.19 47.0687 1262.65 45.4963C1262.24 44.2159 1261.94 42.9044 1261.76 41.5759Z" fill="white"/>
<path d="M627.207 217L585 -33H627.207L654 203.07L627.207 217Z" fill="url(#paint5_linear_810_132)"/>
<path d="M882 218L928 -33H922.889L882 218Z" fill="url(#paint6_linear_810_132)"/>
<path opacity="0.6" d="M859.966 217L902 -33H743V203.07L859.966 217Z" fill="url(#paint7_linear_810_132)"/>
<path d="M606 270L545 -33H550.176L606 270Z" fill="url(#paint8_linear_810_132)"/>
</g>
<defs>
<linearGradient id="paint0_linear_810_132" x1="729" y1="-23" x2="729" y2="81" gradientUnits="userSpaceOnUse">
<stop stop-color="#FF58B3"/>
<stop offset="1" stop-color="#FFA62D"/>
</linearGradient>
<linearGradient id="paint1_linear_810_132" x1="731.577" y1="-467" x2="731.577" y2="422" gradientUnits="userSpaceOnUse">
<stop stop-color="#FF58B3"/>
<stop offset="1" stop-color="#FFA62D"/>
</linearGradient>
<linearGradient id="paint2_linear_810_132" x1="733.874" y1="-555" x2="733.874" y2="510" gradientUnits="userSpaceOnUse">
<stop stop-color="#FF58B3"/>
<stop offset="1" stop-color="#FFA62D"/>
</linearGradient>
<linearGradient id="paint3_linear_810_132" x1="295.854" y1="36.5011" x2="410.462" y2="130.048" gradientUnits="userSpaceOnUse">
<stop stop-color="white"/>
<stop offset="1" stop-color="white" stop-opacity="0"/>
</linearGradient>
<linearGradient id="paint4_linear_810_132" x1="1228.37" y1="30.0701" x2="1119.88" y2="68.2537" gradientUnits="userSpaceOnUse">
<stop stop-color="#FFE75C"/>
<stop offset="1" stop-color="#FFE75C" stop-opacity="0"/>
</linearGradient>
<linearGradient id="paint5_linear_810_132" x1="619.5" y1="-33" x2="619.5" y2="217" gradientUnits="userSpaceOnUse">
<stop stop-color="white" stop-opacity="0.21"/>
<stop offset="1" stop-color="white" stop-opacity="0"/>
</linearGradient>
<linearGradient id="paint6_linear_810_132" x1="905.548" y1="-86.7857" x2="905.548" y2="216.171" gradientUnits="userSpaceOnUse">
<stop stop-color="white" stop-opacity="0.12"/>
<stop offset="1" stop-color="white" stop-opacity="0.42"/>
</linearGradient>
<linearGradient id="paint7_linear_810_132" x1="770.048" y1="-33" x2="770.048" y2="217" gradientUnits="userSpaceOnUse">
<stop stop-color="white" stop-opacity="0.21"/>
<stop offset="1" stop-color="white" stop-opacity="0"/>
</linearGradient>
<linearGradient id="paint8_linear_810_132" x1="575.5" y1="-33" x2="575.5" y2="270" gradientUnits="userSpaceOnUse">
<stop stop-color="white" stop-opacity="0.12"/>
<stop offset="1" stop-color="white" stop-opacity="0.42"/>
</linearGradient>
<clipPath id="clip0_810_132">
<rect width="1440" height="70" fill="white"/>
</clipPath>
</defs>
</svg>
