<svg xmlns="http://www.w3.org/2000/svg" width="24" height="26" xmlns:xlink="http://www.w3.org/1999/xlink">
  <defs>
    <path id="a" d="M8.2262.074H.0602v16.9603h8.166z"/>
    <path id="c" d="M0 25.9263h22.151V1.0003H0z"/>
  </defs>
  <g fill="none" fill-rule="evenodd">
    <g transform="translate(1)">
      <g transform="translate(7 .926)">
        <mask id="b" fill="#fff">
          <use xlink:href="#a"/>
        </mask>
        <path fill="#161A29" d="M8.2262 17.0343H.0602V4.1573c0-2.256 1.828-4.084 4.083-4.084s4.083 1.828 4.083 4.084v12.877z" mask="url(#b)"/>
      </g>
      <path fill="#161A29" d="M15.2265 11.1189c-.17 0-.339-.068-.463-.204-.234-.255-.217-.653.038-.887l4.453-4.082v-2.433c0-.347.281-.628.628-.628s.628.281.628.628v2.709c0 .177-.073.345-.203.464l-4.657 4.268c-.12.11-.272.165-.424.165m6.2958 14.8074c-.16 0-.319-.06-.441-.181l-2.365-2.335c-.033-.033-.062-.069-.088-.108l-3.609-5.631c-.187-.292-.103-.68.189-.868.291-.187.681-.102.868.19l3.573 5.572 2.314 2.286c.247.243.25.641.006.888-.123.125-.285.187-.447.187"/>
      <path fill="#161A29" d="M21.5223 16.5633c-.071 0-.144-.012-.215-.038l-2.268-.824c-.081-.029-.154-.075-.217-.134l-4.656-4.411c-.252-.239-.262-.636-.024-.888.239-.253.636-.262.888-.024l4.561 4.321 2.146.779c.325.118.494.479.375.805-.093.255-.334.414-.59.414M6.9241 11.1189c-.152 0-.304-.055-.424-.165l-4.657-4.268c-.13-.119-.203-.287-.203-.464v-2.709c0-.347.281-.628.628-.628s.628.281.628.628v2.433l4.453 4.082c.255.234.272.632.038.887-.124.136-.293.204-.463.204M.6283 25.9263c-.162 0-.324-.062-.447-.187-.244-.247-.241-.645.006-.888l2.314-2.286 3.573-5.572c.186-.292.575-.378.868-.19.292.188.376.576.189.868l-3.609 5.631c-.026.039-.055.075-.088.108l-2.365 2.335c-.122.121-.281.181-.441.181"/>
      <path fill="#161A29" d="M.6283 16.5633c-.256 0-.497-.159-.59-.414-.119-.326.05-.687.375-.805l2.146-.779 4.561-4.321c.252-.238.65-.228.888.024s.228.649-.024.888l-4.656 4.411c-.063.059-.136.105-.217.134l-2.268.824c-.071.026-.144.038-.215.038"/>
      <path fill="#1B2138" d="M11.1431 24.2194c-3.455 0-6.282-2.827-6.282-6.282v-9.211c0-2.534 2.074-4.608 4.609-4.608h3.346c2.535 0 4.609 2.074 4.609 4.608v9.211c0 3.455-2.827 6.282-6.282 6.282"/>
      <mask id="d" fill="#fff">
        <use xlink:href="#c"/>
      </mask>
      <path fill="#161A29" d="M4.862 10.5943h12.563v-1.314H4.862" mask="url(#d)"/>
    </g>
    <path d="M0 0h24v26H0z"/>
  </g>
</svg>