<svg width="635" height="516" viewBox="0 0 635 516" fill="none" xmlns="http://www.w3.org/2000/svg">
<path d="M598.45 249.966H55.4499V276.966H598.45V249.966Z" fill="#05124A"/>
<path d="M413.95 230.966H239.95V277.556C239.949 279.186 240.269 280.801 240.892 282.307C241.515 283.813 242.429 285.182 243.582 286.334C244.734 287.487 246.103 288.401 247.609 289.024C249.115 289.648 250.73 289.968 252.36 289.966H273.04C274.67 289.965 276.284 290.285 277.791 290.908C279.297 291.531 280.665 292.446 281.818 293.598C282.971 294.751 283.885 296.119 284.508 297.626C285.131 299.132 285.451 300.746 285.45 302.376V516H368.45V302.376C368.449 300.746 368.769 299.132 369.392 297.626C370.015 296.119 370.929 294.751 372.082 293.598C373.234 292.446 374.603 291.531 376.109 290.908C377.615 290.285 379.23 289.965 380.86 289.966H401.54C403.17 289.968 404.784 289.648 406.291 289.024C407.797 288.401 409.165 287.487 410.318 286.334C411.471 285.182 412.385 283.813 413.008 282.307C413.631 280.801 413.951 279.186 413.95 277.556V230.966Z" fill="#DEECFF"/>
<path d="M240.01 253.466V261.486L413.95 267.966V254.466L240.01 253.466Z" fill="#BDD5FF"/>
<path d="M285.45 302.966H337.34C339.889 302.966 342.333 303.979 344.135 305.781C345.937 307.583 346.95 310.028 346.95 312.576V516H285.45L285.45 302.966Z" fill="#B2CCF7"/>
<path d="M280.95 340.796H319.44C320.371 340.796 321.264 341.166 321.922 341.824C322.58 342.483 322.95 343.375 322.95 344.306V345.576" stroke="#7699D6" stroke-width="3" stroke-miterlimit="10"/>
<path d="M280.95 369.026H319.44C320.369 369.026 321.26 369.395 321.918 370.051C322.576 370.707 322.947 371.597 322.95 372.526V373.796" stroke="#7699D6" stroke-width="3" stroke-miterlimit="10"/>
<path d="M280.95 397.246H319.44C320.369 397.246 321.26 397.615 321.918 398.271C322.576 398.927 322.947 399.817 322.95 400.746V402.026" stroke="#7699D6" stroke-width="3" stroke-miterlimit="10"/>
<path d="M280.95 425.466H319.44C320.369 425.466 321.26 425.835 321.918 426.491C322.576 427.147 322.947 428.037 322.95 428.966V430.236" stroke="#7699D6" stroke-width="3" stroke-miterlimit="10"/>
<path d="M280.95 453.686H319.44C320.371 453.686 321.264 454.056 321.922 454.714C322.58 455.373 322.95 456.266 322.95 457.196V458.466" stroke="#7699D6" stroke-width="3" stroke-miterlimit="10"/>
<path d="M280.95 482H319.44C320.371 482 321.264 482.37 321.922 483.028C322.58 483.686 322.95 484.579 322.95 485.51V486.78" stroke="#7699D6" stroke-width="3" stroke-miterlimit="10"/>
<path d="M280.95 510H319.44C320.371 510 321.264 510.37 321.922 511.028C322.58 511.686 322.95 512.579 322.95 513.51V514.78" stroke="#7699D6" stroke-width="3" stroke-miterlimit="10"/>
<path d="M280.95 516V321.106C280.95 318.682 281.913 316.357 283.627 314.643C285.341 312.929 287.666 311.966 290.09 311.966H307.81C310.234 311.966 312.559 312.929 314.273 314.643C315.987 316.357 316.95 318.682 316.95 321.106V516" stroke="#7699D6" stroke-width="3" stroke-miterlimit="10"/>
<path d="M340.95 324.966C342.054 324.966 342.95 324.071 342.95 322.966C342.95 321.862 342.054 320.966 340.95 320.966C339.845 320.966 338.95 321.862 338.95 322.966C338.95 324.071 339.845 324.966 340.95 324.966Z" fill="#9EC2FF"/>
<path d="M340.95 338.966C342.054 338.966 342.95 338.071 342.95 336.966C342.95 335.862 342.054 334.966 340.95 334.966C339.845 334.966 338.95 335.862 338.95 336.966C338.95 338.071 339.845 338.966 340.95 338.966Z" fill="#9EC2FF"/>
<path d="M340.95 367.966C342.054 367.966 342.95 367.071 342.95 365.966C342.95 364.862 342.054 363.966 340.95 363.966C339.845 363.966 338.95 364.862 338.95 365.966C338.95 367.071 339.845 367.966 340.95 367.966Z" fill="#9EC2FF"/>
<path d="M368.45 381.496H361.18C360.588 381.496 360.021 381.731 359.603 382.15C359.185 382.568 358.95 383.135 358.95 383.726V439.726C358.95 440.318 359.185 440.885 359.603 441.303C360.021 441.721 360.588 441.956 361.18 441.956H368.45" stroke="#B8D2FF" stroke-miterlimit="10"/>
<path d="M362.95 438.966C363.502 438.966 363.95 438.519 363.95 437.966C363.95 437.414 363.502 436.966 362.95 436.966C362.398 436.966 361.95 437.414 361.95 437.966C361.95 438.519 362.398 438.966 362.95 438.966Z" fill="#9EC2FF"/>
<path d="M362.95 386.966C363.502 386.966 363.95 386.519 363.95 385.966C363.95 385.414 363.502 384.966 362.95 384.966C362.398 384.966 361.95 385.414 361.95 385.966C361.95 386.519 362.398 386.966 362.95 386.966Z" fill="#9EC2FF"/>
<path d="M610.45 25.9663H43.4499V244.966H610.45V25.9663Z" fill="#1F2534"/>
<path d="M262.71 25.9663L107.95 243.686H337.95L489.31 25.9663H262.71Z" fill="#1B212E"/>
<path d="M404.38 110.696C401.77 102.176 409.61 88.3064 404.38 81.2564C399.15 74.2064 383.47 77.2564 376.38 72.1664C369.29 67.0764 367.17 50.6764 358.99 48.4064C358.312 48.2198 357.613 48.1223 356.91 48.1164H345.01L344.95 50.9664H347.53C341.95 53.7264 336.19 57.4964 330.95 57.4964C322.58 57.4964 313.06 47.3964 304.95 47.9964H293.04L293.5 51.9964H298.03C293.31 57.7064 291.03 67.9964 285.48 72.1964C278.32 77.6464 262.29 74.5764 257.29 81.2864C252.29 87.9964 260.02 102.656 257.29 110.726C254.56 118.796 240.01 125.506 240.01 134.486C240.01 143.466 254.9 149.716 257.52 158.246C260.14 166.776 252.29 180.636 257.52 187.686C262.75 194.736 278.43 191.686 285.52 196.776C291.23 200.966 293.8 212.576 298.95 217.966H292.95V220.806H305.18C313.04 220.886 322.76 211.416 331.06 211.416C340.16 211.416 350.62 223.346 359.14 220.506C367.66 217.666 369.6 201.866 376.65 196.746C383.7 191.626 399.65 194.366 404.65 187.656C409.65 180.946 401.92 166.286 404.65 158.216C407.38 150.146 421.93 143.436 421.93 134.456C421.93 125.476 407 119.226 404.38 110.696Z" fill="#1EA669"/>
<path d="M409.89 134.456C409.89 143.456 395.34 150.146 392.61 158.216C389.88 166.286 397.61 180.946 392.61 187.656C387.61 194.366 371.7 191.656 364.61 196.746C357.52 201.836 355.61 217.666 347.1 220.506C338.59 223.346 328.1 211.416 319.02 211.416C309.94 211.416 299.13 222.786 290.95 220.506C282.77 218.226 280.49 201.866 273.44 196.746C266.39 191.626 250.7 194.746 245.44 187.656C240.18 180.566 248.05 166.736 245.44 158.216C242.83 149.696 227.93 143.436 227.93 134.456C227.93 125.476 242.48 118.766 245.21 110.696C247.94 102.626 240.21 87.9663 245.21 81.2563C250.21 74.5463 266.21 77.6163 273.4 72.1663C280.59 66.7163 282.27 51.2463 290.79 48.4063C299.31 45.5663 309.79 57.4963 318.87 57.4963C327.95 57.4963 338.76 46.1263 346.95 48.4063C355.14 50.6863 357.29 67.0463 364.34 72.1663C371.39 77.2863 387.08 74.1663 392.34 81.2563C397.6 88.3463 389.73 102.176 392.34 110.696C394.95 119.216 409.89 125.476 409.89 134.456Z" fill="#43B581"/>
<path d="M392.38 81.2564C387.16 74.2064 371.47 77.2564 364.38 72.1664C359.59 68.6864 357.06 60.0164 353.38 54.0964L252.21 191.666C259.09 193.666 268.47 193.116 273.48 196.746C280.53 201.866 282.8 218.236 290.99 220.506C292.013 220.777 293.075 220.869 294.13 220.776L393.95 85.0364C393.721 83.6735 393.184 82.3807 392.38 81.2564Z" fill="#48C28A"/>
<path d="M352.28 93.8765H348.28L347.95 95.9665H350.7L311.58 147.986L288.85 130.596H284.85L284.95 132.966H287.08L277.48 145.826L313.39 172.966H311.95L312.13 175.036H316.13L367.74 105.246L352.28 93.8765Z" fill="#3C8564"/>
<path d="M312.13 175.036L273.48 145.826L284.85 130.596L307.58 147.966L348.28 93.8564L363.74 105.226L312.13 175.036Z" fill="white"/>
<path d="M392.38 110.696C391.927 109.05 391.751 107.34 391.86 105.636L313.1 212.706C315.004 211.914 317.038 211.476 319.1 211.416C323.99 211.416 329.26 214.856 334.42 217.596L403.19 123.376C398.84 119.286 393.8 115.326 392.38 110.696Z" fill="#48C28A"/>
<!-- <path d="M420.96 49.4663H420.95C419.702 49.4663 418.69 50.4781 418.69 51.7263V57.4963C418.69 58.7445 419.702 59.7563 420.95 59.7563H420.96C422.208 59.7563 423.22 58.7445 423.22 57.4963V51.7263C423.22 50.4781 422.208 49.4663 420.96 49.4663Z" fill="#FF70AA"/> -->
<!-- <path d="M420.96 67.1763H420.95C419.702 67.1763 418.69 68.1881 418.69 69.4363V75.2063C418.69 76.4544 419.702 77.4663 420.95 77.4663H420.96C422.208 77.4663 423.22 76.4544 423.22 75.2063V69.4363C423.22 68.1881 422.208 67.1763 420.96 67.1763Z" fill="#FF70AA"/> -->
<!-- <path d="M434.95 63.4763V63.4663C434.95 62.2181 433.938 61.2063 432.69 61.2063H426.92C425.672 61.2063 424.66 62.2181 424.66 63.4663V63.4763C424.66 64.7245 425.672 65.7363 426.92 65.7363H432.69C433.938 65.7363 434.95 64.7245 434.95 63.4763Z" fill="#FF70AA"/> -->
<!-- <path d="M417.25 63.4663V63.4563C417.25 62.2081 416.238 61.1963 414.99 61.1963H409.22C407.972 61.1963 406.96 62.2081 406.96 63.4563V63.4663C406.96 64.7144 407.972 65.7263 409.22 65.7263H414.99C416.238 65.7263 417.25 64.7144 417.25 63.4663Z" fill="#FF70AA"/> -->
<!-- <path d="M200.21 110.966L203.36 118.056C203.373 118.084 203.393 118.107 203.419 118.124C203.445 118.14 203.474 118.149 203.505 118.149C203.535 118.149 203.565 118.14 203.591 118.124C203.617 118.107 203.637 118.084 203.65 118.056L206.81 110.966C206.815 110.947 206.825 110.93 206.839 110.915C206.853 110.901 206.871 110.891 206.89 110.886L213.98 107.726C214.007 107.714 214.031 107.693 214.047 107.667C214.064 107.642 214.072 107.612 214.072 107.581C214.072 107.551 214.064 107.521 214.047 107.496C214.031 107.47 214.007 107.449 213.98 107.436L206.89 104.286C206.854 104.271 206.825 104.243 206.81 104.206L203.65 97.0665C203.637 97.0389 203.617 97.0155 203.591 96.9992C203.565 96.9828 203.535 96.9741 203.505 96.9741C203.474 96.9741 203.445 96.9828 203.419 96.9992C203.393 97.0155 203.373 97.0389 203.36 97.0665L200.21 104.156C200.189 104.188 200.161 104.215 200.13 104.236L193.04 107.386C193.012 107.399 192.989 107.42 192.973 107.446C192.956 107.471 192.948 107.501 192.948 107.531C192.948 107.562 192.956 107.592 192.973 107.617C192.989 107.643 193.012 107.664 193.04 107.676L200.13 110.836C200.154 110.849 200.174 110.868 200.188 110.891C200.202 110.913 200.209 110.94 200.21 110.966Z" fill="#FFE55E"/> -->
<path d="M250.07 139.016L251.86 143.016C251.869 143.031 251.881 143.043 251.896 143.051C251.911 143.059 251.928 143.064 251.945 143.064C251.962 143.064 251.979 143.059 251.994 143.051C252.008 143.043 252.021 143.031 252.03 143.016L253.82 139.016C253.836 139.01 253.854 139.01 253.87 139.016L257.87 137.216C257.885 137.209 257.897 137.197 257.906 137.183C257.914 137.169 257.919 137.153 257.919 137.136C257.919 137.12 257.914 137.104 257.906 137.089C257.897 137.075 257.885 137.064 257.87 137.056L253.87 135.266C253.853 135.27 253.836 135.27 253.82 135.266L252.03 131.266C252.021 131.252 252.008 131.24 251.994 131.232C251.979 131.223 251.962 131.219 251.945 131.219C251.928 131.219 251.911 131.223 251.896 131.232C251.881 131.24 251.869 131.252 251.86 131.266L250.07 135.266H250.02L246.02 137.056C246.005 137.064 245.993 137.075 245.984 137.089C245.976 137.104 245.971 137.12 245.971 137.136C245.971 137.153 245.976 137.169 245.984 137.183C245.993 137.197 246.005 137.209 246.02 137.216L250.02 139.016C250.036 139.01 250.054 139.01 250.07 139.016Z" fill="#48C28A"/>
<path d="M381.56 179.206L380.69 181.476C380.685 181.485 380.684 181.495 380.685 181.505C380.686 181.515 380.69 181.524 380.697 181.531C380.703 181.539 380.711 181.544 380.721 181.547C380.73 181.55 380.74 181.549 380.75 181.546L383.02 180.676L385.29 181.546C385.299 181.549 385.309 181.55 385.319 181.547C385.328 181.544 385.337 181.539 385.343 181.531C385.35 181.524 385.354 181.515 385.355 181.505C385.356 181.495 385.354 181.485 385.35 181.476L384.48 179.206L385.35 176.936C385.354 176.928 385.356 176.918 385.355 176.908C385.354 176.898 385.35 176.889 385.343 176.881C385.337 176.874 385.328 176.869 385.319 176.866C385.309 176.863 385.299 176.863 385.29 176.866L383.02 177.746L380.75 176.866C380.74 176.863 380.73 176.863 380.721 176.866C380.711 176.869 380.703 176.874 380.697 176.881C380.69 176.889 380.686 176.898 380.685 176.908C380.684 176.918 380.685 176.928 380.69 176.936L381.56 179.206Z" fill="#48C28A"/>
<!-- <path d="M255.77 215.967L254.19 220.067C254.182 220.083 254.179 220.102 254.182 220.121C254.186 220.139 254.194 220.156 254.207 220.169C254.221 220.182 254.238 220.191 254.256 220.194C254.274 220.197 254.293 220.195 254.31 220.187L258.41 218.607H258.48L262.58 220.187C262.597 220.195 262.616 220.197 262.634 220.194C262.652 220.191 262.669 220.182 262.682 220.169C262.695 220.156 262.704 220.139 262.707 220.121C262.711 220.102 262.708 220.083 262.7 220.067L261.12 215.967V215.896L262.7 211.797C262.708 211.78 262.711 211.761 262.707 211.743C262.704 211.724 262.695 211.707 262.682 211.694C262.669 211.681 262.652 211.672 262.634 211.669C262.616 211.666 262.597 211.668 262.58 211.677L258.48 213.256C258.469 213.261 258.457 213.264 258.445 213.264C258.433 213.264 258.421 213.261 258.41 213.256L254.31 211.677C254.293 211.668 254.274 211.666 254.256 211.669C254.238 211.672 254.221 211.681 254.207 211.694C254.194 211.707 254.186 211.724 254.182 211.743C254.179 211.761 254.182 211.78 254.19 211.797L255.77 215.896C255.775 215.908 255.777 215.919 255.777 215.932C255.777 215.944 255.775 215.955 255.77 215.967Z" fill="#7AA6FF"/> -->
<path d="M199.88 213.196C197.27 204.676 205.11 190.806 199.88 183.756C194.65 176.706 178.97 179.756 171.88 174.666C164.79 169.576 162.67 153.176 154.49 150.906C146.31 148.636 135.49 159.996 126.41 159.996C117.33 159.996 106.95 148.066 98.3699 150.906C89.7899 153.746 88.1399 169.206 80.9499 174.666C73.7599 180.126 57.7599 177.046 52.7599 183.756C47.7599 190.466 55.4899 205.126 52.7599 213.196C51.4299 217.126 47.3099 220.726 43.4199 224.426V244.966H213.82C215.91 242.456 217.39 239.826 217.39 236.966C217.39 227.966 202.5 221.726 199.88 213.196Z" fill="#318576"/>
<path d="M119.24 244.956H143.72L171.24 207.746L155.78 196.376L119.24 244.956Z" fill="#A3ACC9"/>
<path d="M107.86 244.956L92.3499 233.096L83.4899 244.956H107.86Z" fill="#A3ACC9"/>
<path d="M61.9499 252.966V260.316C61.9499 261.452 62.1736 262.577 62.6083 263.627C63.043 264.676 63.6802 265.63 64.4834 266.433C65.2866 267.236 66.2402 267.873 67.2897 268.308C68.3391 268.743 69.4639 268.966 70.5999 268.966H194.3C196.594 268.966 198.794 268.055 200.416 266.433C202.039 264.811 202.95 262.61 202.95 260.316V252.966" stroke="#574D8A" stroke-width="3" stroke-miterlimit="10"/>
<path d="M75.5199 74.9664C74.7099 72.3164 77.1399 67.9664 75.5199 65.8264C73.8999 63.6864 69.0299 64.5964 66.8399 63.0064C64.6499 61.4164 63.9799 56.3364 61.4399 55.6364C58.8999 54.9364 55.5499 58.4564 52.7299 58.4564C49.9099 58.4564 46.6599 54.7464 44.0199 55.6364C43.8184 55.6998 43.6266 55.7907 43.4499 55.9064V108.766C43.6381 108.881 43.8396 108.971 44.0499 109.036C46.5899 109.746 49.9399 106.216 52.7599 106.216C55.5799 106.216 58.8299 109.916 61.4799 109.036C64.1299 108.156 64.7199 103.256 66.9099 101.666C69.0999 100.076 74.0399 100.926 75.5899 98.8464C77.1399 96.7664 74.7399 92.2164 75.5899 89.7064C76.4399 87.1964 80.9499 85.0964 80.9499 82.3064C80.9499 79.5164 76.3299 77.5764 75.5199 74.9664Z" fill="#1C4A42"/>
<path d="M49.1999 86.5063L43.4499 82.1063V89.4863L50.6099 94.8963L66.6299 73.2363L61.8299 69.7163L49.1999 86.5063Z" fill="#72788C"/>
<path d="M610.45 25.9663H452.24C456.84 31.2163 464.24 35.9663 466.02 41.7263C468.63 50.2463 460.79 64.1163 466.02 71.1663C471.25 78.2163 486.93 75.1663 494.02 80.2563C501.11 85.3463 503.34 101.746 511.53 104.016C519.72 106.286 530.53 94.9263 539.6 94.9263C548.67 94.9263 559.16 106.856 567.68 104.016C576.2 101.176 578.1 85.3663 585.15 80.2463C591.22 75.8463 603.86 77.2463 610.45 73.4463V25.9663Z" fill="#318576"/>
<path d="M532.24 25.9563L528.08 31.4863L520.86 25.9563H496.49L493.98 29.3263L532.63 58.5363L556.72 25.9563H532.24Z" fill="#A3ACC9"/>
<path d="M610.45 122.736C608.29 123.416 605.86 125.426 603.73 125.426C600.91 125.426 597.66 121.716 595.02 122.606C592.38 123.496 591.84 128.286 589.62 129.976C587.4 131.666 582.42 130.716 580.87 132.796C579.32 134.876 581.72 139.426 580.87 141.936C580.02 144.446 575.51 146.516 575.51 149.306C575.51 152.096 580.13 154.036 580.94 156.676C581.75 159.316 579.32 163.626 580.94 165.816C582.56 168.006 587.43 167.046 589.62 168.636C591.81 170.226 592.51 175.306 595.05 176.006C597.59 176.706 600.94 173.186 603.76 173.186C605.9 173.186 608.27 175.306 610.45 175.956V122.736Z" fill="#1C4A42"/>
<path d="M610.45 139.876L600.2 153.506L593.15 148.106L589.62 152.836L601.61 161.896L610.45 149.946V139.876Z" fill="#72788C"/>
<path d="M18.9499 243.966H634.95V248.466C634.95 251.516 633.738 254.441 631.582 256.598C629.425 258.755 626.5 259.966 623.45 259.966H30.4499C27.3999 259.966 24.4748 258.755 22.3181 256.598C20.1615 254.441 18.9499 251.516 18.9499 248.466V243.966Z" fill="#DEECFF"/>
<path d="M132.45 264.116H182.95" stroke="#574D8A" stroke-width="3" stroke-miterlimit="10"/>
<path d="M606.95 259.966H425.95V243.966H585.95L606.95 259.966Z" fill="#D1E2FF"/>
<path d="M394.95 259.966H339.95L308.95 243.966H364.95L394.95 259.966Z" fill="#D1E2FF"/>
<!-- <path d="M242.95 71.9663H240.95V73.9663H242.95V71.9663Z" fill="#4591FF"/> -->
<path d="M81.4499 259.966V288.966" stroke="#4A4175" stroke-width="4" stroke-miterlimit="10"/>
<path d="M131.95 259.966V288.966" stroke="#4A4175" stroke-width="4" stroke-miterlimit="10"/>
<path d="M182.95 259.966V288.966" stroke="#4A4175" stroke-width="4" stroke-miterlimit="10"/>
<path d="M61.9499 284.966H100.95C100.95 288.149 99.6856 291.201 97.4352 293.452C95.1847 295.702 92.1325 296.966 88.9499 296.966H73.9499C70.7673 296.966 67.715 295.702 65.4646 293.452C63.2142 291.201 61.9499 288.149 61.9499 284.966Z" fill="#493C75"/>
<path d="M112.45 284.966H151.45C151.45 288.149 150.186 291.201 147.935 293.452C145.685 295.702 142.632 296.966 139.45 296.966H124.45C121.267 296.966 118.215 295.702 115.965 293.452C113.714 291.201 112.45 288.149 112.45 284.966Z" fill="#493C75"/>
<path d="M162.95 284.966H201.95C201.95 288.149 200.686 291.201 198.435 293.452C196.185 295.702 193.132 296.966 189.95 296.966H174.95C171.767 296.966 168.715 295.702 166.465 293.452C164.214 291.201 162.95 288.149 162.95 284.966Z" fill="#493C75"/>
<path d="M100.95 284.966H61.9499C61.9499 284.436 62.1606 283.927 62.5357 283.552C62.9107 283.177 63.4194 282.966 63.9499 282.966H98.9499C99.4803 282.966 99.989 283.177 100.364 283.552C100.739 283.927 100.95 284.436 100.95 284.966Z" fill="#7B6CC2"/>
<path d="M151.45 284.966H112.45C112.45 284.436 112.661 283.927 113.036 283.552C113.411 283.177 113.919 282.966 114.45 282.966H149.45C149.98 282.966 150.489 283.177 150.864 283.552C151.239 283.927 151.45 284.436 151.45 284.966Z" fill="#7B6CC2"/>
<path d="M201.95 284.966H162.95C162.95 284.436 163.161 283.927 163.536 283.552C163.911 283.177 164.419 282.966 164.95 282.966H199.95C200.48 282.966 200.989 283.177 201.364 283.552C201.739 283.927 201.95 284.436 201.95 284.966Z" fill="#7B6CC2"/>
<path d="M626.07 191.016L627.86 195.016C627.869 195.031 627.881 195.043 627.896 195.051C627.911 195.059 627.928 195.064 627.945 195.064C627.962 195.064 627.979 195.059 627.994 195.051C628.008 195.043 628.021 195.031 628.03 195.016L629.82 191.016L633.82 189.216C633.835 189.209 633.847 189.197 633.856 189.183C633.864 189.169 633.869 189.153 633.869 189.136C633.869 189.12 633.864 189.104 633.856 189.089C633.847 189.075 633.835 189.064 633.82 189.056L629.82 187.266L628.03 183.266C628.021 183.252 628.008 183.24 627.994 183.232C627.979 183.223 627.962 183.219 627.945 183.219C627.928 183.219 627.911 183.223 627.896 183.232C627.881 183.24 627.869 183.252 627.86 183.266L626.07 187.266L622.07 189.056C622.055 189.064 622.043 189.075 622.034 189.089C622.026 189.104 622.021 189.12 622.021 189.136C622.021 189.153 622.026 189.169 622.034 189.183C622.043 189.197 622.055 189.209 622.07 189.216L626.07 191.016Z" fill="#7AA6FF"/>
<path d="M596.77 206.456L595.69 209.276C595.685 209.288 595.683 209.3 595.685 209.312C595.687 209.325 595.693 209.336 595.702 209.345C595.71 209.353 595.722 209.359 595.734 209.361C595.746 209.363 595.759 209.362 595.77 209.356L598.58 208.276L601.4 209.356C601.411 209.362 601.424 209.363 601.436 209.361C601.448 209.359 601.459 209.353 601.468 209.345C601.477 209.336 601.483 209.325 601.485 209.312C601.487 209.3 601.485 209.288 601.48 209.276L600.39 206.456L601.48 203.636C601.485 203.625 601.487 203.613 601.485 203.6C601.483 203.588 601.477 203.577 601.468 203.568C601.459 203.559 601.448 203.554 601.436 203.551C601.424 203.549 601.411 203.551 601.4 203.556L598.58 204.636L595.77 203.556C595.759 203.551 595.746 203.549 595.734 203.551C595.722 203.554 595.71 203.559 595.702 203.568C595.693 203.577 595.687 203.588 595.685 203.6C595.683 203.613 595.685 203.625 595.69 203.636L596.77 206.456Z" fill="#7AA6FF"/>
<path d="M1.86987 82.0564L0.00987193 86.8964C0.00062024 86.9157 -0.00222703 86.9373 0.00174663 86.9583C0.00572029 86.9793 0.0163104 86.9985 0.031959 87.013C0.0476077 87.0275 0.0674958 87.0367 0.0887141 87.0391C0.109932 87.0415 0.131362 87.0371 0.149871 87.0264L4.94987 85.1764H5.01987L9.94987 87.0264C9.96838 87.0371 9.98981 87.0415 10.011 87.0391C10.0322 87.0367 10.0521 87.0275 10.0678 87.013C10.0834 86.9985 10.094 86.9793 10.098 86.9583C10.102 86.9373 10.0991 86.9157 10.0899 86.8964L8.22987 82.0564C8.21983 82.0307 8.21983 82.0021 8.22987 81.9764L10.0899 77.1464C10.1137 77.1278 10.1293 77.1006 10.133 77.0705C10.1368 77.0405 10.1284 77.0103 10.1099 76.9864C10.0913 76.9625 10.064 76.947 10.034 76.9433C10.004 76.9395 9.97374 76.9478 9.94987 76.9664L5.05988 78.8664H4.94987L0.149871 76.9664C0.130353 76.9596 0.109326 76.9585 0.0891871 76.9631C0.0690483 76.9677 0.050613 76.9779 0.0360026 76.9925C0.0213922 77.0071 0.0111973 77.0256 0.00657604 77.0457C0.00195475 77.0658 0.00309314 77.0869 0.00987193 77.1064L1.86987 81.9664C1.87622 81.9806 1.8795 81.9959 1.8795 82.0114C1.8795 82.0269 1.87622 82.0422 1.86987 82.0564Z" fill="#7AA6FF"/>
<path d="M117.554 2.39173C117.995 1.95044 117.997 1.23654 117.558 0.797204C117.118 0.357864 116.404 0.359447 115.963 0.80074L113.941 2.82307C113.499 3.26436 113.498 3.97825 113.937 4.41759C114.377 4.85693 115.09 4.85535 115.532 4.41406L117.554 2.39173Z" fill="#7AA6FF"/>
<path d="M111.328 8.6117C111.769 8.17041 111.77 7.45651 111.331 7.01717C110.892 6.57783 110.178 6.57942 109.737 7.02071L107.714 9.04304C107.273 9.48433 107.271 10.1982 107.711 10.6376C108.15 11.0769 108.864 11.0753 109.305 10.634L111.328 8.6117Z" fill="#7AA6FF"/>
<path d="M115.966 10.6323C116.408 11.0736 117.122 11.0752 117.561 10.6358C118 10.1965 117.999 9.48259 117.557 9.0413L115.535 7.01898C115.094 6.57768 114.38 6.5761 113.94 7.01544C113.501 7.45478 113.503 8.16867 113.944 8.60997L115.966 10.6323Z" fill="#7AA6FF"/>
<path d="M109.743 4.41232C110.184 4.85361 110.898 4.8552 111.337 4.41586C111.777 3.97652 111.775 3.26262 111.334 2.82133L109.311 0.799005C108.87 0.357713 108.156 0.35613 107.717 0.79547C107.278 1.23481 107.279 1.9487 107.72 2.39L109.743 4.41232Z" fill="#7AA6FF"/>
<path d="M471.95 191.966C471.95 191.966 497.95 240.966 528.95 243.966H482.95C482.95 243.966 468.32 222.116 469.95 200.966C470.95 187.966 471.95 191.966 471.95 191.966Z" fill="#E5E4ED"/>
<path d="M470.22 197.886C470.13 198.796 470.04 199.806 469.95 200.966C469.597 206.741 470.174 212.535 471.66 218.126C476.57 212.126 475.29 201.726 474.95 196.966C472.88 193.696 473.22 194.266 472.49 192.966L470.22 197.886Z" fill="#D7D5E8"/>
<path d="M407.64 210.966C395.35 213.766 382.5 214.726 370.29 211.606C366.88 210.736 363.46 209.606 359.94 209.606C358.18 209.606 355.94 210.536 356.09 212.286C356.23 213.039 356.634 213.716 357.23 214.196C359.407 216.03 361.956 217.371 364.7 218.126C370.204 219.955 375.915 221.091 381.7 221.506C378.11 220.866 374.19 221.306 370.57 221.696C369.265 221.756 367.993 222.126 366.86 222.776C366.299 223.113 365.852 223.61 365.577 224.204C365.302 224.798 365.213 225.461 365.32 226.106C365.64 227.356 366.86 228.106 368.01 228.716C372.706 231.074 377.845 232.418 383.094 232.663C388.343 232.907 393.585 232.047 398.48 230.136C395.91 231.376 393.26 232.446 390.69 233.686C389.53 234.256 388.21 235.066 388.19 236.356C388.17 237.646 389.57 238.546 390.85 238.906C394.38 239.906 397.85 238.586 401.37 237.476C412.5 233.936 416.95 229.046 425.42 221.476C433.58 214.196 447.91 195.886 450.61 188.366C446.67 189.546 443.85 189.706 439.91 190.886C439.91 190.886 438.35 192.266 437.85 192.746C434.59 195.966 421.58 207.796 407.64 210.966Z" fill="white"/>
<path d="M387.52 221.396C386.965 221.194 386.473 220.849 386.094 220.396C385.714 219.943 385.461 219.398 385.36 218.816C385.322 218.261 385.407 217.704 385.609 217.186C385.812 216.667 386.126 216.2 386.53 215.816C387.316 215.089 388.219 214.497 389.2 214.066C389.63 213.846 390.09 213.636 390.56 213.416C396.313 213.095 402.028 212.276 407.64 210.966C410.489 210.293 413.263 209.335 415.92 208.106C414.033 210.847 411.704 213.256 409.03 215.236C403.715 219.06 397.425 221.296 390.89 221.686C389.759 221.837 388.609 221.738 387.52 221.396Z" fill="#B4B1C9"/>
<path d="M455.64 183.096C456.11 178.058 455.667 172.977 454.33 168.096C452.18 160.266 447.78 153.096 446.26 145.096C445.917 143.555 445.823 141.968 445.98 140.396C446.46 136.686 447.98 132.906 452.98 130.906C458.98 128.486 466.98 131.906 468.98 135.906" stroke="white" stroke-width="11.73" stroke-miterlimit="10"/>
<path d="M438.95 185.967C430.95 201.967 440.95 223.967 440.95 223.967L451.6 229.167L456.07 181.677C450.106 181.743 444.241 183.213 438.95 185.967Z" fill="#4A4285"/>
<path d="M473.95 190.967C467.71 183.967 461.47 181.737 456.07 181.677L451.6 229.167L460.95 227.967C474.95 208.967 473.95 190.967 473.95 190.967Z" fill="#433B79"/>
<path d="M452.95 180.966L454.95 192.966L458.95 179.966L452.95 180.966Z" fill="white"/>
<path d="M500.34 285.966L484.27 290.696C484.045 290.764 483.81 290.786 483.577 290.761C483.344 290.737 483.118 290.666 482.912 290.553C482.706 290.441 482.525 290.288 482.379 290.105C482.233 289.922 482.124 289.712 482.06 289.486L470.35 250.686C470.19 250.151 470.192 249.581 470.356 249.047C470.52 248.513 470.838 248.04 471.27 247.686C471.626 247.396 472.047 247.196 472.497 247.105C472.947 247.014 473.413 247.035 473.854 247.165C474.294 247.295 474.697 247.531 475.025 247.852C475.354 248.173 475.599 248.569 475.74 249.006L484.84 277.096C485.254 278.354 486.06 279.446 487.14 280.213C488.219 280.979 489.516 281.38 490.84 281.356C494.282 281.169 497.704 281.985 500.69 283.706C500.89 283.84 501.048 284.027 501.145 284.247C501.242 284.467 501.274 284.711 501.237 284.948C501.2 285.186 501.096 285.408 500.937 285.588C500.778 285.769 500.571 285.9 500.34 285.966Z" fill="#3B3346"/>
<path d="M479.86 261.236L473.01 262.596C472.558 262.687 472.093 262.687 471.641 262.597C471.189 262.507 470.76 262.328 470.377 262.072C469.994 261.815 469.666 261.486 469.41 261.102C469.155 260.719 468.978 260.288 468.89 259.836L467.79 256.186L481.52 253.466L482.62 257.116C482.71 257.568 482.71 258.033 482.62 258.485C482.53 258.937 482.352 259.367 482.095 259.749C481.839 260.132 481.51 260.461 481.126 260.716C480.742 260.971 480.312 261.148 479.86 261.236Z" fill="#B5B6C6"/>
<path opacity="0.59" d="M467.45 198.966C468.831 198.966 469.95 197.847 469.95 196.466C469.95 195.086 468.831 193.966 467.45 193.966C466.069 193.966 464.95 195.086 464.95 196.466C464.95 197.847 466.069 198.966 467.45 198.966Z" fill="#746F95"/>
<path fill-rule="evenodd" clip-rule="evenodd" d="M488.95 238.406L479.23 224.526L472.28 227.296L483.39 238.406H488.95Z" fill="#CC523E"/>
<path d="M390.76 283.596L404.95 292.516C405.148 292.643 405.369 292.729 405.6 292.769C405.831 292.81 406.068 292.804 406.297 292.752C406.526 292.699 406.742 292.602 406.933 292.466C407.124 292.329 407.286 292.156 407.41 291.956L428.5 258.646C428.798 258.178 428.95 257.631 428.938 257.076C428.925 256.52 428.749 255.981 428.43 255.526C428.166 255.15 427.815 254.844 427.406 254.635C426.997 254.425 426.543 254.319 426.084 254.325C425.625 254.331 425.174 254.449 424.771 254.669C424.367 254.888 424.024 255.203 423.77 255.586L408.1 279.276C407.359 280.371 406.289 281.2 405.044 281.645C403.8 282.089 402.446 282.124 401.18 281.746C397.918 280.629 394.401 280.486 391.06 281.336C390.832 281.409 390.63 281.545 390.476 281.728C390.323 281.911 390.224 282.134 390.193 282.371C390.162 282.608 390.198 282.849 390.299 283.066C390.399 283.283 390.559 283.467 390.76 283.596Z" fill="#3B3346"/>
<path d="M425.655 240.555L438.147 246.876L430.923 261.153C430.503 261.983 429.77 262.613 428.885 262.903C428.001 263.193 427.037 263.12 426.206 262.7L419.96 259.539C419.13 259.119 418.5 258.386 418.21 257.501C417.92 256.617 417.993 255.653 418.413 254.823L425.637 240.546L425.655 240.555Z" fill="#B5B6C6"/>
<path d="M439.95 225.966L453.33 210.796L461.95 227.966L451.95 228.966L439.95 225.966Z" fill="#3B375E"/>
<path d="M455.95 225.966H440.95C440.95 225.966 405.08 232.246 419.22 253.586C420.766 255.946 423.069 257.71 425.75 258.586C426.976 258.983 428.263 259.155 429.55 259.096C433.81 258.906 439.15 256.336 443.9 247.096C444.233 246.453 444.735 245.912 445.351 245.532C445.967 245.152 446.676 244.946 447.4 244.936H454.45C455.171 244.939 455.877 245.14 456.491 245.517C457.105 245.895 457.603 246.434 457.93 247.076C463.11 256.926 469.63 258.676 474.27 258.366C475.947 258.238 477.578 257.755 479.054 256.948C480.53 256.141 481.817 255.029 482.83 253.686C499.95 231.466 455.95 225.966 455.95 225.966Z" fill="#B5B6C6"/>
<path d="M479.95 230.966L480.95 231.966L481.71 236.136L478.95 232.966L479.95 230.966Z" fill="white"/>
<path d="M426.95 243.616C426.95 243.616 432.27 250.456 437.44 248.616C442.61 246.776 430.45 260.486 426.95 243.616Z" fill="#A9ABBF"/>
<path d="M435.01 246.806C435.01 246.806 439.57 248.326 441.24 244.806C442.91 241.286 437.29 247.566 435.01 246.806Z" fill="#A9ABBF"/>
<path d="M422.73 254.526C422.73 254.526 429.73 257.706 432.03 256.416C432.03 256.416 427.64 260.966 422.73 254.526Z" fill="#A9ABBF"/>
<path d="M469.95 257.966C469.95 257.966 472.72 261.966 478.34 256.966C478.34 256.966 473.95 258.966 469.95 257.966Z" fill="#A9ABBF"/>
<path d="M463.95 247.966C463.95 247.966 477.95 253.966 482.95 243.966C487.95 233.966 481.95 268.966 463.95 247.966Z" fill="#A9ABBF"/>
<path d="M417.95 242.966C417.95 242.966 416.95 251.966 426.95 252.966C426.95 252.966 419.95 233.966 417.95 242.966Z" fill="#A9ABBF"/>
<g style="mix-blend-mode:multiply" opacity="0.32">
<path d="M462.73 225.426C466.123 220.4 468.833 214.946 470.79 209.206C464.3 211.236 453.95 223.966 453.95 223.966L462.73 225.426Z" fill="#3B375E"/>
</g>
<path d="M493.18 221.886C494.92 226.276 497.13 232.626 498.98 235.406C501.3 238.906 504.8 241.916 508.98 242.406C509.98 242.516 511.19 242.266 511.37 241.316C511.37 240.99 511.3 240.667 511.164 240.37C511.027 240.073 510.828 239.809 510.58 239.596C509.233 238.033 508.019 236.361 506.95 234.596C501.956 230.819 497.344 226.562 493.18 221.886Z" fill="#B4B1C9"/>
<path d="M482.95 234.966C482.95 234.966 483.67 237.626 479.95 237.966C476.95 238.236 476.41 240.846 470.95 243.966C469.632 244.693 468.155 245.085 466.65 245.106C464.548 245.171 462.48 244.565 460.746 243.377C459.011 242.189 457.699 240.479 457 238.496C456.678 237.601 456.606 236.634 456.791 235.701C456.976 234.767 457.411 233.902 458.05 233.196C458.423 232.781 458.707 232.294 458.885 231.765C459.062 231.236 459.131 230.677 459.085 230.121C459.039 229.565 458.88 229.024 458.618 228.531C458.356 228.039 457.996 227.605 457.56 227.256L455.95 225.966C455.95 225.966 465.49 227.646 469.95 227.966C481.07 228.766 482.21 234.506 482.95 234.966Z" fill="#A9ABBF"/>
<path d="M427.02 222.966C430.95 219.966 434.7 221.966 436.96 221.796L437.77 221.626C438.74 221.418 439.741 221.394 440.72 221.556L464.95 224.966C465.039 224.982 465.127 225.009 465.21 225.046C465.418 225.158 465.594 225.322 465.72 225.522C465.846 225.722 465.918 225.952 465.928 226.188C465.938 226.424 465.886 226.659 465.778 226.869C465.669 227.079 465.508 227.258 465.31 227.386C465.011 227.571 464.655 227.639 464.31 227.576L440.95 225.966C439.243 226.679 437.795 227.897 436.8 229.456C434.33 233.196 428.65 233.756 425.95 231.966C423.25 230.176 423.46 225.706 427.02 222.966Z" fill="#F9C170"/>
<path d="M427.02 222.966C426.237 223.529 425.578 224.246 425.083 225.074C424.587 225.901 424.267 226.821 424.14 227.776C426.79 229.336 430.57 228.026 432.67 224.776C433.327 223.776 433.763 222.648 433.95 221.466C432.755 221.197 431.516 221.192 430.319 221.451C429.122 221.71 427.996 222.227 427.02 222.966Z" fill="#F9B24B"/>
<path d="M465.34 242.576C465.34 242.576 480.62 241.186 477.84 225.906L476.45 227.176L465.34 242.576Z" fill="#FFE9B0"/>
<path fill-rule="evenodd" clip-rule="evenodd" d="M463.82 243.966L476.45 225.786L462.56 218.966L448.67 233.436L463.82 243.966Z" fill="#F47B67"/>
<path d="M477.84 227.296C477.84 227.296 477.84 237.026 486.17 237.026L477.84 224.526V227.296Z" fill="#FFE9B0"/>
<path fill-rule="evenodd" clip-rule="evenodd" d="M479.23 224.526L466.73 218.966H462.56L476.45 225.786L479.23 224.526Z" fill="#EB705C"/>
<path fill-rule="evenodd" clip-rule="evenodd" d="M463.82 243.966H465.34L476.45 227.296L479.23 225.906L487.56 238.406H488.95L479.23 224.526L476.45 225.786L463.82 243.966Z" fill="#EB5E47"/>
<path d="M467.95 133.966L468.95 132.966C468.219 132.257 467.587 131.453 467.07 130.576C466.643 129.958 466.066 129.457 465.393 129.121C464.72 128.785 463.974 128.624 463.222 128.654C462.471 128.684 461.739 128.904 461.096 129.292C460.452 129.681 459.917 130.226 459.54 130.876L456.54 136.066C459.54 135.716 463.07 137.516 463.68 138.586L467.37 136.746L467.95 133.966Z" fill="#E6E6E6"/>
<path d="M474.07 111.266C472.96 113.646 471.43 122.966 471.43 122.966C471.43 122.966 477.55 115.776 478.66 113.396C479.77 111.016 479.66 108.606 478.36 108.016C477.06 107.426 475.17 108.886 474.07 111.266Z" fill="#C9C9C9"/>
<path d="M477.081 146.798C483.189 145.056 486.45 137.719 484.365 130.411C482.281 123.103 475.64 118.591 469.532 120.333C463.425 122.076 460.163 129.412 462.248 136.72C464.332 144.028 470.973 148.54 477.081 146.798Z" fill="white"/>
<path d="M461.36 110.376C462.82 113.536 472.62 122.266 472.62 122.266C472.62 122.266 472.29 109.146 470.83 105.996C469.37 102.846 466.07 101.266 463.45 102.476C460.83 103.686 459.95 107.226 461.36 110.376Z" fill="white"/>
<path d="M460.12 119.276C462.48 120.566 472.37 121.926 472.37 121.926C472.37 121.926 465.92 114.306 463.56 113.016C461.2 111.726 458.56 112.076 457.56 113.796C456.56 115.516 457.76 117.966 460.12 119.276Z" fill="white"/>
<path d="M480.88 141.716C480.88 141.716 469.22 149.586 473.8 137.136L480.88 141.716Z" fill="#333333"/>
<path d="M473.8 137.136C468.37 132.796 466.54 126.056 469.72 122.076C470.449 121.201 471.379 120.515 472.43 120.076C477.62 120.186 482.61 124.346 484.37 130.506C485.356 133.821 485.183 137.373 483.88 140.576C480.205 140.751 476.601 139.521 473.8 137.136Z" fill="#00E9DC"/>
<path d="M473.8 137.136C475.528 136.308 477.404 135.831 479.318 135.733C481.232 135.636 483.146 135.919 484.95 136.566C484.95 136.566 488.15 144.706 496.95 153.246C497.938 154.192 498.561 155.456 498.71 156.816V157.026L473.8 137.136Z" fill="#FBCC00"/>
<path d="M472.81 140.746C473.388 140.777 473.96 140.885 474.51 141.066C475.804 141.447 476.901 142.315 477.57 143.486C475.09 144.516 472.24 144.886 472.81 140.746Z" fill="#FF70AA"/>
<path d="M474.998 131.454C475.289 130.144 474.783 128.917 473.866 128.713C472.95 128.509 471.97 129.406 471.679 130.716C471.388 132.026 471.894 133.253 472.811 133.457C473.727 133.661 474.707 132.764 474.998 131.454Z" fill="black"/>
<path d="M489.356 148.42C489.585 148.246 489.488 147.734 489.141 147.277C488.794 146.82 488.327 146.589 488.098 146.763C487.869 146.937 487.965 147.448 488.313 147.906C488.66 148.363 489.127 148.593 489.356 148.42Z" fill="#C19D00"/>
<path d="M462.1 238.377L471.05 227.187" stroke="#EB5E47" stroke-width="1.12" stroke-miterlimit="10"/>
<path d="M439.57 187.847C438.597 190.309 438.164 192.952 438.3 195.597C438.32 195.918 438.435 196.226 438.629 196.483C438.824 196.74 439.09 196.934 439.394 197.041C439.698 197.147 440.026 197.162 440.339 197.083C440.651 197.004 440.933 196.835 441.15 196.597C444.81 192.597 451.69 184.737 450.95 183.997C450.21 183.257 443.22 185.736 440.79 186.666C440.517 186.77 440.268 186.927 440.058 187.13C439.848 187.333 439.682 187.577 439.57 187.847Z" fill="#514891"/>
<path d="M364.95 200.966C364.95 200.966 378.95 206.966 372.95 226.966C366.95 246.966 354.95 235.966 354.95 235.966L358.95 233.966C358.95 233.966 363.42 236.966 367.85 229.416C369.446 226.666 370.397 223.588 370.63 220.416C371.04 215.416 370.49 207.626 363.95 205.006L364.95 200.966Z" fill="#AB6C13"/>
<path d="M349.95 193.966C349.95 193.966 362.95 175.966 361.95 194.966L363.81 195.766C363.81 195.766 365.95 172.966 347.95 192.966L349.95 193.966Z" fill="#AB6C13"/>
<path d="M323.95 243.966H356.43C357.232 243.968 358.024 243.793 358.75 243.454C359.477 243.114 360.12 242.619 360.633 242.004C361.147 241.388 361.519 240.667 361.722 239.891C361.925 239.116 361.955 238.305 361.81 237.516L361.05 233.416C360.946 232.777 360.946 232.126 361.05 231.486L365.95 200.966C365.95 200.966 367.95 192.966 350.95 191.966C333.95 190.966 336.95 206.966 336.95 206.966L323.95 243.966Z" fill="#E8A23A"/>
<path d="M357.36 192.966C357.187 192.831 356.985 192.738 356.77 192.696C354.85 192.31 352.905 192.066 350.95 191.966C335.41 191.056 336.6 204.356 336.95 206.626C336.982 206.855 336.958 207.089 336.88 207.306L336.34 208.826C336.261 209.053 336.239 209.295 336.276 209.533C336.312 209.77 336.407 209.994 336.55 210.186L347.05 224.316C347.213 224.54 347.436 224.712 347.693 224.812C347.951 224.913 348.231 224.938 348.503 224.884C348.774 224.831 349.024 224.701 349.224 224.51C349.423 224.319 349.564 224.075 349.63 223.806C351.446 217.146 354.251 210.796 357.95 204.966C361.73 198.826 360.17 195.146 357.36 192.966Z" fill="#8A570F"/>
<path d="M350.25 221.506C352.116 215.693 354.703 210.137 357.95 204.966C358.785 203.665 359.428 202.251 359.86 200.766L346.95 196.966L344.81 198.396L344.95 202.966L342.95 201.966L347.95 222.966L350.25 221.506Z" fill="#153DB0"/>
<path d="M350.43 220.966C352.284 215.35 354.809 209.978 357.95 204.966C358.27 204.456 358.53 203.966 358.77 203.496L344.82 198.406L343.66 202.246L348.95 220.966H350.43Z" fill="#194AD3"/>
<path d="M355.13 205.046L354.39 203.836L344.95 203.966L346.3 211.616L348.95 220.966H350.41C351.555 217.466 352.984 214.065 354.68 210.796L355.13 205.046Z" fill="#94B6FF"/>
<path d="M348.31 218.606L350.8 219.846C351.88 216.73 353.183 213.695 354.7 210.766L355.13 205.046L344.95 204.966L345.95 205.966L345.64 209.306L348.31 218.606Z" fill="#5B90FF"/>
<path d="M310.01 243.966H342.01C342.2 239.845 343.731 235.898 346.37 232.726C347.945 230.957 349.151 228.889 349.915 226.646C350.679 224.403 350.987 222.03 350.82 219.666C350.04 210.596 347.21 194.666 337.01 196.006C322.01 198.006 327.01 200.006 327.01 213.006C327.01 226.006 321.01 228.006 321.01 228.006C321.01 228.006 309.01 230.966 310.01 243.966Z" fill="#AB6C13"/>
<path d="M309.01 243.966H341.01C341.2 239.845 342.731 235.898 345.37 232.726C346.945 230.957 348.151 228.889 348.915 226.646C349.679 224.403 349.987 222.03 349.82 219.666C349.04 210.596 346.21 194.666 336.01 196.006C321.01 198.006 326.01 200.006 326.01 213.006C326.01 226.006 320.01 228.006 320.01 228.006C320.01 228.006 308.01 230.966 309.01 243.966Z" fill="#F9BA5F"/>
<path d="M332.51 232.966H318.71C318.033 232.965 317.365 232.81 316.757 232.512C316.149 232.215 315.616 231.783 315.2 231.249C314.784 230.715 314.494 230.093 314.354 229.431C314.214 228.769 314.226 228.083 314.39 227.426L315.16 224.346C315.402 223.384 315.959 222.53 316.741 221.92C317.524 221.309 318.488 220.977 319.48 220.976H333.28C333.956 220.976 334.624 221.13 335.232 221.426C335.841 221.722 336.373 222.154 336.79 222.687C337.206 223.22 337.496 223.841 337.636 224.503C337.776 225.165 337.764 225.85 337.6 226.506L336.83 229.586C336.589 230.55 336.034 231.407 335.251 232.019C334.468 232.631 333.504 232.965 332.51 232.966Z" fill="#EBA847"/>
<path d="M329.51 232.966H315.71C315.033 232.965 314.365 232.81 313.757 232.512C313.149 232.215 312.616 231.783 312.2 231.249C311.784 230.715 311.494 230.093 311.354 229.431C311.214 228.769 311.226 228.083 311.39 227.426C311.853 225.584 312.918 223.949 314.416 222.78C315.915 221.612 317.76 220.977 319.66 220.976H330.28C330.956 220.976 331.624 221.13 332.232 221.426C332.841 221.722 333.373 222.154 333.79 222.687C334.206 223.22 334.496 223.841 334.636 224.503C334.776 225.165 334.764 225.85 334.6 226.506L333.83 229.586C333.591 230.551 333.036 231.408 332.253 232.021C331.47 232.634 330.504 232.966 329.51 232.966Z" fill="#F9C67D"/>
<path d="M315.45 224.927H330.99" stroke="#EBA847" stroke-miterlimit="10" stroke-linecap="round"/>
<path d="M351.52 226.906C351.52 226.906 358.52 225.906 360.52 222.906C360.51 222.906 360.51 228.906 351.52 226.906Z" fill="#AB6C13"/>
<path d="M339.146 204.773C339.752 203.595 339.683 202.35 338.99 201.994C338.298 201.638 337.245 202.305 336.638 203.483C336.032 204.662 336.102 205.906 336.795 206.263C337.487 206.619 338.54 205.952 339.146 204.773Z" fill="#F47B67"/>
<path d="M345.28 198.096L358.12 202.476L358.96 200.956L346.69 197.136L345.28 198.096Z" fill="#7A92D3"/>
<path d="M354.55 204.096L347.95 204.186L348.2 204.636H354.88L354.55 204.096Z" fill="#D6E3FF"/>
<path d="M350.86 219.966C350.749 219.985 350.643 220.027 350.549 220.088C350.455 220.149 350.375 220.229 350.313 220.323C350.251 220.417 350.209 220.522 350.19 220.633C350.17 220.744 350.174 220.857 350.2 220.966L350.64 223.286C350.66 223.396 350.702 223.501 350.764 223.595C350.826 223.688 350.906 223.768 350.999 223.83C351.093 223.891 351.197 223.933 351.308 223.953C351.418 223.974 351.531 223.971 351.64 223.946C351.751 223.928 351.856 223.886 351.95 223.825C352.045 223.763 352.125 223.683 352.187 223.59C352.249 223.496 352.291 223.39 352.31 223.28C352.33 223.169 352.326 223.056 352.3 222.946L351.86 220.626C351.84 220.516 351.798 220.411 351.736 220.318C351.674 220.225 351.594 220.145 351.501 220.083C351.407 220.021 351.302 219.979 351.192 219.959C351.082 219.939 350.969 219.942 350.86 219.966ZM351.86 222.966C351.875 223.071 351.851 223.177 351.791 223.264C351.732 223.351 351.642 223.412 351.54 223.436C351.434 223.454 351.326 223.431 351.236 223.372C351.147 223.312 351.084 223.221 351.06 223.116L351 222.766L351.79 222.616L351.86 222.966Z" fill="#85540F"/>
<path d="M480.95 242.966C481.95 240.966 481.95 246.966 476.95 245.966C476.95 245.966 479.95 244.966 480.95 242.966Z" fill="#A9ABBF"/>
<path d="M333.64 211.496L332.34 210.486L330.14 210.756L329.95 208.186L332.84 208.106L333.64 211.496Z" fill="#9C84EF" stroke="#9075EF" stroke-width="0.5" stroke-miterlimit="10"/>
<path d="M338.95 215.256C338.918 215.13 338.857 215.013 338.77 214.916C338.709 214.86 338.637 214.816 338.56 214.786C338.601 214.555 338.601 214.318 338.56 214.086C338.559 214.073 338.555 214.06 338.549 214.049C338.542 214.037 338.534 214.027 338.524 214.018C338.513 214.01 338.502 214.004 338.489 214C338.476 213.996 338.463 213.995 338.45 213.996C338.423 214.003 338.4 214.019 338.384 214.041C338.367 214.062 338.359 214.089 338.36 214.116C338.39 214.322 338.39 214.531 338.36 214.736H338.3C338.157 214.73 338.014 214.754 337.881 214.808C337.748 214.861 337.629 214.943 337.53 215.046C337.449 215.136 337.381 215.237 337.33 215.346C337.124 215.883 336.803 216.367 336.39 216.766C336.39 216.766 338.28 217.226 338.85 216.066C338.977 215.816 339.012 215.53 338.95 215.256V215.256Z" stroke="#85D4C2" stroke-width="0.67" stroke-miterlimit="10"/>
<path d="M338.74 214.966C338.611 214.853 338.45 214.783 338.28 214.766C338.137 214.76 337.994 214.784 337.861 214.838C337.728 214.891 337.609 214.973 337.51 215.076C337.429 215.166 337.361 215.267 337.31 215.376C337.104 215.913 336.783 216.397 336.37 216.796C336.37 216.796 338.26 217.256 338.83 216.096C338.949 215.851 338.981 215.572 338.92 215.306C338.888 215.18 338.827 215.063 338.74 214.966Z" fill="#60E0C4"/>
<path d="M337.73 215.966C338 215.742 338.208 215.453 338.334 215.125C338.46 214.798 338.5 214.444 338.45 214.096" stroke="#00BF9B" stroke-width="0.2" stroke-miterlimit="10" stroke-linecap="round"/>
<path d="M533.37 263.187C533.37 263.187 532.07 266.517 530.18 270.187C528.29 273.857 531.87 272.777 534.26 272.077C536.65 271.377 538.04 269.937 541.26 268.547C543.4 267.547 542.2 265.907 542.26 263.817L533.37 263.187Z" fill="#832A17"/>
<path d="M518.6 257.316C518.6 257.316 516.86 260.506 514.6 263.886C512.34 267.266 516.09 266.566 518.48 266.226C520.87 265.886 522.48 264.576 525.8 263.586C528.03 262.886 527.04 261.096 527.34 259.006L518.6 257.316Z" fill="#832A17"/>
<path d="M508.44 191.686C507.54 190.686 506.72 189.686 506.44 189.226C506.16 188.766 506.02 188.626 506.53 188.226C507.04 187.826 507.01 187.896 507.85 188.636L509.85 190.306L508.44 191.686Z" fill="#61C7C7"/>
<path d="M516.95 190.966C515.95 191.966 513.78 192.446 510.18 193.686L508 191.186L509.28 190.186L508.48 187.776C508.23 186.956 508.31 186.846 508.62 186.666C508.851 186.527 509.121 186.464 509.39 186.486C509.58 186.486 509.74 186.866 510.07 187.356L511.07 188.706C511.23 188.946 511.38 188.826 511.32 188.606C511.26 188.386 510.6 187.086 510.49 186.766C510.38 186.446 510.4 186.346 510.61 186.216C510.82 186.086 511.22 185.806 511.61 186.116C512 186.426 512.98 187.846 512.98 187.846C514.04 188.116 515.66 189.856 516.95 190.966Z" fill="#61C7C7"/>
<path d="M582.49 222.126L584.83 225.036C585.134 225.417 585.546 225.697 586.011 225.841C586.476 225.985 586.974 225.987 587.44 225.846L595.95 224.966C595.813 224.218 595.467 223.525 594.95 222.966C594.635 222.662 594.259 222.428 593.847 222.28C593.435 222.131 592.996 222.072 592.56 222.106L589.95 221.966L588.23 220.376L582.49 222.126Z" fill="#61C7C7"/>
<path d="M537.18 202.896L526.09 199.336C525.345 199.096 524.677 198.665 524.15 198.086L517.5 190.766L509.41 193.096C509.41 193.096 510.03 194.216 511.04 195.936C514.34 201.526 524.04 212.426 527.95 211.936C529.507 212.23 531.108 212.204 532.655 211.86C534.202 211.516 535.663 210.862 536.95 209.936C536.95 209.936 543.12 212.136 537.18 202.896Z" fill="#FFF5DB"/>
<path d="M516.15 256.406C520.15 258.836 529.39 263.466 543.75 264.476C544.846 264.558 545.933 264.227 546.798 263.548C547.662 262.869 548.241 261.891 548.42 260.806L551.18 243.966H564.81C565.04 237.546 561.33 225.456 561.33 225.456L564.43 206.106C559.92 201.106 549.43 202.376 549.43 202.376L537.94 202.856C528.23 205.216 527.94 212.966 530.94 224.966C531.35 226.586 530.7 229.216 530.94 230.966L525.76 230.826C524.792 230.8 523.829 230.975 522.933 231.34C522.036 231.705 521.224 232.252 520.55 232.946C519.493 234.041 518.747 235.397 518.39 236.876L514.56 252.486C514.371 253.224 514.423 254.003 514.71 254.708C514.996 255.414 515.501 256.009 516.15 256.406Z" fill="#B0C9FF"/>
<path d="M525.33 200.096C525.33 200.096 525.47 200.186 525.92 201.366C526.37 202.546 526.84 203.776 526.59 204.366C526.34 204.956 525.8 205.046 525.82 203.786C525.887 202.574 525.661 201.363 525.16 200.256L525.33 200.096Z" fill="#FFD978"/>
<path d="M536.95 202.966L536.11 207.966C536.065 208.247 536.11 208.535 536.239 208.789C536.369 209.043 536.576 209.248 536.83 209.376L537.08 209.506C537.332 209.632 537.539 209.834 537.67 210.083C537.801 210.333 537.85 210.617 537.81 210.896L537.39 213.676C537.359 213.894 537.382 214.115 537.456 214.322C537.531 214.528 537.655 214.713 537.818 214.86C537.981 215.008 538.178 215.112 538.391 215.166C538.604 215.219 538.827 215.219 539.04 215.166H539.21C539.435 215.106 539.672 215.107 539.897 215.169C540.122 215.23 540.326 215.35 540.49 215.516L542.49 217.516C542.646 217.673 542.838 217.788 543.05 217.852C543.261 217.915 543.485 217.925 543.702 217.881C543.918 217.836 544.12 217.738 544.289 217.596C544.458 217.454 544.589 217.272 544.67 217.066L545.42 215.186C545.553 214.858 545.811 214.596 546.137 214.457C546.463 214.318 546.831 214.315 547.16 214.446L549.43 215.346C549.613 215.419 549.81 215.45 550.007 215.438C550.203 215.425 550.395 215.369 550.567 215.273C550.739 215.177 550.888 215.044 551.003 214.884C551.117 214.724 551.195 214.54 551.23 214.346L551.62 212.346C551.658 212.16 551.735 211.985 551.846 211.831C551.958 211.677 552.1 211.549 552.265 211.454C552.429 211.36 552.612 211.301 552.801 211.283C552.989 211.264 553.18 211.286 553.36 211.346H553.44C553.62 211.407 553.81 211.428 553.999 211.41C554.188 211.391 554.371 211.333 554.535 211.238C554.7 211.144 554.842 211.015 554.953 210.861C555.064 210.708 555.142 210.532 555.18 210.346L555.95 205.966L536.95 202.966Z" fill="#8FA2FA"/>
<path d="M561.24 224.806L561.43 224.936L563.05 214.816C562.49 213.986 563.75 210.576 562.95 209.966C561.71 209.016 558.15 205.966 557.95 206.966C557.34 208.91 557.004 210.93 556.95 212.966C556.95 215.966 559.53 221.686 560.46 223.666C560.638 224.096 560.904 224.484 561.24 224.806Z" fill="#8FA2FA"/>
<path d="M533.49 232.886C526.49 232.166 525.38 232.146 526.1 233.606C526.82 235.066 529.1 238.976 530.66 241.606C532.22 244.236 532.31 244.516 535.93 240.986C539.55 237.456 540.3 237.336 545.82 237.136C549.44 236.966 540.49 233.606 533.49 232.886Z" fill="#A6C1FF"/>
<path d="M558.3 228.496C557.69 230.966 557.82 233.846 557.61 236.386C557.691 236.72 557.681 237.069 557.582 237.397C557.483 237.726 557.298 238.022 557.046 238.255C556.795 238.489 556.485 238.651 556.15 238.725C555.815 238.799 555.466 238.782 555.14 238.676L550.74 238.276C550.161 238.179 549.569 238.203 549 238.346C548.564 238.517 548.163 238.768 547.82 239.086C546.084 240.702 544.775 242.722 544.01 244.966C543.18 247.176 542.66 249.486 542.01 251.736C540.76 255.796 539.01 259.736 538.09 263.856C539.9 264.116 541.79 264.336 543.79 264.476C544.886 264.559 545.973 264.227 546.838 263.548C547.702 262.869 548.281 261.891 548.46 260.806L551.18 243.966H564.81C565.01 238.426 562.27 228.656 561.52 226.096C560.13 226.386 558.59 227.356 558.3 228.496Z" fill="#9CBAFF"/>
<path d="M538.95 204.966C539.05 212.676 543.28 214.026 555.95 205.966L538.95 204.966Z" fill="#5697B0"/>
<path d="M553.57 243.966C553.57 242.916 552.47 239.486 552.33 239.886C551.829 241.21 551.444 242.576 551.18 243.966H553.57Z" fill="#8FA2FA"/>
<path d="M525.5 251.906C527.17 257.776 528.63 256.496 529.5 256.016C531.004 255.196 532.279 254.014 533.21 252.576C534.35 250.676 535.06 250.166 533.34 251.296C531.62 252.426 529.4 253.436 528.53 251.436C527.66 249.436 524.39 242.866 522.26 237.596C521.16 234.966 523.82 246.026 525.5 251.906Z" fill="#A6C1FF"/>
<path d="M566.38 219.346L572.95 219.966L582.09 226.626L589.18 220.986C589.18 220.986 584.12 217.576 578.56 213.496C571.23 208.116 564.56 205.106 560.95 204.966C560.31 204.975 559.687 205.169 559.155 205.524C558.623 205.878 558.204 206.379 557.95 206.966C557.95 206.966 554.33 212.886 562.29 217.826C563.265 218.429 564.323 218.887 565.43 219.186C565.741 219.269 566.059 219.323 566.38 219.346Z" fill="#FFF5DB"/>
<path d="M582.09 226.627L589.18 220.987C589.18 220.987 588.25 220.407 586.76 219.417L580.42 225.507L582.09 226.627Z" fill="#FFD978"/>
<path d="M576.58 218.576C575.16 219.116 573.26 219.656 573.58 219.136C574.107 218.431 574.682 217.763 575.3 217.136C575.409 217.024 575.553 216.95 575.708 216.927C575.863 216.903 576.022 216.931 576.16 217.006C577.46 217.726 578 218.036 576.58 218.576Z" fill="#FFD978"/>
<path d="M553.95 233.586C552.95 233.486 549.77 233.336 547.53 233.286C545.29 233.236 545.69 233.686 546.78 233.786C547.87 233.886 550.36 234.876 552.78 235.576C553.58 235.776 554.03 236.116 554.32 235.376C554.82 234.126 554.95 233.686 553.95 233.586Z" fill="#A6C1FF"/>
<path d="M548.95 181.466L548.73 177.246C548.65 176.161 548.222 175.13 547.51 174.306C546.793 173.484 545.828 172.919 544.76 172.696C543.817 172.515 542.841 172.608 541.95 172.966C541.044 173.341 540.269 173.974 539.72 174.786C537.83 177.636 534.72 182.296 532.02 186.996C527.71 194.436 527.13 200.366 539.5 205.396C551.87 210.426 565.5 212.296 565.75 201.646C565.91 194.966 565.64 186.876 565.42 181.826C565.37 180.437 564.828 179.112 563.89 178.086C562.959 177.057 561.695 176.387 560.32 176.196C559.066 176.032 557.792 176.269 556.68 176.873C555.568 177.476 554.676 178.415 554.13 179.556L552.48 183.076L548.95 181.466Z" fill="#7CE4CC"/>
<path d="M533.75 202.396C535.548 203.608 537.477 204.615 539.5 205.396C542.152 206.5 544.875 207.425 547.65 208.166C549.47 207.216 552.65 204.876 554.65 199.646C557.44 192.056 550.75 197.546 550.75 197.546L542.09 196.546L537.58 194.436L533.48 191.356H532.48C532.114 195.085 532.547 198.848 533.75 202.396Z" fill="#AAFAE7"/>
<path d="M533.95 191.966C533.95 191.966 540.95 209.966 551.95 198.966L552.35 197.276C552.35 197.276 545.95 197.966 541.28 196.276L533.95 191.966Z" fill="#2C4661"/>
<path d="M543.41 206.866C554.59 210.676 565.51 211.176 565.73 201.666C565.89 194.986 565.62 186.896 565.4 181.846C565.35 180.457 564.808 179.132 563.87 178.106C562.939 177.077 561.675 176.407 560.3 176.216C562.43 176.936 562.22 181.126 561.53 186.016C560.84 190.906 556.98 196.416 555 199.016C549.95 205.676 545.95 207.246 543.41 206.866Z" fill="#7CE4CC"/>
<path d="M551.77 197.216L552.35 197.276L551.97 198.086C538.47 197.246 537.91 196.216 533.88 191.806L534.14 190.886C538.42 195.466 540.5 195.966 551.77 197.216Z" fill="#2C4661"/>
<path d="M555.12 200.076C556.64 198.736 557.12 196.706 556.23 195.556C555.34 194.406 553.36 194.556 551.84 195.886C550.32 197.216 549.84 199.256 550.73 200.416C551.62 201.576 553.6 201.426 555.12 200.076Z" fill="#738EFF"/>
<path d="M532.8 193.796C533.8 193.896 534.72 192.586 534.9 190.866C535.08 189.146 534.42 187.666 533.44 187.566C532.46 187.466 531.52 188.776 531.34 190.496C531.16 192.216 531.81 193.696 532.8 193.796Z" fill="#738EFF"/>
<path opacity="0.41" d="M542.87 192.056C542.25 192.206 541.74 192.056 542.24 191.656L543.95 190.476C544.073 190.403 544.215 190.369 544.358 190.378C544.5 190.387 544.637 190.438 544.75 190.526C545.02 190.756 545.34 191.126 544.99 191.406C544.341 191.779 543.616 192.001 542.87 192.056Z" fill="#284E7A"/>
<path opacity="0.41" d="M540.08 190.636C540.16 189.973 540.18 189.303 540.14 188.636C540.14 188.526 540.07 188.436 539.93 188.486L539.71 188.606C539.561 188.685 539.439 188.807 539.36 188.956C539.28 189.103 539.248 189.271 539.27 189.436C539.279 189.771 539.309 190.105 539.36 190.436C539.49 191.186 539.95 191.336 540.08 190.636Z" fill="#284E7A"/>
<path d="M545.54 178.746C546.08 175.596 546.14 172.886 543.85 172.626L544.85 172.696C545.918 172.919 546.883 173.484 547.6 174.306C548.312 175.13 548.74 176.161 548.82 177.246L549.04 181.466L552.51 183.096L547.8 181.966C544.89 181.306 545.23 180.476 545.54 178.746Z" fill="#61C7C7"/>
<path d="M559.09 176.206C558.03 176.265 557.006 176.61 556.126 177.203C555.246 177.796 554.542 178.616 554.09 179.576L552.44 183.096L550.99 183.956C549.99 184.556 548.99 185.096 550.99 184.866C552.99 184.636 553.18 184.516 553.42 184.026L555.06 180.506C555.57 179.426 556.92 176.766 559.06 176.206H559.09Z" fill="#7CE4CC"/>
<path d="M559.14 189.186C556.22 190.616 556.4 188.186 557.53 187.116C558.717 185.914 560.33 185.227 562.02 185.206C564.23 185.086 562.07 187.756 559.14 189.186Z" fill="#DAD4FF"/>
<path d="M538.03 180.236C538.341 179.225 538.389 178.151 538.17 177.116C537.38 178.336 536.53 179.696 535.58 181.116C536.31 182.396 537.71 181.396 538.03 180.236Z" fill="#DAD4FF"/>
<path d="M562.86 191.386C561.91 190.476 560.86 190.206 558.57 190.456C556.28 190.706 555.76 191.286 556.83 191.926C557.9 192.566 558.75 192.876 561.73 192.726C562.72 192.626 563.8 192.296 562.86 191.386Z" fill="#DAD4FF"/>
<path d="M534.73 182.476L533.85 183.966C534.73 184.456 535.1 183.966 534.73 182.476Z" fill="#DAD4FF"/>
<path d="M554.22 198.396C555.12 197.516 555.43 196.396 554.92 195.836C554.41 195.276 553.24 195.596 552.34 196.476C551.44 197.356 551.13 198.476 551.65 199.036C552.17 199.596 553.32 199.286 554.22 198.396Z" fill="#B2A6FF"/>
<path d="M532.11 190.706C532.47 190.826 532.97 190.296 533.21 189.546C533.45 188.796 533.35 188.076 532.99 187.956C532.63 187.836 532.13 188.356 531.88 189.116C531.63 189.876 531.74 190.586 532.11 190.706Z" fill="#B2A6FF"/>
<path d="M548.89 201.376C548.925 201.242 548.945 201.105 548.95 200.966C548.95 199.306 546.26 197.966 542.95 197.966C541.338 197.923 539.743 198.298 538.32 199.056C540.88 201.866 544.49 203.896 548.89 201.376Z" fill="#FF70AA"/>
<path d="M542.868 178.892C543.272 177.571 542.957 176.305 542.165 176.062C541.372 175.82 540.403 176.694 539.999 178.014C539.595 179.334 539.91 180.601 540.702 180.844C541.494 181.086 542.464 180.212 542.868 178.892Z" fill="#21354A"/>
<path d="M557.861 182.888C558.265 181.568 557.95 180.301 557.158 180.059C556.366 179.816 555.396 180.69 554.992 182.01C554.588 183.331 554.903 184.598 555.695 184.84C556.487 185.082 557.457 184.208 557.861 182.888Z" fill="#21354A"/>
<path d="M511.83 164.346H511.89L522.01 183.586L500.87 194.706L490.31 174.636L510.57 163.966C510.789 163.853 511.044 163.83 511.28 163.903C511.516 163.976 511.713 164.139 511.83 164.356V164.346Z" fill="#FF81C5"/>
<path d="M508.413 166.011L517.722 183.712L523.351 180.752L514.042 163.051L508.413 166.011Z" fill="#FFEEC2"/>
<path d="M488.58 176.796L498.16 193.966L498.36 194.836C498.386 194.959 498.44 195.074 498.517 195.172C498.595 195.27 498.694 195.349 498.808 195.403C498.921 195.456 499.046 195.482 499.171 195.479C499.296 195.477 499.419 195.445 499.53 195.386L521.43 183.866L519.95 182.466L510.85 163.796L489.01 175.286C488.881 175.356 488.768 175.451 488.677 175.565C488.586 175.679 488.518 175.811 488.478 175.951C488.438 176.092 488.426 176.239 488.444 176.384C488.461 176.529 488.508 176.669 488.58 176.796Z" fill="#437FFF"/>
<path d="M514.18 162.056C514.333 161.979 514.51 161.965 514.672 162.018C514.835 162.07 514.971 162.185 515.05 162.336L524.05 180.336L524.77 181.176C524.837 181.255 524.887 181.348 524.913 181.448C524.94 181.548 524.944 181.653 524.925 181.754C524.906 181.856 524.864 181.952 524.802 182.036C524.741 182.119 524.661 182.188 524.57 182.236L523.66 182.706L521.99 183.586L521.12 184.046C521.026 184.095 520.921 184.121 520.815 184.123C520.709 184.125 520.604 184.104 520.508 184.059C520.412 184.015 520.327 183.949 520.26 183.867C520.192 183.786 520.145 183.689 520.12 183.586L519.88 182.586L510.16 165.116C510.108 165.026 510.075 164.925 510.063 164.822C510.051 164.718 510.06 164.613 510.09 164.513C510.12 164.412 510.17 164.32 510.237 164.239C510.304 164.159 510.387 164.094 510.48 164.046L510.75 163.896C510.933 163.801 511.146 163.783 511.343 163.845C511.54 163.906 511.704 164.044 511.8 164.226L521.12 181.936L523.29 180.796L513.95 162.966C513.902 162.892 513.87 162.809 513.855 162.722C513.841 162.636 513.845 162.547 513.866 162.461C513.888 162.376 513.927 162.296 513.981 162.226C514.035 162.156 514.103 162.099 514.18 162.056Z" fill="#275CE2"/>
<path d="M506.565 170.36L513.603 183.742L515.276 182.863L508.238 169.48L506.565 170.36Z" fill="#275CE2"/>
<path d="M506.743 178.796L510.262 185.487L511.935 184.607L508.416 177.916L506.743 178.796Z" fill="#275CE2"/>
<path fill-rule="evenodd" clip-rule="evenodd" d="M515.8 169.376L519.64 167.616L518.24 167.086L519 165.256L514.74 167.206L515.8 169.376Z" fill="#F47B67"/>
<path d="M513.14 190.097C512.71 188.847 512.41 187.537 512.28 187.017C512.15 186.497 512.15 186.297 512.76 186.167C513.37 186.037 513.34 186.067 513.76 187.077L514.9 189.417L513.14 190.097Z" fill="#61C7C7"/>
<path d="M554.65 218.166C554.008 220.38 552.72 222.351 550.95 223.826C550.864 223.897 550.804 223.993 550.778 224.101C550.751 224.208 550.761 224.322 550.805 224.424C550.849 224.525 550.925 224.61 551.022 224.664C551.118 224.719 551.23 224.741 551.34 224.726C554.05 224.226 557.8 222.726 555.58 218.096C555.537 218.005 555.467 217.929 555.379 217.879C555.292 217.828 555.191 217.805 555.091 217.813C554.99 217.82 554.894 217.858 554.816 217.921C554.737 217.984 554.679 218.07 554.65 218.166Z" fill="#A6C1FF"/>
<path d="M561.33 225.456V225.326C548.08 228.536 539.8 227.206 535.15 225.476C533.472 224.867 531.889 224.022 530.45 222.966C530.6 223.616 530.76 224.286 530.93 224.966C530.989 225.223 531.026 225.484 531.04 225.746C531.839 226.204 532.663 226.615 533.51 226.976C532.864 227.782 531.96 228.34 530.95 228.556C530.95 228.896 530.95 229.236 530.89 229.556C532.329 229.323 533.617 228.528 534.47 227.346C538.352 228.706 542.447 229.36 546.56 229.276C551.711 229.216 556.837 228.545 561.83 227.276C561.54 226.146 561.33 225.456 561.33 225.456Z" fill="#832A17"/>
<path d="M540.21 228.236C540.137 228.101 540.05 227.973 539.95 227.856C540.073 227.757 540.187 227.646 540.29 227.526C540.91 226.836 541.17 225.946 540.87 225.526C540.57 225.106 539.87 225.356 539.2 226.046L538.98 226.316C538.92 226.192 538.846 226.074 538.76 225.966C538.25 225.276 537.53 225.046 537.17 225.456C537 225.775 536.934 226.139 536.981 226.498C537.027 226.856 537.184 227.191 537.43 227.456C536.75 228.056 536.43 228.906 536.64 229.356C536.85 229.806 537.64 229.696 538.34 229.106L538.56 228.896C538.616 229.102 538.696 229.3 538.8 229.486C539.22 230.256 539.89 230.606 540.29 230.256C540.69 229.906 540.64 229.016 540.21 228.236Z" fill="white"/>
<path d="M517.5 190.766L509.41 193.096C509.41 193.096 509.76 193.726 510.35 194.756L519.77 193.306L517.5 190.766Z" fill="#FFD978"/>
<path d="M608.37 237.386H562.95V243.966H608.37V237.386Z" fill="#45DDC0"/>
<path fill-rule="evenodd" clip-rule="evenodd" d="M604.91 237.366H568.37V224.196L581.66 224.566L583.32 224.196L604.95 224.966L604.91 237.366Z" fill="#9C84EF"/>
<path fill-rule="evenodd" clip-rule="evenodd" d="M608.37 243.966H590.58V237.386H608.95V237.986L608.37 238.226V242.966L608.86 243.596L608.95 243.966H608.37Z" fill="#39B59D"/>
<path d="M583.12 237.386H581.46H568.18V224.216L581.46 224.586L583.12 224.216V237.386Z" fill="#8567EF"/>
<path d="M564.68 237.386H563.95V243.966H564.68V237.386Z" fill="#39B59D"/>
<path d="M566.46 237.386H565.73V243.966H566.46V237.386Z" fill="#39B59D"/>
<path d="M588.8 237.386H588.07V243.966H588.8V237.386Z" fill="#39B59D"/>
<path d="M587.03 237.386H586.3V243.966H587.03V237.386Z" fill="#39B59D"/>
<path d="M568.38 224.216H567.35V226.426H568.38V224.216Z" fill="#8567EF"/>
<path d="M568.38 235.156H567.35V237.386H568.38V235.156Z" fill="#8567EF"/>
<path d="M581.47 226.406H568.18V235.186H581.47V226.406Z" fill="#FFEEC2"/>
<path fill-rule="evenodd" clip-rule="evenodd" d="M571.5 230.146H574.82V234.096L573.16 232.116L571.5 234.096V230.146Z" fill="#F47B67"/>
<path d="M569.84 230.136H576.48" stroke="#E3CB8F" stroke-width="0.45" stroke-miterlimit="10"/>
<path d="M571.5 228.167H578.14" stroke="#E3CB8F" stroke-width="0.45" stroke-miterlimit="10"/>
<path d="M608.37 238.226H591.9V242.966H608.37V238.226Z" fill="#FFEEC2"/>
<path d="M598.59 238.966H606.59" stroke="#E3CB8F" stroke-width="0.45" stroke-miterlimit="10"/>
<path d="M593.25 239.966H603.92" stroke="#E3CB8F" stroke-width="0.45" stroke-miterlimit="10"/>
<path d="M600.36 241.966H605.7" stroke="#E3CB8F" stroke-width="0.45" stroke-miterlimit="10"/>
</svg>
