<svg xmlns="http://www.w3.org/2000/svg" width="572" height="504" xmlns:xlink="http://www.w3.org/1999/xlink">

  <defs>
    <path id="o" d="M177.695 103.7662V.0462H.0001823v103.72H177.695z"/>
    <path id="q" d="M119.038263.853H.6567343v103.7197H119.038263V.853z"/>
  </defs>
  <g>
    <g transform="translate(2 337.147)">
      <mask id="p" fill="#fff">
        <use xlink:href="#o"/>
      </mask>
      <path fill="#3F4C76" d="M176.877 85.9362L125.599.0462H52.087L.818 85.9362c-2.842 7.806 2.001 16.575 10.226 17.738.421.06.868.092 1.346.092 7.575 0 7.575-8 15.149-8 7.573 0 7.573 8 15.145 8 7.574 0 7.574-8 15.149-8 7.573 0 7.573 8 15.146 8 7.574 0 7.574-8 15.147-8 7.572 0 7.572 8 15.145 8 7.573 0 7.573-8 15.147-8 7.573 0 7.573 8 15.145 8 .259 0 .489-.032.731-.05v.001c.24.018.469.049.727.049 7.573 0 7.573-8 15.147-8 7.573 0 7.573 8 15.145 8 .475 0 .92-.032 1.339-.091 8.226-1.157 13.068-9.933 10.225-17.739" mask="url(#p)"/>
    </g>
    <g transform="translate(31 254.147)">
      <mask id="r" fill="#fff">
        <use xlink:href="#q"/>
      </mask>
      <path fill="#47537B" d="M1.1258 86.4677c-2.02 7.875 2.663 16.187 10.609 17.907.59.127 1.234.198 1.944.198 7.574 0 7.574-8 15.149-8 7.573 0 7.573 8 15.147 8 7.573 0 7.573-8 15.146-8s7.573 8 15.145 8c7.574 0 7.574-8 15.147-8s7.573 8 15.146 8c.258 0 .488-.031.73-.049.241.018.469.049.727.049.71 0 1.354-.071 1.944-.198 7.947-1.72 12.63-10.034 10.609-17.91l-48.47-79.839c-2.176-3.584-6.065-5.773-10.257-5.773h-.006c-4.193 0-8.083 2.189-10.258 5.775l-48.452 79.84z" mask="url(#r)"/>
    </g>
  </g>
</svg>
