<svg width="118" height="32" viewBox="0 0 118 32" fill="none" xmlns="http://www.w3.org/2000/svg">
<path opacity="0.84" d="M84 22.002V27.632L0 22.002H84Z" fill="url(#paint0_linear)"/>
<path d="M80.9 26.382L79.9 26.302L78.85 31.532C80.85 31.532 81.07 29.102 82.01 28.942L80.9 26.382Z" fill="#643269"/>
<path d="M91.35 7.27197H90.5801V22.622H91.35V7.27197Z" fill="#793D82"/>
<path d="M108.68 11.002H107.91V21.1119H108.68V11.002Z" fill="#793D82"/>
<path d="M100.3 0.271973H99.37V21.772H100.3V0.271973Z" fill="#793D82"/>
<path d="M96.1699 18.612L96.9 14.082C97.262 11.6483 97.2181 9.17137 96.77 6.75201L96.1699 3.43201L103.01 6.43201L103.66 9.19202C104.54 12.9987 104.8 16.9225 104.43 20.812L96.1699 18.612Z" fill="#C9DBFF"/>
<path d="M105.84 21.082V10.672L114.27 20.152L105.84 21.082Z" fill="#C9DBFF"/>
<path d="M86.77 19.8719L94.39 21.3619V5.74194L86.77 19.8719Z" fill="#C9DBFF"/>
<path d="M83.0901 21.0819L117.91 18.892V19.4619L110.42 21.4019L104.42 26.4019C101.307 28.9749 97.3985 30.3886 93.36 30.4019H84.13C83.1652 30.3942 82.2418 30.0088 81.5577 29.3284C80.8735 28.648 80.4831 27.7267 80.47 26.762C80.467 26.1262 80.6253 25.5 80.93 24.942L83.0901 21.0819Z" fill="#894D92"/>
<path d="M106.13 25.002L81.47 24.002L80.94 24.892C80.6353 25.45 80.477 26.0761 80.48 26.7119C80.4868 27.3529 80.6627 27.9808 80.99 28.532C81.3101 29.0843 81.7694 29.543 82.3221 29.8624C82.8749 30.1817 83.5017 30.3505 84.1401 30.352H93.37C97.4094 30.3436 101.32 28.9293 104.43 26.352L106.13 25.002Z" fill="#804187"/>
<path d="M104.43 26.382L105.16 25.782L80.7 27.882C80.9414 28.6027 81.4036 29.2292 82.0211 29.6725C82.6385 30.1158 83.3798 30.3536 84.14 30.352H93.3699C97.4087 30.3403 101.318 28.9264 104.43 26.352V26.382Z" fill="#753D82"/>
<path d="M88.56 24.282L85.8401 28.092C85.6867 28.3136 85.4821 28.4949 85.2435 28.6203C85.0049 28.7456 84.7395 28.8114 84.47 28.812H83.66C83.6213 28.8266 83.5787 28.8266 83.54 28.812C83.5024 28.8005 83.4704 28.7756 83.45 28.742C83.4234 28.7107 83.4061 28.6726 83.4 28.632C83.3951 28.5921 83.3951 28.5518 83.4 28.512L84.86 24.302L88.56 24.282Z" fill="#643269"/>
<path d="M82.72 24.282C82.4919 24.3146 82.2846 24.4325 82.1401 24.612C82.0691 24.7014 82.0166 24.804 81.9857 24.9139C81.9548 25.0238 81.9461 25.1387 81.9601 25.252C81.9483 25.3644 81.959 25.4779 81.9916 25.5861C82.0243 25.6943 82.0781 25.7949 82.1501 25.882C82.2214 25.9652 82.3058 26.0361 82.4001 26.092C82.5002 26.1416 82.6087 26.1721 82.72 26.182H84.5101V24.282H82.72Z" fill="#AB9746"/>
<path d="M84.5101 26.182C84.6936 26.18 84.8724 26.1238 85.024 26.0204C85.1756 25.917 85.2933 25.7711 85.3621 25.601C85.431 25.4309 85.448 25.2442 85.4109 25.0645C85.3739 24.8847 85.2846 24.72 85.1542 24.5909C85.0237 24.4618 84.858 24.3743 84.6779 24.3392C84.4977 24.3041 84.3113 24.3231 84.1419 24.3937C83.9726 24.4644 83.8279 24.5836 83.7261 24.7363C83.6244 24.889 83.5701 25.0685 83.5701 25.252C83.5701 25.3749 83.5944 25.4967 83.6418 25.6102C83.6891 25.7237 83.7585 25.8266 83.8459 25.9131C83.9334 25.9996 84.0371 26.0679 84.1511 26.1141C84.2651 26.1602 84.3871 26.1833 84.5101 26.182Z" fill="#AB9746"/>
<path d="M90.42 25.132H77.22V23.922L88.55 23.432L90.42 25.132Z" fill="#C9BE90"/>
<path d="M77.22 24.202L88.55 23.432L77.22 23.922V24.202Z" fill="#E8DBA6"/>
<path d="M85 22.622C85.09 22.392 85 22.162 84.89 22.112C84.78 22.062 84.5599 22.192 84.4699 22.422C84.3799 22.652 84.42 22.882 84.57 22.942C84.72 23.002 84.89 22.852 85 22.622Z" fill="#693D82"/>
<path d="M87.86 22.422C87.95 22.192 87.86 21.9619 87.75 21.9019C87.64 21.8419 87.42 21.9919 87.33 22.2219C87.24 22.4519 87.33 22.682 87.43 22.732C87.53 22.782 87.77 22.652 87.86 22.422Z" fill="#693D82"/>
<path d="M90.9999 22.1419C91.0899 21.9119 90.9999 21.6819 90.8999 21.6219C90.7999 21.5619 90.5599 21.7119 90.4699 21.9419C90.3799 22.1719 90.4699 22.4019 90.5699 22.4519C90.6699 22.5019 90.8599 22.3719 90.9999 22.1419Z" fill="#693D82"/>
<path d="M94.0901 22.002C94.1801 21.772 94.09 21.542 93.99 21.482C93.89 21.422 93.6601 21.572 93.5701 21.792C93.4801 22.012 93.52 22.262 93.67 22.312C93.82 22.362 94.0001 22.192 94.0901 22.002Z" fill="#693D82"/>
<path d="M97.49 21.752C97.58 21.532 97.49 21.292 97.39 21.242C97.29 21.192 97.05 21.322 96.96 21.552C96.87 21.782 96.96 22.012 97.06 22.072C97.16 22.132 97.4 22.002 97.49 21.752Z" fill="#693D82"/>
<path d="M101.26 21.532C101.35 21.302 101.26 21.072 101.16 21.022C101.06 20.972 100.82 21.102 100.73 21.332C100.64 21.562 100.73 21.792 100.83 21.852C100.93 21.912 101.17 21.762 101.26 21.532Z" fill="#693D82"/>
<path d="M104.14 6.38199L94.71 2.38199V1.90198L104.14 5.90198V6.38199Z" fill="#793D82"/>
<path d="M101.29 0.722059C101.29 0.462059 100.77 0.152067 100.04 0.0420668C99.31 -0.0679332 98.69 0.0420656 98.65 0.322066C98.61 0.602066 99.16 0.892058 99.89 1.00206C100.62 1.11206 101.25 1.00206 101.29 0.722059Z" fill="#793D82"/>
<path d="M103.66 9.18198L103.01 6.422L96.1699 3.422L96.77 6.74197C96.77 7.02197 96.8999 7.34199 96.9399 7.63199L103.82 9.98199C103.78 9.74199 103.7 9.46198 103.66 9.18198Z" fill="#DEE9FF"/>
<defs>
<linearGradient id="paint0_linear" x1="0" y1="24.822" x2="84" y2="24.822" gradientUnits="userSpaceOnUse">
<stop offset="0.31" stop-color="white" stop-opacity="0"/>
<stop offset="0.51" stop-color="white" stop-opacity="0.23"/>
<stop offset="0.96" stop-color="white" stop-opacity="0.79"/>
<stop offset="0.97" stop-color="white" stop-opacity="0.8"/>
</linearGradient>
</defs>
</svg>
