<svg xmlns="http://www.w3.org/2000/svg" width="436" height="386" xmlns:xlink="http://www.w3.org/1999/xlink">
  <defs>
    <path id="a" d="M219.9998.632H0v175.1115h219.9998V.632z"/>
    <path id="c" d="M9.847 33.25v-33H.8009v33H9.847z"/>
    <path id="e" d="M.848.25v33h9.3202v-33z"/>
    <path id="g" d="M.4239 25.986h12.87V0H.4239z"/>
    <path id="i" d="M.6753 25.986h12.87V0H.6753z"/>
    <path id="k" d="M177.695 103.943V.223H.0001823v103.72H177.695z"/>
    <path id="m" d="M119.038163.03H.6566343v103.7196H119.038163V.03z"/>
  </defs>
  <g fill="none" fill-rule="evenodd">
    <g transform="translate(209 1.368)">
      <mask id="b" fill="#fff">
        <use xlink:href="#a"/>
      </mask>
      <path fill="#47537B" d="M130.6488 175.7435h-41.298c-49.347 0-89.351-40.004-89.351-89.351v-63.177c0-12.473 10.111-22.584 22.583-22.584h174.834c12.472 0 22.583 10.111 22.583 22.584v63.177c0 49.347-40.004 89.351-89.351 89.351" mask="url(#b)"/>
    </g>
    <path fill="#5E6271" d="M305.954 117.7905l-6.314-6.314c-1.562-1.562-4.095-1.562-5.657 0l-5.657 5.658c-1.562 1.562-1.561 4.094.001 5.656l23.284 23.285c.75.75 1.171 1.767 1.171 2.828v236.464h16V84.3845c0-2.209-1.79-4-4-4h-8c-2.209 0-4 1.791-4 4v30.578c0 3.563-4.308 5.348-6.828 2.828"/>
    <path fill="#161A29" d="M204 386.277v-45.585c0-11.537 9.353-20.89 20.891-20.89h.005c11.538 0 20.891 9.353 20.891 20.89v7.178c0 5.881 4.767 10.647 10.647 10.647s10.647-4.766 10.647-10.647v-19.752c0-30.441 24.677-55.118 55.118-55.118 30.441 0 55.119 24.677 55.119 55.118v58.159H204z"/>
    <path fill="#5E6271" d="M59.848 385.956h70V207.984h-70"/>
    <path fill="#676B78" d="M94.9846 353.22c-3.539 0-6.435-2.896-6.435-6.435v-20.13c0-3.539 2.896-6.435 6.435-6.435 3.539 0 6.435 2.896 6.435 6.435v20.13c0 3.539-2.896 6.435-6.435 6.435"/>
    <g transform="translate(120 319.97)">
      <mask id="d" fill="#fff">
        <use xlink:href="#c"/>
      </mask>
      <path fill="#676B78" d="M7.2359 33.25c-3.539 0-6.435-2.896-6.435-6.435V6.685c0-3.539 2.896-6.435 6.435-6.435 3.539 0 6.435 2.896 6.435 6.435v20.13c0 3.539-2.896 6.435-6.435 6.435" mask="url(#d)"/>
    </g>
    <g transform="translate(59 319.97)">
      <mask id="f" fill="#fff">
        <use xlink:href="#e"/>
      </mask>
      <path fill="#676B78" d="M3.7332 33.25c-3.539 0-6.435-2.896-6.435-6.435V6.685c0-3.539 2.896-6.435 6.435-6.435 3.539 0 6.435 2.896 6.435 6.435v20.13c0 3.539-2.896 6.435-6.435 6.435" mask="url(#f)"/>
    </g>
    <path fill="#676B78" d="M78.8589 313.47c-3.539 0-6.435-2.896-6.435-6.435v-20.13c0-3.539 2.896-6.435 6.435-6.435 3.539 0 6.435 2.896 6.435 6.435v20.13c0 3.539-2.896 6.435-6.435 6.435m32.2514 0c-3.539 0-6.435-2.896-6.435-6.435v-20.13c0-3.539 2.896-6.435 6.435-6.435 3.539 0 6.435 2.896 6.435 6.435v20.13c0 3.539-2.896 6.435-6.435 6.435"/>
    <g transform="translate(72 359.97)">
      <mask id="h" fill="#fff">
        <use xlink:href="#g"/>
      </mask>
      <path fill="#676B78" d="M6.8589 33c-3.539 0-6.435-2.896-6.435-6.435V6.435C.4239 2.896 3.3199 0 6.8589 0c3.539 0 6.435 2.896 6.435 6.435v20.13c0 3.539-2.896 6.435-6.435 6.435" mask="url(#h)"/>
    </g>
    <g transform="translate(104 359.97)">
      <mask id="j" fill="#fff">
        <use xlink:href="#i"/>
      </mask>
      <path fill="#676B78" d="M7.1103 33c-3.539 0-6.435-2.896-6.435-6.435V6.435C.6753 2.896 3.5713 0 7.1103 0c3.539 0 6.435 2.896 6.435 6.435v20.13c0 3.539-2.896 6.435-6.435 6.435" mask="url(#j)"/>
    </g>
    <g transform="translate(6 191.97)">
      <mask id="l" fill="#fff">
        <use xlink:href="#k"/>
      </mask>
      <path fill="#47537B" d="M176.877 86.113L125.599.223H52.087L.818 86.113c-2.842 7.806 2.001 16.575 10.226 17.738.421.06.868.092 1.346.092 7.575 0 7.575-8 15.149-8 7.573 0 7.573 8 15.145 8 7.574 0 7.574-8 15.149-8 7.573 0 7.573 8 15.146 8 7.574 0 7.574-8 15.147-8 7.572 0 7.572 8 15.145 8 7.573 0 7.573-8 15.147-8 7.573 0 7.573 8 15.145 8 .259 0 .489-.032.731-.05v.001c.24.018.469.049.727.049 7.573 0 7.573-8 15.147-8 7.573 0 7.573 8 15.145 8 .475 0 .92-.032 1.339-.091 8.226-1.157 13.068-9.933 10.225-17.739" mask="url(#l)"/>
    </g>
    <g transform="translate(35 109.97)">
      <mask id="n" fill="#fff">
        <use xlink:href="#m"/>
      </mask>
      <path fill="#66739D" d="M1.1257 85.6446c-2.02 7.875 2.663 16.187 10.609 17.907.59.127 1.234.198 1.944.198 7.574 0 7.574-8 15.149-8 7.573 0 7.573 8 15.147 8 7.573 0 7.573-8 15.146-8s7.573 8 15.145 8c7.574 0 7.574-8 15.147-8s7.573 8 15.146 8c.258 0 .488-.031.73-.049.241.018.469.049.727.049.71 0 1.354-.071 1.944-.198 7.947-1.72 12.63-10.034 10.609-17.91l-48.47-79.839c-2.176-3.584-6.065-5.773-10.257-5.773h-.006c-4.193 0-8.083 2.189-10.258 5.775l-48.452 79.84z" mask="url(#n)"/>
    </g>
    <path d="M0 0h436v386H0z"/>
  </g>
</svg>