<svg width="40" height="40" viewBox="0 0 40 40" fill="none" xmlns="http://www.w3.org/2000/svg">
<circle cx="20" cy="20" r="20" fill="#202225"/>
<path d="M32 20C32 21.185 30.08 22.07 29.72 23.135C29.36 24.2 30.38 26.135 29.72 27.02C29.06 27.905 26.96 27.545 26.03 28.22C25.1 28.895 24.845 30.98 23.72 31.355C22.595 31.73 21.215 30.155 20.015 30.155C18.815 30.155 17.39 31.655 16.31 31.355C15.23 31.055 14.93 28.895 14 28.22C13.07 27.545 11 27.95 10.31 27.02C9.62 26.09 10.655 24.26 10.31 23.135C9.965 22.01 8 21.185 8 20C8 18.815 9.92 17.93 10.28 16.865C10.64 15.8 9.62 13.865 10.28 12.98C10.94 12.095 13.055 12.5 14 11.78C14.945 11.06 15.17 9.02 16.295 8.645C17.42 8.27 18.8 9.845 20 9.845C21.2 9.845 22.625 8.345 23.705 8.645C24.785 8.945 25.07 11.105 26 11.78C26.93 12.455 29 12.05 29.69 12.98C30.38 13.91 29.345 15.74 29.69 16.865C30.035 17.99 32 18.815 32 20Z" fill="#7289DA"/>
<path d="M19.1 25.355L14 21.5L15.5 19.49L18.5 21.785L23.87 14.645L25.91 16.145L19.1 25.355Z" fill="#202225"/>
</svg>
