<svg xmlns="http://www.w3.org/2000/svg" width="24" height="26" xmlns:xlink="http://www.w3.org/1999/xlink">
  <defs>
    <path id="a" d="M7 7.3573V.3929319H.03576813V7.3573H7z"/>
    <path id="c" d="M0 .39276813V7.3573h6.96423187V.39276813H0z"/>
  </defs>
  <g fill="none" fill-rule="evenodd">
    <path fill="#2A2F46" d="M17.7144 25.7701c-.056 0-.113-.01-.169-.031-.249-.093-.376-.371-.282-.62l1.431-3.822-.662-2.946-1.688-.649c-.248-.095-.372-.374-.277-.623.096-.249.375-.373.624-.277l1.928.742c.151.058.262.187.298.344l.749 3.338c.021.092.014.187-.018.275l-1.482 3.956c-.073.193-.257.313-.452.313"/>
    <g transform="translate(16 11.77)">
      <mask id="b" fill="#fff">
        <use xlink:href="#a"/>
      </mask>
      <path fill="#2A2F46" d="M6.5173 7.3573c-.222 0-.423-.155-.471-.381l-.618-2.883-2.047-2.437-2.913-.302c-.265-.027-.457-.264-.43-.529.027-.265.264-.456.529-.43l3.107.322c.125.013.239.073.32.169l2.25 2.679c.05.06.086.132.102.209l.643 3c.056.26-.11.516-.371.572-.034.007-.068.011-.101.011" mask="url(#b)"/>
    </g>
    <path fill="#2A2F46" d="M16.5177 12.1796c-.205 0-.395-.132-.46-.337-.08-.254.061-.525.315-.605l2.9-.915 1.263-2.838v-1.965c0-.266.216-.482.482-.482s.482.216.482.482v2.067c0 .068-.014.135-.041.196l-1.393 3.13c-.056.126-.164.222-.296.264l-3.107.981c-.048.015-.097.022-.145.022M5.2857 25.7701c-.195 0-.379-.12-.452-.313l-1.482-3.956c-.033-.088-.039-.183-.019-.275l.75-3.338c.036-.157.147-.286.298-.344l1.928-.742c.249-.096.528.028.624.277.095.249-.029.528-.277.623l-1.688.649-.662 2.946 1.431 3.822c.094.249-.033.527-.282.62-.056.021-.113.031-.169.031"/>
    <g transform="translate(0 11.77)">
      <mask id="d" fill="#fff">
        <use xlink:href="#c"/>
      </mask>
      <path fill="#2A2F46" d="M.4827 7.3573c-.034 0-.067-.004-.101-.011-.261-.056-.427-.312-.371-.572l.643-3c.016-.077.052-.149.102-.209l2.25-2.679c.081-.096.195-.156.32-.169l3.107-.322c.264-.027.502.165.529.43.027.265-.165.502-.43.529l-2.913.302-2.047 2.437-.618 2.883c-.048.226-.249.381-.471.381" mask="url(#d)"/>
    </g>
    <path fill="#2A2F46" d="M6.4823 12.1796c-.048 0-.097-.007-.145-.022l-3.107-.981c-.132-.042-.24-.138-.296-.264l-1.393-3.13c-.027-.061-.041-.128-.041-.196v-2.067c0-.266.216-.482.482-.482s.482.216.482.482v1.965l1.263 2.838 2.9.915c.254.08.395.351.315.605-.065.205-.255.337-.46.337m11.1729-9.5603c-.244 0-.453.223-.496.53l-.346 2.479c-.009.064-.02.127-.031.19-.24 1.285-1.173 2.164-2.207 2.164h-.238c-1.168 0-2.148-1.125-2.271-2.608l-.287-5.039c-.016-.191-.141-.335-.291-.335h-.001c-.15 0-.276.144-.292.335l-.284 5.037c-.123 1.484-1.103 2.61-2.272 2.61h-.236c-1.035 0-1.967-.879-2.207-2.164-.012-.063-.022-.126-.031-.19l-.347-2.479c-.043-.307-.252-.53-.495-.53-.278 0-.504.288-.504.643v2.711c0 1.66.637 3.214 1.705 4.159l4.892 4.332.073-.397.073.397 4.891-4.332c1.068-.945 1.705-2.499 1.705-4.159v-2.711c0-.355-.225-.643-.503-.643"/>
    <path fill="#2A2F46" d="M9.4109 5.8412c0 .355-.288.643-.643.643-.355 0-.643-.288-.643-.643 0-.355.288-.643.643-.643.355 0 .643.288.643.643"/>
    <path fill="#2A2F46" d="M10.8599 8.1602l-2.206-2.205.228-.228 2.205 2.206m2.4801-2.092c0 .355.288.643.643.643.355 0 .643-.288.643-.643 0-.355-.288-.643-.643-.643-.355 0-.643.288-.643.643"/>
    <path fill="#2A2F46" d="M12.1179 8.1602l-.227-.227 2.205-2.206.227.228M11.491 24.4307c-2.939 0-5.373-2.282-5.562-5.215l-.318-6.538c-.065-1.004.732-1.854 1.738-1.854h8.284c1.006 0 1.803.85 1.738 1.854l-.318 6.538c-.189 2.933-2.623 5.215-5.562 5.215"/>
    <path fill="#30364D" d="M15.9544 10.8238l-4.144 1.607v12h.002c2.939 0 5.373-2.282 5.562-5.215l.318-6.538c.065-1.004-.732-1.854-1.738-1.854m-8.9268 0c-1.006 0-1.803.85-1.738 1.854l.318 6.538c.189 2.932 2.622 5.214 5.56 5.215v-12l-4.14-1.607z"/>
    <path d="M0 0h24v26H0z"/>
  </g>
</svg>