<svg xmlns="http://www.w3.org/2000/svg" width="740" height="900" xmlns:xlink="http://www.w3.org/1999/xlink">
  <defs>
    <path id="a" d="M409.3399 118.938l-159.052 28.156V.658h-250v899.999h250V230.085l64.806-33.816 68.408 3.889c2.61.149 4.808-1.928 4.808-4.543v-.001c0-1.765-1.02-3.37-2.618-4.119l-32.367-15.176 64.152-33.475c4.22-2.202 6.865-6.567 6.865-11.326 0-7.947-7.177-13.965-15.002-12.58"/>
    <path id="c" d="M.288.4702v327.447h168.5732V.4702H.288z"/>
    <path id="e" d="M.288.5239v173.34h91.5192V.5239H.288z"/>
    <path id="g" d="M121.288 377.5333V.0293H.895v377.504z"/>
    <path id="i" d="M.288.4961V278.248h102.216V.4961z"/>
    <path id="k" d="M378.067 119.99257l-6.220011 1.10113H378.067v-1.10113zm-150.779 1.10113V.248H.563v120.8457h226.725z"/>
  </defs>
  <g fill="none" fill-rule="evenodd">
    <g transform="translate(308)">
      <mask id="b" fill="#fff">
        <use xlink:href="#a"/>
      </mask>
      <use fill="#2A2F46" xlink:href="#a"/>
      <g mask="url(#b)">
        <g transform="translate(0 213.41)">
          <mask id="d" fill="#fff">
            <use xlink:href="#c"/>
          </mask>
          <path fill="#30364D" d="M5.1372 40.4702c-68.221 0-123.724 55.502-123.724 123.724 0 68.221 55.503 123.723 123.724 123.723s123.724-55.502 123.724-123.723c0-68.222-55.503-123.724-123.724-123.724m0 287.447c-90.277 0-163.724-73.446-163.724-163.723 0-90.278 73.447-163.724 163.724-163.724 90.277 0 163.724 73.446 163.724 163.724 0 90.277-73.447 163.723-163.724 163.723" mask="url(#d)"/>
        </g>
        <g transform="translate(0 290.41)">
          <mask id="f" fill="#fff">
            <use xlink:href="#e"/>
          </mask>
          <path fill="#30364D" d="M5.1372 40.5239c-25.734 0-46.67 20.936-46.67 46.67s20.936 46.67 46.67 46.67 46.67-20.936 46.67-46.67-20.936-46.67-46.67-46.67m0 133.34c-47.79 0-86.67-38.88-86.67-86.67s38.88-86.67 86.67-86.67 86.67 38.88 86.67 86.67-38.88 86.67-86.67 86.67" mask="url(#f)"/>
        </g>
        <g transform="translate(129 455.41)">
          <mask id="h" fill="#fff">
            <use xlink:href="#g"/>
          </mask>
          <path fill="#30364D" d="M189.647 40.0293c-82.022 0-148.752 66.729-148.752 148.752 0 82.022 66.73 148.752 148.752 148.752s148.752-66.73 148.752-148.752c0-82.023-66.73-148.752-148.752-148.752m0 337.504c-104.078 0-188.752-84.674-188.752-188.752S85.569.0293 189.647.0293s188.752 84.674 188.752 188.752-84.674 188.752-188.752 188.752" mask="url(#h)"/>
        </g>
        <path fill="#30364D" d="M318.647 580.6121c-35.058 0-63.579 28.521-63.579 63.579s28.521 63.579 63.579 63.579 63.579-28.521 63.579-63.579-28.521-63.579-63.579-63.579m0 167.158c-57.114 0-103.579-46.466-103.579-103.579 0-57.113 46.465-103.579 103.579-103.579 57.114 0 103.579 46.466 103.579 103.579 0 57.113-46.465 103.579-103.579 103.579"/>
        <g transform="translate(0 622.41)">
          <mask id="j" fill="#fff">
            <use xlink:href="#i"/>
          </mask>
          <path fill="#30364D" d="M-86.248 40.4961c-82.022 0-148.752 66.729-148.752 148.752 0 82.022 66.73 148.752 148.752 148.752s148.752-66.73 148.752-148.752c0-82.023-66.73-148.752-148.752-148.752m0 337.504c-104.078 0-188.752-84.674-188.752-188.752S-190.326.4961-86.248.4961s188.752 84.674 188.752 188.752-84.674 188.752-188.752 188.752" mask="url(#j)"/>
        </g>
        <g transform="translate(23 .41)">
          <mask id="l" fill="#fff">
            <use xlink:href="#k"/>
          </mask>
          <path fill="#30364D" d="M189.315-216.4103c-82.022 0-148.752 66.73-148.752 148.752s66.73 148.752 148.752 148.752 148.752-66.73 148.752-148.752-66.73-148.752-148.752-148.752m0 337.504C85.237 121.0937.563 36.4197.563-67.6583s84.674-188.752 188.752-188.752 188.752 84.674 188.752 188.752-84.674 188.752-188.752 188.752" mask="url(#l)"/>
        </g>
      </g>
      <g mask="url(#b)">
        <path fill="#161A29" d="M226.2876 900.6576h-120v-123c0-33.137 26.863-60 60-60s60 26.863 60 60v123z"/>
        <path fill="#1B2138" d="M166.2877 717.6576c-5.18 0-10.206.656-15 1.89 25.878 6.661 45 30.152 45 58.11v123h30v-123c0-33.137-26.863-60-60-60"/>
      </g>
    </g>
    <g fill="#1B2138">
      <path d="M180 901h88.204V1H180"/>
      <path d="M325.1425 374.7635c-2.493-4.697-8.322-6.483-13.019-3.99l-76.949 40.849v42.985l87.362-67.72c3.702-2.869 4.802-7.987 2.606-12.124"/>
    </g>
    <g fill="#2A2F46">
      <path d="M118.125 901h62.3V1h-62.3"/>
      <path d="M57.8479 79.3745l87.74 20.33v55.925l-91.508-62.493c-1.301-.889-2.08-2.364-2.08-3.94v-5.174c0-3.07 2.857-5.341 5.848-4.648m117.0992 200.4871l46.739-20.211c4.139-1.79 8.758 1.245 8.758 5.755v.001c0 1.579-.595 3.099-1.667 4.258l-53.83 58.195"/>
    </g>
    <path d="M-1 0h742v900H-1z"/>
  </g>
</svg>