<svg width="141" height="48" viewBox="0 0 141 48" fill="none" xmlns="http://www.w3.org/2000/svg">
<path d="M58.92 15.9946C58.92 15.9946 111.78 -20.6154 111.78 17.9946C130.33 9.29461 141 27.9946 141 27.9946H0C0 27.9946 38.1 -10.2154 58.92 15.9946Z" fill="#7AA6FF"/>
<path d="M68.13 25.8046C68.13 25.8046 70.35 22.1147 71.83 23.5947C71.83 23.5947 74.04 19.1646 75.52 22.8546L74.78 25.8046H68.13Z" fill="#4E7D8C"/>
<path d="M74.58 25.8047L75.45 17.6847H77.67L79.14 20.6347L80.62 18.4247H84.31V25.9047L74.58 25.8047Z" fill="#707AFA"/>
<path d="M109.5 25.8047C109.5 25.8047 108.29 23.3947 107.08 24.6047C107.08 24.6047 104.66 20.3747 103.45 23.3947L102.85 25.2047L109.5 25.8047Z" fill="#4E7D8C"/>
<path d="M82.56 18.9047L83.91 17.1047L85.86 16.9447L86.53 10.2947H91.77L93.18 14.7347L97.61 13.9947L99.64 18.0047L97.14 25.6847H81.9L82.56 18.9047Z" fill="#5763FA"/>
<path d="M86.49 23.1846C86.9539 23.1846 87.33 22.8086 87.33 22.3446C87.33 21.8807 86.9539 21.5046 86.49 21.5046C86.0261 21.5046 85.65 21.8807 85.65 22.3446C85.65 22.8086 86.0261 23.1846 86.49 23.1846Z" fill="#B79BDB"/>
<path d="M91.29 18.3846C91.7539 18.3846 92.13 18.0085 92.13 17.5446C92.13 17.0807 91.7539 16.7046 91.29 16.7046C90.8261 16.7046 90.45 17.0807 90.45 17.5446C90.45 18.0085 90.8261 18.3846 91.29 18.3846Z" fill="#B79BDB"/>
<path d="M62.67 26.2247L63.83 28.5547L80 39.1046L84.43 39.8447L88.82 47.8447C88.82 47.8447 100.14 47.3447 99.65 47.3447C99.16 47.3447 101.65 36.5146 101.65 36.5146L105.59 34.5146V31.0647C105.59 31.0647 111.59 29.5947 113.08 26.1447L62.67 26.2247Z" fill="#3C5BAB"/>
<path d="M79.02 25.6947L81.36 35.4147L89.08 39.4647L92.26 45.2947L96.94 45.0147L93.32 39.4647L92.26 36.8147L94.38 31.5247L93.38 31.3547L90.39 28.9447L90.14 28.3447L91.73 25.6947H79.02Z" fill="#37549E"/>
<path d="M112.93 26.2247H62.59L63.52 25.6146C63.9521 25.317 64.4654 25.1599 64.99 25.1647H110.37C110.845 25.1646 111.316 25.2581 111.755 25.44C112.195 25.6219 112.594 25.8885 112.93 26.2247Z" fill="#569299"/>
<path d="M94.47 25.1647L94.66 11.7747H101.93L102.04 13.9947L103.52 15.4647V25.1647H94.47Z" fill="#8A91FA"/>
<path d="M94.08 18.5146H99.83V25.1647H91V21.6347C90.9999 20.8141 91.3232 20.0265 91.8996 19.4425C92.4761 18.8585 93.2595 18.5252 94.08 18.5146Z" fill="#8A91FA"/>
<path d="M97.76 15.4646H96.87V22.8546H97.76V15.4646Z" fill="#707AFA"/>
<path d="M99.83 13.2546H98.94V20.6446H99.83V13.2546Z" fill="#707AFA"/>
<path d="M92.1 25.0747C92.1 25.0747 93.3 20.4747 94.55 25.0747H92.1Z" fill="#5763FA"/>
</svg>
