<svg width="29" height="29" viewBox="0 0 29 29" fill="none" xmlns="http://www.w3.org/2000/svg">
<path d="M14.96 0.466309H14.95C13.7018 0.466309 12.6899 1.47814 12.6899 2.72631V8.49631C12.6899 9.74447 13.7018 10.7563 14.95 10.7563H14.96C16.2081 10.7563 17.2199 9.74447 17.2199 8.49631V2.72631C17.2199 1.47814 16.2081 0.466309 14.96 0.466309Z" fill="#FF70AA"/>
<path d="M14.96 18.1763H14.95C13.7018 18.1763 12.6899 19.1881 12.6899 20.4363V26.2063C12.6899 27.4544 13.7018 28.4663 14.95 28.4663H14.96C16.2081 28.4663 17.2199 27.4544 17.2199 26.2063V20.4363C17.2199 19.1881 16.2081 18.1763 14.96 18.1763Z" fill="#FF70AA"/>
<path d="M28.95 14.4763V14.4663C28.95 13.2181 27.9381 12.2063 26.6899 12.2063H20.92C19.6718 12.2063 18.66 13.2181 18.66 14.4663V14.4763C18.66 15.7245 19.6718 16.7363 20.92 16.7363H26.6899C27.9381 16.7363 28.95 15.7245 28.95 14.4763Z" fill="#FF70AA"/>
<path d="M11.25 14.4663V14.4563C11.25 13.2081 10.2382 12.1963 8.99 12.1963H3.22C1.97184 12.1963 0.959999 13.2081 0.959999 14.4563V14.4663C0.959999 15.7144 1.97184 16.7263 3.22 16.7263H8.99C10.2382 16.7263 11.25 15.7144 11.25 14.4663Z" fill="#FF70AA"/>
</svg>
