<svg width="9" height="10" viewBox="0 0 9 10" fill="none" xmlns="http://www.w3.org/2000/svg">
<path d="M1.76995 4.96651L0.189928 9.06651C0.181907 9.08331 0.179304 9.10217 0.182451 9.12051C0.185598 9.13886 0.194346 9.15577 0.207506 9.16893C0.220666 9.18209 0.237594 9.19085 0.255937 9.194C0.274281 9.19715 0.293129 9.19453 0.309923 9.18651L4.40993 7.60651H4.47994L8.57994 9.18651C8.59674 9.19453 8.61561 9.19715 8.63396 9.194C8.6523 9.19085 8.6692 9.18209 8.68236 9.16893C8.69552 9.15577 8.70427 9.13886 8.70741 9.12051C8.71056 9.10217 8.70796 9.08331 8.69994 9.06651L7.11995 4.96651V4.8965L8.69994 0.796508C8.70796 0.779713 8.71056 0.76085 8.70741 0.742507C8.70427 0.724163 8.69552 0.707236 8.68236 0.694075C8.6692 0.680915 8.6523 0.672168 8.63396 0.669021C8.61561 0.665873 8.59674 0.668492 8.57994 0.676513L4.47994 2.2565C4.46886 2.26117 4.45696 2.26359 4.44493 2.26359C4.43291 2.26359 4.42101 2.26117 4.40993 2.2565L0.309923 0.676513C0.293129 0.668492 0.274281 0.665873 0.255937 0.669021C0.237594 0.672168 0.220666 0.680915 0.207506 0.694075C0.194346 0.707236 0.185598 0.724163 0.182451 0.742507C0.179304 0.76085 0.181907 0.779713 0.189928 0.796508L1.76995 4.8965C1.77462 4.90758 1.77703 4.91948 1.77703 4.9315C1.77703 4.94353 1.77462 4.95543 1.76995 4.96651Z" fill="#7AA6FF"/>
</svg>
