<svg xmlns="http://www.w3.org/2000/svg" width="562" height="900" xmlns:xlink="http://www.w3.org/1999/xlink">
  <defs>
    <path id="a" d="M189.045 285.3419V.791H.7857v284.5509z"/>
    <path id="c" d="M72.5039.791H.146v226.097h72.3579V.791z"/>
    <path id="e" d="M.146.0049v377.504h254.1329V.0049H.146z"/>
    <path id="g" d="M.8496 208.791H281.045V.4971H.8496V208.791z"/>
    <path id="i" d="M.146.3613v200.791h165.7769V.3613z"/>
    <path id="k" d="M0 .67428952V51.7738h67.4966V.67428952H0z"/>
    <path id="m" d="M123.424 334.9999V0H0v669.9998h123.424z"/>
  </defs>
  <g fill="none" fill-rule="evenodd">
    <path fill="#2A2F46" d="M138.147 900.411h321.898v-900H138.147"/>
    <g transform="translate(270 -.38)">
      <mask id="b" fill="#fff">
        <use xlink:href="#a"/>
      </mask>
      <path fill="#30364D" d="M189.5377-52.1621c-82.022 0-148.752 66.73-148.752 148.752s66.73 148.752 148.752 148.752 148.752-66.73 148.752-148.752-66.73-148.752-148.752-148.752m0 337.504c-104.078 0-188.752-84.674-188.752-188.752s84.674-188.752 188.752-188.752 188.752 84.674 188.752 188.752-84.674 188.752-188.752 188.752" mask="url(#b)"/>
    </g>
    <g transform="translate(138 -.38)">
      <mask id="d" fill="#fff">
        <use xlink:href="#c"/>
      </mask>
      <path fill="#30364D" d="M-116.2481-110.616c-82.022 0-148.752 66.73-148.752 148.752s66.73 148.752 148.752 148.752 148.752-66.73 148.752-148.752-66.73-148.752-148.752-148.752m0 337.504c-104.078 0-188.752-84.674-188.752-188.752s84.674-188.752 188.752-188.752S72.5039-65.942 72.5039 38.136s-84.674 188.752-188.752 188.752" mask="url(#d)"/>
    </g>
    <g transform="translate(138 286.62)">
      <mask id="f" fill="#fff">
        <use xlink:href="#e"/>
      </mask>
      <path fill="#30364D" d="M65.5269 40.0049c-82.022 0-148.752 66.73-148.752 148.752s66.73 148.752 148.752 148.752 148.752-66.73 148.752-148.752-66.73-148.752-148.752-148.752m0 337.504c-104.078 0-188.752-84.674-188.752-188.752S-38.5511.0049 65.5269.0049s188.752 84.674 188.752 188.752-84.674 188.752-188.752 188.752" mask="url(#f)"/>
    </g>
    <g transform="translate(178 691.62)">
      <mask id="h" fill="#fff">
        <use xlink:href="#g"/>
      </mask>
      <path fill="#30364D" d="M189.6016 40.4971c-82.022 0-148.752 66.729-148.752 148.751s66.73 148.752 148.752 148.752 148.752-66.73 148.752-148.752-66.73-148.751-148.752-148.751m0 337.503c-104.078 0-188.752-84.674-188.752-188.752S85.5236.4971 189.6016.4971s188.752 84.673 188.752 188.751-84.674 188.752-188.752 188.752" mask="url(#h)"/>
    </g>
    <g transform="translate(138 374.62)">
      <mask id="j" fill="#fff">
        <use xlink:href="#i"/>
      </mask>
      <path fill="#30364D" d="M65.5269 40.3613c-33.302 0-60.396 27.094-60.396 60.396 0 33.301 27.094 60.395 60.396 60.395 33.303 0 60.396-27.094 60.396-60.395 0-33.302-27.093-60.396-60.396-60.396m0 160.791c-55.358 0-100.396-45.037-100.396-100.395 0-55.359 45.038-100.396 100.396-100.396 55.358 0 100.396 45.037 100.396 100.396 0 55.358-45.038 100.395-100.396 100.395" mask="url(#j)"/>
    </g>
    <path fill="#1B2138" d="M348.079 901h62.3V1h-62.3"/>
    <g transform="translate(296 364)">
      <mask id="l" fill="#fff">
        <use xlink:href="#k"/>
      </mask>
      <path fill="#1B2138" d="M67.4966 13.5228c-4.632-1.734-42.336-9.337-59.291-12.714-4.249-.846-8.206 2.406-8.206 6.739v1.972c0 2.474 1.331 4.757 3.483 5.977l64.014 36.277" mask="url(#l)"/>
    </g>
    <path fill="#3E4455" d="M9.60631623 218.724c2.18699997-2.256 5.78799997-2.312 8.04399997-.125l23.929 23.197c3.609 3.498 9.649.941 9.649-4.085V102c0-2.209 1.79-4 4-4h22.836c2.209 0 4 1.791 4 4v53.681c0 5.068 6.127 7.606 9.711 4.022l6.176-6.176c2.2209998-2.221 5.8229998-2.221 8.0449998 0l6.097 6.098c2.222 2.222 2.222 5.823 0 8.045l-28.3629998 28.363c-1.067 1.067-1.666 2.514-1.666 4.023V305.95c0 5.068 6.127 7.606 9.711 4.022l6.176-6.176c2.2219998-2.222 5.8239998-2.222 8.0449998 0l6.097 6.098c2.221 2.221 2.221 5.823 0 8.044l-28.3629998 28.363c-1.067 1.067-1.666 2.514-1.666 4.022v550.666h-30.836V391.695c0-1.509-.6-2.956-1.667-4.023l-33.561-33.561c-2.222-2.222-2.222-5.824 0-8.045l6.098-6.098c2.221-2.221 5.823-2.221 8.045 0l11.374 11.374c3.583 3.584 9.711 1.046 9.711-4.022v-65.908c0-1.539-.624-3.013-1.73-4.085L3.72931623 232.959c-2.256-2.187-2.312-5.788-.125-8.044l6.002-6.191z"/>
    <g transform="translate(435 231)">
      <mask id="n" fill="#fff">
        <use xlink:href="#m"/>
      </mask>
      <path fill="#3E4455" d="M121.7575 366.0298l-6.098-6.098c-2.221-2.221-5.823-2.221-8.045 0l-23.998 23.999c-3.584 3.584-9.711 1.046-9.711-4.022v-43.167c0-1.508.599-2.955 1.666-4.022l22.188-22.188c2.221-2.222 2.221-5.823-.001-8.045l-6.097-6.098c-2.222-2.221-5.824-2.221-8.045 0-3.584 3.584-9.711 1.046-9.711-4.022v-132.834c0-1.508.599-2.955 1.666-4.022l9.905-9.906c2.222-2.221 5.824-2.221 8.045 0l2.067 2.067c2.222 2.221 5.823 2.221 8.045 0l6.098-6.098c2.221-2.221 2.221-5.823 0-8.045l-2.067-2.067c-2.222-2.221-2.222-5.823 0-8.044l3.593-3.594c2.222-2.222 2.222-5.824 0-8.045l-6.097-6.097c-2.222-2.221-5.823-2.221-8.045 0l-13.499 13.499c-3.584 3.584-9.711 1.046-9.711-4.022V3.9998c0-2.209-1.791-4-4-4h-22.836c-2.209 0-4 1.791-4 4v33.196c0 5.068-6.128 7.606-9.711 4.022l-17.551-17.55c-2.221-2.221-5.823-2.221-8.045 0l-6.097 6.098c-2.221 2.221-2.221 5.823.001 8.045l39.736 39.736c1.067 1.067 1.667 2.514 1.667 4.023v187.664c0 5.068-6.128 7.606-9.711 4.022l-10.051-10.05c-2.222-2.222-5.824-2.222-8.045 0l-6.097 6.097c-2.221 2.222-2.221 5.824 0 8.045l32.237 32.237c1.067 1.067 1.667 2.514 1.667 4.023v356.392h30.836v-245.716c0-1.509.599-2.956 1.666-4.023l46.186-46.186c2.222-2.222 2.222-5.823 0-8.045" mask="url(#n)"/>
    </g>
    <path d="M0 0h562v900H0z"/>
  </g>
</svg>