<svg width="20" height="20" viewBox="0 0 20 20" fill="none" xmlns="http://www.w3.org/2000/svg">
<path fill-rule="evenodd" clip-rule="evenodd" d="M14.7071 10.7071C14.8946 10.5196 15 10.2652 15 10C15 9.73478 14.8946 9.48043 14.7071 9.29289L10.7071 5.29289C10.3166 4.90237 9.68342 4.90237 9.29289 5.29289C8.90237 5.68342 8.90237 6.31658 9.29289 6.70711L11.5858 9H5C4.44772 9 4 9.44772 4 10C4 10.5523 4.44772 11 5 11H11.5858L9.29289 13.2929C8.90237 13.6834 8.90237 14.3166 9.29289 14.7071C9.68342 15.0976 10.3166 15.0976 10.7071 14.7071L14.7071 10.7071Z" fill="#FA777B"/>
</svg>
