<svg width="23" height="23" viewBox="0 0 23 23" fill="none" xmlns="http://www.w3.org/2000/svg">
<path d="M8.20987 14.9665L11.3599 22.0565C11.3727 22.0841 11.3932 22.1074 11.4189 22.1238C11.4446 22.1402 11.4744 22.1488 11.5049 22.1488C11.5353 22.1488 11.5651 22.1402 11.5908 22.1238C11.6165 22.1074 11.637 22.0841 11.6499 22.0565L14.8098 14.9665C14.8147 14.9472 14.8247 14.9295 14.8388 14.9154C14.8529 14.9013 14.8705 14.8913 14.8899 14.8865L21.9799 11.7265C22.0075 11.7136 22.0308 11.6931 22.0472 11.6674C22.0635 11.6418 22.0722 11.6119 22.0722 11.5815C22.0722 11.551 22.0635 11.5212 22.0472 11.4955C22.0308 11.4698 22.0075 11.4494 21.9799 11.4365L14.8899 8.28648C14.8538 8.27128 14.825 8.24257 14.8098 8.20648L11.6499 1.06648C11.637 1.03888 11.6165 1.01554 11.5908 0.999176C11.5651 0.982815 11.5353 0.974121 11.5049 0.974121C11.4744 0.974121 11.4446 0.982815 11.4189 0.999176C11.3932 1.01554 11.3727 1.03888 11.3599 1.06648L8.20987 8.15649C8.18852 8.18799 8.16135 8.21513 8.12985 8.23648L1.03986 11.3865C1.01226 11.3994 0.988925 11.4198 0.972565 11.4455C0.956204 11.4712 0.94751 11.501 0.94751 11.5315C0.94751 11.5619 0.956204 11.5918 0.972565 11.6174C0.988925 11.6431 1.01226 11.6636 1.03986 11.6765L8.12985 14.8365C8.1536 14.849 8.17355 14.8677 8.18762 14.8905C8.20169 14.9134 8.20939 14.9396 8.20987 14.9665Z" fill="#FFE55E"/>
</svg>
