<svg xmlns="http://www.w3.org/2000/svg" width="354" height="314" xmlns:xlink="http://www.w3.org/1999/xlink">
  <defs>
    <path id="a" d="M324.0571 118.217h-38.599c-1.105 0-2-.895-2-2v-1.333l.816-.773c3.428-3.249 5.656-7.648 5.894-12.366.149-2.963-.422-5.843-1.637-8.444-.266-.57-.266-1.217 0-1.787 1.018-2.185 1.587-4.576 1.653-7.059.126-4.763-1.608-9.289-4.885-12.745l-8.165-8.616c-1.393-1.469-3.015-2.66-4.786-3.563-.657-.336-1.058-1.023-1.057-1.76.001-5.587.007-19.822.009-19.872.126-4.762-1.609-9.289-4.885-12.745l-8.165-8.614c-3.352-3.538-8.071-5.566-12.945-5.567-5.008 0-9.816 2.124-13.186 5.827l-7.85 8.619c-2.942 3.231-4.463 7.29-4.602 11.381h-.002v17.664c0 1.623-1.84 2.583-3.154 1.631-11.217-8.129-24.887-12.771-39.262-12.771h-28.757c-.03-.056-.061-.113-.091-.169-3.133-5.84-9.204-9.467-15.843-9.467-2.742 0-5.444.627-7.898 1.825-.95-9.268-8.598-16.363-17.9-16.363-.532 0-1.07.024-1.596.07-3.545.316-6.248.714-8.259 1.217-11.991 2.747-22.845 9.53-30.57 19.105-7.881 9.766-12.221 22.1-12.221 34.729 0 15.532 6.541 30.073 17.475 40.339 1.376 1.292.432 3.607-1.456 3.607h-48.65c-5.795 0-10.492 4.697-10.492 10.491v68.414c0 3.855 2.115 7.4 5.507 9.232l151.288 81.681c3.11 1.679 6.858 1.679 9.968 0l151.287-81.682c3.393-1.831 5.507-5.376 5.507-9.231v-68.414c0-5.794-4.697-10.491-10.491-10.491"/>
    <path id="c" d="M.1404 14.642824l4.738 2.5580822V.2684H.1404v14.374424z"/>
    <path id="e" d="M31.9434 20.801H31.43c-.029-.056-.06-.113-.09-.169-3.133-5.84-9.205-9.467-15.844-9.467-2.741 0-5.443.627-7.897 1.825C7.06374006 7.7736077 4.40726906 3.24559527.5284.283558v238.127456l31.415 16.961197V20.801z"/>
    <path id="g" d="M28.5823 9.801H18.43c-.029-.056-.06-.113-.09-.169C15.207 3.792 9.135.165 2.496.165c-.5449896 0-1.0884374.0247871-1.62870062.07392115L.8673 73.8185h27.715V9.801z"/>
    <path id="i" d="M5.425.801H.687v47.4375h4.738V.801z"/>
    <path id="k" d="M4.8577.694H.1197v104.162915l4.738 2.558082V.694z"/>
    <path id="m" d="M35.1314.21907537C25.0250175 3.51185132 15.972085 9.71547063 9.273 18.018 5.28160127 22.9645793 2.19846946 28.5695944.1274 34.5378974v36.3738518C3.0702213 79.3559031 8.02120547 86.9782892 14.528 93.087c1.376 1.292.432 3.607-1.456 3.607H.1274v64.9183h35.004V.21907537z"/>
    <path id="o" d="M14.6665.8807942C9.38884182 3.92140638 4.61473127 7.82784403.5915 12.4456799v72.5445357C1.83037674 86.4198532 3.1439944 87.7876675 4.528 89.087c1.376 1.292.432 3.607-1.456 3.607H.5915v49.6568h14.075V.8807942z"/>
    <path id="q" d="M4.8784.66524694C4.48852993.63987582 4.0952667.627 3.699.627c-.533 0-1.071.024-1.596.07C1.41769478.75808786.763856.82224014.1404.88962302V115.6633h4.738V.66524694z"/>
    <path id="s" d="M5.6672.8803909c-1.6297785.9389312-3.2115396 1.96042833-4.738 3.0599439V72.3445h4.738V.8803909z"/>
    <path id="u" d="M4.8384.694H.1004v43.0463h4.738V.694z"/>
    <path id="w" d="M.1004 43.6680658l4.738 2.5580822V.192H.1004v43.4760658z"/>
    <path id="y" d="M4.9957.694H4.421c-1.47923925 0-2.88697513.30615434-4.1633.85855537V89.2741022l4.738 2.5580821V.694z"/>
    <path id="A" d="M.687 184.412208L2.724 185.512c.86063627.464484 1.76994647.800471 2.701 1.007962V.2158H.687v184.196408z"/>
    <path id="C" d="M4.8475 1.13462206C3.2794281.97703613 1.69929522.87453334.1095.82869926V118.7405h4.738V1.13462206z"/>
    <path id="E" d="M5.6902 1.42356258C4.12995312.97225048 2.54970167.57685926.9522.23920956V97.2275h4.738V1.42356258z"/>
    <path id="G" d="M.9522 57.3531696l4.738-2.5581135V.3262H.9522v57.0269696z"/>
    <path id="I" d="M.5275 20.4105285l4.738 2.5580822V.3779H.5275v20.0326285z"/>
    <path id="K" d="M.5629 12.9883475l4.738 2.5580822V.4958H.5629v12.4925475z"/>
    <path id="M" d="M.5444 87.9347194l4.738-2.5581135V.9661H.5444v86.9686194z"/>
    <path id="O" d="M5.2824 3.1766186C3.73864802 2.2608332 2.1580449 1.40652065.5444.616199V26.0803h4.738V3.1766186z"/>
    <path id="Q" d="M32.2329 1.4927711C30.3244503.81091427 28.2976697.45042147 26.243.45c-5.008 0-9.815 2.124-13.186 5.827l-7.85 8.619C2.266 18.127.745 22.186.605 26.277H.604v21.725c-.0106974-.0087579-.0213974-.0175124-.0321-.0262636V254.900987l31.661-17.094223V1.4927711z"/>
    <path id="S" d="M5.7195 5.74039418C5.05420915 4.63325968 4.26311225 3.59082543 3.353 2.631L.9815.12878283V218.923613l4.738-2.558113V5.74039418z"/>
    <path id="U" d="M.9691 74.291681l4.738-2.5581135V.4826H.9691v73.809081z"/>
    <path id="W" d="M5.7066 52.5717497C4.94204745 52.2907496 4.397 51.5563189 4.397 50.694v-1.333l.815-.773c.1677726-.1589656.3326701-.3206843.4946-.4850585V5.62624772L.9696.62759592V80.9643182h4.737V52.5717497z"/>
    <path id="Y" d="M.0331 2.63309403L3.58883907.7133H.0331v1.91979403z"/>
    <path id="aa" d="M.2568 18.1131732l14.212-7.6732607V.7726H.2568v17.3405732z"/>
    <path id="ac" d="M.0541.694H27.996c5.794 0 10.491 4.697 10.491 10.491v68.414c0 3.855-2.114 7.4-5.507 9.231L.0541 106.607161V.694z"/>
    <path id="ae" d="M.0539 40.607269l4.738-2.5581135V.7409H.0539v39.866369z"/>
    <path id="ag" d="M8.813331 90.0187L23.98 81.83c3.393-1.831 5.507-5.376 5.507-9.231V4.185c0-1.32668887-.2462645-2.59586186-.6955744-3.7643H.8241v89.598h7.989231z"/>
  </defs>
  <g fill="none" fill-rule="evenodd" transform="translate(1 1)">
    <path fill="#111216" fill-opacity=".3" d="M331.8323 120.4627h-24.242c.495-1.988.8-4.038.857-6.136.084-3.126-.35-6.234-1.268-9.189.767-2.476 1.198-5.065 1.268-7.668.2-7.564-2.556-14.753-7.757-20.239l-8.169-8.62c-.925-.975-1.914-1.878-2.963-2.705.003-8.081.006-13.799.008-15.133.162-7.512-2.591-14.645-7.762-20.098l-8.165-8.615c-5.323-5.617-12.816-8.84-20.559-8.841-7.956 0-15.59 3.373-20.943 9.254l-7.852 8.621c-4.496 4.939-7.1 3.362-7.33 10.084l-.006.18v11.144c-9.988-4.53-20.885-6.932-31.925-6.932h-23.326c-5.333-6.057-13.07-9.636-21.365-9.636-.333 0-.666.006-.999.018-4.911-8.764-14.211-14.556-24.799-14.556-.839 0-1.688.037-2.524.111-4.097.365-7.206.83-9.769 1.463-14.236 3.284-27.123 11.35-36.297 22.721-9.381 11.625-14.548 26.298-14.548 41.318 0 11.892 3.311 23.439 9.215 33.454h-31.354c-11.571 0-20.983 9.413-20.983 20.983v68.413c0 7.721 4.22 14.797 11.014 18.464l151.286 81.68c3.054 1.649 6.5 2.52 9.969 2.52 3.469 0 6.917-.871 9.969-2.519l151.288-81.682c6.794-3.668 11.014-10.742 11.014-18.463v-68.413c0-11.57-9.413-20.983-20.983-20.983"/>
    <path fill="#EFD9C2" d="M324.0572 107.7255h-21.786c-1.25 0-2.17-1.131-1.965-2.365.205-1.237.331-2.495.366-3.771.084-3.126-.35-6.234-1.268-9.189.767-2.476 1.198-5.065 1.268-7.668.2-7.564-2.556-14.753-7.757-20.239l-8.169-8.62c-.708-.746-1.453-1.45-2.234-2.11-.456-.385-.729-.938-.729-1.533.003-8.161.006-12.911.008-14.195.162-7.512-2.591-14.645-7.762-20.098l-8.165-8.615c-5.323-5.617-12.816-8.84-20.559-8.841-7.956 0-15.59 3.373-20.943 9.254l-7.852 8.621c-4.496 4.939-7.1 11.362-7.33 18.084l-.006.18v.113c0 1.415-1.431 2.385-2.741 1.851-9.225-3.766-19.145-5.752-29.184-5.752h-23.326c-5.333-6.057-13.07-9.636-21.365-9.636-.333 0-.666.006-.999.018-4.911-8.764-14.211-14.556-24.799-14.556-.839 0-1.688.037-2.524.111-4.097.365-7.206.83-9.769 1.463-14.236 3.284-27.123 11.35-36.297 22.721-9.381 11.625-14.548 26.298-14.548 41.318 0 10.695 2.678 21.11 7.511 30.383.73 1.4-.271 3.071-1.849 3.071h-27.801c-11.589 0-20.983 9.394-20.983 20.983v68.413c0 7.721 4.22 14.797 11.014 18.464l151.286 81.68c3.054 1.649 6.5 2.52 9.969 2.52 3.469 0 6.917-.871 9.969-2.519l151.288-81.682c6.794-3.668 11.014-10.742 11.014-18.463v-68.413c0-11.589-9.394-20.983-20.983-20.983"/>
    <path stroke="#49392E" stroke-width="3" d="M324.0572 107.7255h-21.786c-1.25 0-2.17-1.131-1.965-2.365.205-1.237.331-2.495.366-3.771.084-3.126-.35-6.234-1.268-9.189.767-2.476 1.198-5.065 1.268-7.668.2-7.564-2.556-14.753-7.757-20.239l-8.169-8.62c-.708-.746-1.453-1.45-2.234-2.11-.456-.385-.729-.938-.729-1.533.003-8.161.006-12.911.008-14.195.162-7.512-2.591-14.645-7.762-20.098l-8.165-8.615c-5.323-5.617-12.816-8.84-20.559-8.841-7.956 0-15.59 3.373-20.943 9.254l-7.852 8.621c-4.496 4.939-7.1 11.362-7.33 18.084l-.006.18v.113c0 1.415-1.431 2.385-2.741 1.851-9.225-3.766-19.145-5.752-29.184-5.752h-23.326c-5.333-6.057-13.07-9.636-21.365-9.636-.333 0-.666.006-.999.018-4.911-8.764-14.211-14.556-24.799-14.556-.839 0-1.688.037-2.524.111-4.097.365-7.206.83-9.769 1.463-14.236 3.284-27.123 11.35-36.297 22.721-9.381 11.625-14.548 26.298-14.548 41.318 0 10.695 2.678 21.11 7.511 30.383.73 1.4-.271 3.071-1.849 3.071h-27.801c-11.589 0-20.983 9.394-20.983 20.983v68.413c0 7.721 4.22 14.797 11.014 18.464l151.286 81.68c3.054 1.649 6.5 2.52 9.969 2.52 3.469 0 6.917-.871 9.969-2.519l151.288-81.682c6.794-3.668 11.014-10.742 11.014-18.463v-68.413c0-11.589-9.394-20.983-20.983-20.983z"/>
    <mask id="b" fill="#fff">
      <use xlink:href="#a"/>
    </mask>
    <use fill="#B88646" xlink:href="#a"/>
    <path fill="#A0723F" d="M285.4662 120.3153c0 1.159.939 2.098 2.098 2.098h42.788c.781 0 1.541.092 2.274.255-1.9-2.69-5.026-4.451-8.569-4.451h-38.591v2.098zM177.2488 43.3241h-28.718l2.028 2.867c.59.834 1.548 1.33 2.569 1.33h30.416c12.188 0 23.864 3.349 33.973 9.319-11.401-8.588-25.46-13.516-40.268-13.516m-38.3962-5.4398c2.312 0 4.551.449 6.625 1.269-3.336-3.447-7.969-5.466-12.92-5.466-1.063 0-2.114.123-3.153.308 0 0-4.265.796-4.744 1.518-.253.38 7.872 3.428 9.549 2.981 1.508-.403 3.069-.61 4.643-.61m87.1076-4.8875l.002 8c.139-4.091 1.66-8.15 4.601-11.381l7.85-8.619c3.371-3.703 8.178-5.828 13.186-5.828 2.259.001 4.478.454 6.549 1.274-3.346-3.475-8.016-5.469-12.843-5.47-5.008 0-9.816 2.124-13.186 5.827l-7.851 8.619c-2.941 3.231-4.462 7.291-4.601 11.381h-.002v18.361c1.015.652 2.013 1.329 2.993 2.032 1.381.99 3.302-.016 3.302-1.715v-22.481zM70.5405 118.1647s-.005-.001-.008-.001c.022.017-49.05.053-49.05.053-5.794 0-10.491 4.698-10.491 10.492v68.413c0 3.856 2.115 7.4 5.507 9.232l3.357 1.813c-1.621-1.876-2.569-4.287-2.569-6.848v-68.414c0-5.794 4.697-10.491 10.491-10.491h45.004c.982 0 1.426-1.228.672-1.856-1.451-1.205-2.843-2.393-2.913-2.393m36.22-99.0149c-.533 0-1.071.024-1.596.071-3.545.315-6.248.713-8.259 1.216-11.992 2.747-22.846 9.53-30.571 19.105-7.881 9.766-12.221 22.1-12.221 34.73 0 10.771 3.165 21.05 8.745 29.769-2.984-6.677-3.585-14.236-3.769-21.457-.374-14.694 4.335-27.438 13.54-38.846 7.725-9.574 18.579-16.357 30.571-19.105 2.011-.503 4.714-.901 8.259-1.216.525-.046 1.063-.07 1.596-.07 2.291 0 4.48.434 6.496 1.222-3.263-3.348-7.781-5.419-12.791-5.419" mask="url(#b)"/>
    <g fill="#A0723F" mask="url(#b)">
      <path d="M152.0056 108.7174v-34.867c0-1.074 1.299-1.612 2.059-.852l34.867 34.866c.759.76.221 2.059-.853 2.059h-34.867c-.666 0-1.206-.54-1.206-1.206zm71.279 1.206h-24.473c-.64 0-1.253-.254-1.706-.706l-40.223-40.224c-.76-.759-.222-2.059.853-2.059h21.514c23.782 0 43.352 18.386 45.247 41.691.057.699-.511 1.298-1.212 1.298zm-113.313-70.558c-.038-.959-.631-1.486-1.317-1.425-1.59.141-4.3.424-5.817.817-17.256 3.864-29.938 19.167-29.938 37.514 0 20.896 16.361 37.779 37.316 38.436l7.473.023c.666.002 1.208-.536 1.21-1.202l.007-2.412c.002-.666-.536-1.208-1.203-1.21l-7.405-.022c-18.265-.574-32.573-15.339-32.573-33.613 0-2.941.374-5.792 1.077-8.507.347-1.34 2.32-1.174 2.377.209.038.916.119 1.841.246 2.773 1.787 13.116 12.525 23.507 25.696 24.831 16.839 1.693 31.154-11.15 31.894-27.47.029-.652.549-1.173 1.201-1.173h5.759c.667 0 1.207.54 1.207 1.207v29.203c0 .64-.255 1.254-.707 1.706l-27.839 27.839c-.452.452-1.066.707-1.706.707h-17.538c-.666 0-1.206.54-1.206 1.206v2.412c0 .666.54 1.206 1.206 1.206h19.536c.64 0 1.253-.254 1.706-.706l24.489-24.489c.759-.76 2.059-.222 2.059.853v18.312c0 .666-.54 1.206-1.207 1.206h-8.133c-.666 0-1.206.54-1.206 1.206v2.412c0 .666.54 1.206 1.206 1.206h12.958c.666 0 1.206-.54 1.206-1.206v-15.26c0-.666.54-1.206 1.206-1.206l41.602-.002c.64 0 1.254.254 1.706.707l16.261 16.261c.452.452 1.066.706 1.706.706h14.711c.666 0 1.206-.54 1.206-1.206v-2.412c0-.666-.54-1.206-1.206-1.206h-12.714c-.639 0-1.253-.255-1.705-.707l-10.084-10.084c-.76-.76-.222-2.059.852-2.059l22.719-.001c.666 0 1.206-.54 1.206-1.206v-1.206c0-27.737-22.485-50.223-50.223-50.223h-39.596c-.579 0-1.063-.415-1.176-.983-.554-2.803-1.513-5.514-2.866-8.036-.321-.598-1.092-.793-1.675-.446l-2.075 1.234c-.56.333-.738 1.042-.433 1.618 1.833 3.459 2.796 7.335 2.796 11.283 0 13.741-11.548 24.835-25.449 24.087-12.69-.684-22.85-11.484-22.796-24.192.049-11.358 7.996-20.865 18.615-23.358 1.411-.286 2.854-.487 4.326-.592.655-.048 1.161-.59 1.135-1.246l-.083-2.114z"/>
      <path d="M140.8584 93.1871c0 1.665-1.35 3.015-3.015 3.015-1.666 0-3.016-1.35-3.016-3.015s1.35-3.015 3.016-3.015c1.665 0 3.015 1.35 3.015 3.015m115.3734-23.7746l-6.156-6.496c-.185-.195-.288-.453-.288-.721v-7.095c0-.949 1.158-1.41 1.811-.722l1.283 1.354c.398.42 1.062.438 1.483.039l1.827-1.731c.421-.399.439-1.063.04-1.483l-6.156-6.496c-.185-.195-.288-.453-.288-.722v-7.095c0-.948 1.158-1.41 1.811-.722l1.283 1.354c.398.421 1.062.439 1.483.04l1.827-1.732c.421-.398.439-1.062.04-1.483l-8.165-8.615c-.42-.443-1.127-.436-1.537.015l-7.85 8.619c-.39.429-.359 1.092.07 1.482l1.862 1.696c.428.39 1.092.359 1.482-.069l1.252-1.376c.646-.709 1.825-.252 1.825.707v6.882c0 .261-.097.513-.273.706l-6.218 6.828c-.39.428-.359 1.092.07 1.482l1.862 1.695c.428.391 1.092.36 1.482-.069l1.252-1.375c.646-.709 1.825-.253 1.825.706v6.883c0 .261-.097.513-.273.706l-6.218 6.827c-.39.428-.359 1.092.07 1.482l1.862 1.696c.428.39 1.092.359 1.482-.069l1.252-1.376c.646-.709 1.825-.252 1.825.706v59.501c0 .579.47 1.049 1.049 1.049h2.519c.579 0 1.049-.47 1.049-1.049v-59.416c0-.948 1.158-1.41 1.811-.722l1.283 1.354c.398.421 1.062.438 1.483.04l1.827-1.732c.421-.398.439-1.062.04-1.483m14.2512 17.6659l1.283 1.354c.399.42 1.063.438 1.483.04l1.828-1.732c.42-.399.438-1.063.039-1.483l-8.165-8.616c-.419-.442-1.126-.435-1.537.016l-7.849 8.619c-.39.428-.359 1.092.069 1.482l1.862 1.696c.429.39 1.092.359 1.482-.07l1.253-1.375c.645-.709 1.825-.252 1.825.706v6.883c0 .261-.098.513-.274.706l-6.217 6.827c-.39.429-.359 1.092.069 1.482l1.862 1.696c.429.39 1.092.359 1.482-.069l1.253-1.376c.645-.709 1.825-.252 1.825.707v26.8c0 .579.469 1.049 1.049 1.049h2.518c.58 0 1.049-.47 1.049-1.049v-26.716c0-.948 1.159-1.41 1.811-.722l1.283 1.354c.399.421 1.063.439 1.483.04l1.828-1.732c.42-.398.438-1.062.039-1.483l-6.156-6.496c-.185-.194-.288-.453-.288-.721v-7.095c0-.949 1.159-1.41 1.811-.722M46.0662 176.4515v10.74c0 .899.729 1.627 1.627 1.627h2.473c2.408 0 3.71-1.106 3.71-4.491v-3.971c0-4.23-1.367-5.532-4.621-5.532h-1.562c-.898 0-1.627.728-1.627 1.627m0-18.55v8.787c0 .899.729 1.627 1.627 1.627h1.171c2.668 0 4.296-1.172 4.296-4.817v-2.538c0-3.255-1.106-4.686-3.645-4.686h-1.822c-.898 0-1.627.728-1.627 1.627m14.254 2.343v1.627c0 3.599-.844 6.2-2.681 7.891-.747.688-.615 1.855.18 2.485 2.284 1.811 3.217 4.762 3.217 8.565v3.71c0 7.03-3.71 10.805-10.87 10.805h-9.633c-.899 0-1.627-.729-1.627-1.627v-42.309c0-.898.728-1.627 1.627-1.627h9.177c7.421 0 10.61 3.45 10.61 10.48m14.3157-10.4798c.899 0 1.627.729 1.627 1.627v33.521c0 3.255 1.433 4.426 3.71 4.426 2.278 0 3.711-1.171 3.711-4.426v-33.521c0-.898.728-1.627 1.627-1.627h3.515c.898 0 1.627.729 1.627 1.627v33.066c0 7.289-3.645 11.455-10.675 11.455-7.03 0-10.675-4.166-10.675-11.455v-33.066c0-.898.729-1.627 1.627-1.627h3.906zm37.1627 20.1776h6.77c.898 0 1.627.729 1.627 1.627v12.823c0 7.29-3.646 11.456-10.675 11.456-7.03 0-10.675-4.166-10.675-11.456v-23.692c0-7.29 3.645-11.456 10.675-11.456 7.029 0 10.675 4.166 10.675 11.456v2.798c0 .899-.729 1.627-1.627 1.627h-3.515c-.899 0-1.628-.728-1.628-1.627v-3.254c0-3.255-1.432-4.491-3.71-4.491-2.279 0-3.71 1.236-3.71 4.491v24.603c0 3.255 1.431 4.427 3.71 4.427 2.278 0 3.71-1.172 3.71-4.427v-6.769c0-.898-.728-1.627-1.627-1.627s-1.627-.728-1.627-1.627v-3.255c0-.898.728-1.627 1.627-1.627m34.0806 6.5092v10.74c0 .899.729 1.627 1.627 1.627h2.473c2.408 0 3.71-1.106 3.71-4.491v-3.971c0-4.23-1.367-5.532-4.621-5.532h-1.562c-.898 0-1.627.728-1.627 1.627m0-18.55v8.787c0 .899.729 1.627 1.627 1.627h1.171c2.668 0 4.296-1.172 4.296-4.817v-2.538c0-3.255-1.106-4.686-3.645-4.686h-1.822c-.898 0-1.627.728-1.627 1.627m14.254 2.343v1.627c0 3.599-.844 6.2-2.681 7.891-.747.688-.615 1.855.18 2.485 2.284 1.811 3.217 4.762 3.217 8.565v3.71c0 7.03-3.71 10.805-10.87 10.805h-9.633c-.899 0-1.627-.729-1.627-1.627v-42.309c0-.898.728-1.627 1.627-1.627h9.177c7.421 0 10.61 3.45 10.61 10.48m15.6827 24.6033c0 3.255 1.431 4.491 3.71 4.491 2.278 0 3.71-1.236 3.71-4.491v-24.603c0-3.255-1.432-4.492-3.71-4.492-2.279 0-3.71 1.237-3.71 4.492v24.603zm-7.16-24.148c0-7.29 3.841-11.455 10.87-11.455 7.03 0 10.869 4.165 10.869 11.455v23.692c0 7.291-3.839 11.456-10.869 11.456-7.029 0-10.87-4.165-10.87-11.456v-23.692zm35.6662-10.9351c.899 0 1.627.729 1.627 1.627v33.521c0 3.255 1.433 4.426 3.71 4.426 2.278 0 3.711-1.171 3.711-4.426v-33.521c0-.898.728-1.627 1.627-1.627h3.515c.898 0 1.627.729 1.627 1.627v33.066c0 7.289-3.645 11.455-10.675 11.455-7.03 0-10.675-4.166-10.675-11.455v-33.066c0-.898.729-1.627 1.627-1.627h3.906zm31.1744 24.8216v19.114c0 .898-.729 1.627-1.627 1.627h-3.189c-.899 0-1.627-.729-1.627-1.627v-42.308c0-.899.728-1.628 1.627-1.628h6.108c.736 0 1.38.494 1.572 1.204l3.831 14.209c.495 1.835 3.198 1.477 3.198-.424v-13.361c0-.899.729-1.628 1.628-1.628h3.124c.898 0 1.627.729 1.627 1.628v42.308c0 .898-.729 1.627-1.627 1.627h-4.482c-.735 0-1.379-.493-1.57-1.203l-5.395-19.962c-.496-1.835-3.198-1.477-3.198.424m25.0547-24.8216h18.876c.899 0 1.627.729 1.627 1.627v3.255c0 .899-.728 1.627-1.627 1.627h-4.231c-.898 0-1.627.729-1.627 1.627v35.799c0 .899-.728 1.628-1.627 1.628h-3.905c-.898 0-1.627-.729-1.627-1.628v-35.799c0-.898-.728-1.627-1.627-1.627h-4.232c-.899 0-1.627-.728-1.627-1.627v-3.255c0-.898.728-1.627 1.627-1.627m34.3607 30.2351l-8.359-28.145c-.31-1.043.472-2.09 1.56-2.09h4.05c.739 0 1.386.498 1.574 1.213l3.574 13.575c.426 1.617 2.722 1.617 3.147 0l3.575-13.575c.188-.715.835-1.213 1.574-1.213h3.399c1.088 0 1.87 1.047 1.56 2.09l-8.359 28.145c-.045.15-.067.306-.067.463v13.237c0 .899-.729 1.628-1.628 1.628h-3.905c-.899 0-1.628-.729-1.628-1.628v-13.237c0-.157-.022-.313-.067-.463m-156.4977 49.4888c1.122 0 2.139-.368 2.139-1.367v-4.42c0-1.017-1.017-1.437-2.139-1.437h-.922c-.585 0-1.06.474-1.06 1.059v5.106c0 .585.475 1.059 1.06 1.059h.922zm0-9.82c2.455 0 4.734 1.228 4.734 4.033v4.42c0 2.787-2.279 3.963-4.734 3.963h-3.501c-.585 0-1.06-.475-1.06-1.06v-10.296c0-.585.475-1.06 1.06-1.06h3.501zm10.7392 12.4156h-.46c-.585 0-1.06-.474-1.06-1.059v-10.297c0-.585.475-1.059 1.06-1.059h.46c.585 0 1.059.474 1.059 1.059v10.297c0 .585-.474 1.059-1.059 1.059m6.4047-3.0911c.41-.315.961-.256 1.366.066 1.393 1.106 3.806.919 3.895-.57.053-1.069-1.103-1.315-2.384-1.49-1.946-.298-3.963-1.21-3.928-3.946.14-2.35 2.298-3.577 4.524-3.577 1.194 0 2.348.345 3.287 1.156.536.463.497 1.308-.091 1.702l-.359.24c-.412.276-.938.202-1.318-.116-.443-.371-.964-.545-1.519-.545-.982 0-1.842.369-1.893 1.228v.018c.017 1.016 1.052 1.157 2.139 1.385 2.157.403 4.262 1.192 4.139 4.12-.211 2.333-2.455 3.595-4.718 3.595-1.271 0-2.563-.49-3.569-1.469-.449-.437-.368-1.186.13-1.568l.299-.229zm19.9506.0706c.587.329.751 1.14.281 1.622-1.024 1.052-2.341 1.574-3.625 1.574-2.403 0-4.875-1.386-4.875-4.121v-4.525c0-2.717 2.419-4.12 4.875-4.12 1.263 0 2.631.495 3.579 1.548.465.516.339 1.332-.272 1.663l-.277.151c-.42.228-.918.121-1.269-.204-.53-.491-1.256-.716-1.954-.703-1.105.017-2.123.631-2.123 1.665v4.525c0 1.017.982 1.613 2.07 1.631.697.013 1.443-.22 1.98-.737.327-.315.797-.424 1.192-.203l.418.234zm7.1928-.9254c0 1.052 1.262 1.561 2.525 1.561 1.264-.018 2.507-.526 2.507-1.561v-4.506c0-1.07-1.262-1.596-2.524-1.579-1.246 0-2.508.544-2.508 1.579v4.506zm-2.561-4.506c0-2.771 2.544-4.156 5.086-4.138 2.543 0 5.085 1.385 5.085 4.138v4.506c0 2.754-2.542 4.139-5.085 4.139-2.542 0-5.086-1.368-5.086-4.139v-4.506zm19.5338 1.5602c1.139 0 1.859-.456 1.859-1.543 0-1.052-.773-1.421-1.859-1.385h-1.238c-.585 0-1.059.474-1.059 1.06v.809c0 .585.474 1.059 1.059 1.059h1.238zm-1.385 2.35h-.912v3.482c0 .585-.475 1.06-1.06 1.06h-.477c-.585 0-1.06-.475-1.06-1.06v-10.296c0-.585.475-1.059 1.06-1.059h3.834c2.489 0 4.366 1.139 4.436 3.963 0 1.688-.568 2.731-1.589 3.302-.573.32-.74 1.063-.335 1.579l1.457 1.857c.545.696.05 1.714-.834 1.714h-.477c-.328 0-.637-.152-.837-.41l-3.206-4.132zm14.7621 1.9461c1.122 0 2.139-.368 2.139-1.367v-4.42c0-1.017-1.017-1.437-2.139-1.437h-.922c-.585 0-1.06.474-1.06 1.059v5.106c0 .585.475 1.059 1.06 1.059h.922zm0-9.82c2.455 0 4.734 1.228 4.734 4.033v4.42c0 2.787-2.279 3.963-4.734 3.963h-3.501c-.585 0-1.06-.475-1.06-1.06v-10.296c0-.585.475-1.06 1.06-1.06h3.501zm-54.1988 29.8257c-.269-.365-.798-.404-1.13-.094-.615.574-1.097 1.172-1.445 1.795-.462.827-.693 1.708-.693 2.642 0 1.533.509 2.804 1.523 3.815 1.015 1.01 2.309 1.514 3.883 1.514.427 0 .873-.06 1.341-.182.466-.122.923-.3 1.371-.533.273-.153.499-.287.677-.404.178-.116.346-.241.509-.373l-6.036-8.18zm1.514-2.236l5.657 7.601c.354.477 1.083.367 1.305-.184.1-.246.185-.51.256-.792.192-.762.29-1.671.29-2.726 0-.144-.009-.466-.019-.779-.014-.424.325-.774.749-.774h.941c.425 0 .765.351.751.776-.049 1.437-.232 2.97-.549 4.013-.314 1.032-.764 1.945-1.349 2.74-.201.273-.216.639-.014.911l1.357 1.83c.367.494.014 1.196-.602 1.196h-1.368c-.242 0-.469-.117-.61-.314l-.509-.712c-.238-.332-.703-.419-1.034-.179-.67.486-1.37.862-2.1 1.129-.944.345-1.955.518-3.03.518-2.192 0-4.005-.683-5.436-2.049-1.432-1.365-2.147-3.083-2.147-5.155 0-1.39.35-2.679 1.049-3.867.606-1.026 1.475-1.987 2.61-2.883.295-.234.397-.647.201-.969-.331-.542-.587-1.075-.769-1.599-.244-.701-.366-1.412-.366-2.133 0-1.523.505-2.725 1.515-3.609 1.01-.883 2.393-1.325 4.15-1.325.66 0 1.322.061 1.987.184.498.09 1.008.213 1.532.367.316.093.531.391.531.72v.97c0 .538-.553.905-1.044.685-.265-.118-.534-.218-.806-.299-.635-.188-1.301-.281-2.003-.281-.984 0-1.761.231-2.329.693-.569.461-.852 1.083-.852 1.865 0 .599.146 1.226.44 1.881.296.655.832 1.504 1.615 2.55zm26.8164 13.186c-1.062 0-1.924-.861-1.924-1.924 0-1.062.862-1.924 1.924-1.924 1.062 0 1.924.862 1.924 1.924 0 1.063-.862 1.924-1.924 1.924m-3.2528-12.9506c.587.329.751 1.14.281 1.622-1.024 1.052-2.34 1.574-3.625 1.574-2.403 0-4.875-1.386-4.875-4.121v-4.525c0-2.717 2.419-4.12 4.875-4.12 1.264 0 2.631.495 3.579 1.548.465.516.339 1.332-.271 1.663l-.278.15c-.421.228-.918.122-1.269-.203-.53-.491-1.256-.716-1.954-.703-1.105.017-2.123.631-2.123 1.665v4.525c0 1.017.982 1.613 2.07 1.631.697.013 1.443-.221 1.98-.738.327-.314.797-.423 1.192-.202l.418.234zm7.1926-.9255c0 1.052 1.262 1.561 2.525 1.561 1.264-.018 2.507-.526 2.507-1.561v-4.506c0-1.07-1.262-1.596-2.524-1.579-1.246 0-2.508.544-2.508 1.579v4.506zm-2.561-4.506c0-2.771 2.544-4.156 5.086-4.138 2.543 0 5.085 1.385 5.085 4.138v4.506c0 2.754-2.542 4.139-5.085 4.139-2.542 0-5.086-1.368-5.086-4.139v-4.506z"/>
    </g>
    <path fill="#FFF" d="M150.0056 106.7174v-34.867c0-1.074 1.299-1.612 2.059-.852l34.867 34.866c.759.76.221 2.059-.853 2.059h-34.867c-.666 0-1.206-.54-1.206-1.206zm71.279 1.206h-24.473c-.64 0-1.253-.254-1.706-.706l-40.223-40.224c-.76-.759-.222-2.059.853-2.059h21.514c23.782 0 43.352 18.386 45.247 41.691.057.699-.511 1.298-1.212 1.298zm-113.313-70.558c-.038-.959-.631-1.486-1.317-1.425-1.59.141-4.3.424-5.817.817-17.256 3.864-29.938 19.167-29.938 37.514 0 20.896 16.361 37.779 37.316 38.436l7.473.023c.666.002 1.208-.536 1.21-1.202l.007-2.412c.002-.666-.536-1.208-1.203-1.21l-7.405-.022c-18.265-.574-32.573-15.339-32.573-33.613 0-2.941.374-5.792 1.077-8.507.347-1.34 2.32-1.174 2.377.209.038.916.119 1.841.246 2.773 1.787 13.116 12.525 23.507 25.696 24.831 16.839 1.693 31.154-11.15 31.894-27.47.029-.652.549-1.173 1.201-1.173h5.759c.667 0 1.207.54 1.207 1.207v29.203c0 .64-.255 1.254-.707 1.706l-27.839 27.839c-.452.452-1.066.707-1.706.707h-17.538c-.666 0-1.206.54-1.206 1.206v2.412c0 .666.54 1.206 1.206 1.206h19.536c.64 0 1.253-.254 1.706-.706l24.489-24.489c.759-.76 2.059-.222 2.059.853v18.312c0 .666-.54 1.206-1.207 1.206h-8.133c-.666 0-1.206.54-1.206 1.206v2.412c0 .666.54 1.206 1.206 1.206h12.958c.666 0 1.206-.54 1.206-1.206v-15.26c0-.666.54-1.206 1.206-1.206l41.602-.002c.64 0 1.254.254 1.706.707l16.261 16.261c.452.452 1.066.706 1.706.706h14.711c.666 0 1.206-.54 1.206-1.206v-2.412c0-.666-.54-1.206-1.206-1.206h-12.714c-.639 0-1.253-.255-1.705-.707l-10.084-10.084c-.76-.76-.222-2.059.852-2.059l22.719-.001c.666 0 1.206-.54 1.206-1.206v-1.206c0-27.737-22.485-50.223-50.223-50.223h-39.596c-.579 0-1.063-.415-1.176-.983-.554-2.803-1.513-5.514-2.866-8.036-.321-.598-1.092-.793-1.675-.446l-2.075 1.234c-.56.333-.738 1.042-.433 1.618 1.833 3.459 2.796 7.335 2.796 11.283 0 13.741-11.548 24.835-25.449 24.087-12.69-.684-22.85-11.484-22.796-24.192.049-11.358 7.996-20.865 18.615-23.358 1.411-.286 2.854-.487 4.326-.592.655-.048 1.161-.59 1.135-1.246l-.083-2.114z" mask="url(#b)"/>
    <path fill="#FFF" d="M138.8584 91.1871c0 1.665-1.35 3.015-3.015 3.015-1.666 0-3.016-1.35-3.016-3.015s1.35-3.015 3.016-3.015c1.665 0 3.015 1.35 3.015 3.015m115.3734-23.7746l-6.156-6.496c-.185-.195-.288-.453-.288-.721v-7.095c0-.949 1.158-1.41 1.811-.722l1.283 1.354c.398.42 1.062.438 1.483.039l1.827-1.731c.421-.399.439-1.063.04-1.483l-6.156-6.496c-.185-.195-.288-.453-.288-.722v-7.095c0-.948 1.158-1.41 1.811-.722l1.283 1.354c.398.421 1.062.439 1.483.04l1.827-1.732c.421-.398.439-1.062.04-1.483l-8.165-8.615c-.42-.443-1.127-.436-1.537.015l-7.85 8.619c-.39.429-.359 1.092.07 1.482l1.862 1.696c.428.39 1.092.359 1.482-.069l1.252-1.376c.646-.709 1.825-.252 1.825.707v6.882c0 .261-.097.513-.273.706l-6.218 6.828c-.39.428-.359 1.092.07 1.482l1.862 1.695c.428.391 1.092.36 1.482-.069l1.252-1.375c.646-.709 1.825-.253 1.825.706v6.883c0 .261-.097.513-.273.706l-6.218 6.827c-.39.428-.359 1.092.07 1.482l1.862 1.696c.428.39 1.092.359 1.482-.069l1.252-1.376c.646-.709 1.825-.252 1.825.706v59.501c0 .579.47 1.049 1.049 1.049h2.519c.579 0 1.049-.47 1.049-1.049v-59.416c0-.948 1.158-1.41 1.811-.722l1.283 1.354c.398.421 1.062.438 1.483.04l1.827-1.732c.421-.398.439-1.062.04-1.483m14.2512 17.6659l1.283 1.354c.399.42 1.063.438 1.483.04l1.828-1.732c.42-.399.438-1.063.039-1.483l-8.165-8.616c-.419-.442-1.126-.435-1.537.016l-7.849 8.619c-.39.428-.359 1.092.069 1.482l1.862 1.696c.429.39 1.092.359 1.482-.07l1.253-1.375c.645-.709 1.825-.252 1.825.706v6.883c0 .261-.098.513-.274.706l-6.217 6.827c-.39.429-.359 1.092.069 1.482l1.862 1.696c.429.39 1.092.359 1.482-.069l1.253-1.376c.645-.709 1.825-.252 1.825.707v26.8c0 .579.469 1.049 1.049 1.049h2.518c.58 0 1.049-.47 1.049-1.049v-26.716c0-.948 1.159-1.41 1.811-.722l1.283 1.354c.399.421 1.063.439 1.483.04l1.828-1.732c.42-.398.438-1.062.039-1.483l-6.156-6.496c-.185-.194-.288-.453-.288-.721v-7.095c0-.949 1.159-1.41 1.811-.722M44.0662 174.4515v10.74c0 .899.729 1.627 1.627 1.627h2.473c2.408 0 3.71-1.106 3.71-4.491v-3.971c0-4.23-1.367-5.532-4.621-5.532h-1.562c-.898 0-1.627.728-1.627 1.627m0-18.55v8.787c0 .899.729 1.627 1.627 1.627h1.171c2.668 0 4.296-1.172 4.296-4.817v-2.538c0-3.255-1.106-4.686-3.645-4.686h-1.822c-.898 0-1.627.728-1.627 1.627m14.254 2.343v1.627c0 3.599-.844 6.2-2.681 7.891-.747.688-.615 1.855.18 2.485 2.284 1.811 3.217 4.762 3.217 8.565v3.71c0 7.03-3.71 10.805-10.87 10.805h-9.633c-.899 0-1.627-.729-1.627-1.627v-42.309c0-.898.728-1.627 1.627-1.627h9.177c7.421 0 10.61 3.45 10.61 10.48m14.3157-10.4798c.899 0 1.627.729 1.627 1.627v33.521c0 3.255 1.433 4.426 3.71 4.426 2.278 0 3.711-1.171 3.711-4.426v-33.521c0-.898.728-1.627 1.627-1.627h3.515c.898 0 1.627.729 1.627 1.627v33.066c0 7.289-3.645 11.455-10.675 11.455-7.03 0-10.675-4.166-10.675-11.455v-33.066c0-.898.729-1.627 1.627-1.627h3.906zm37.1627 20.1776h6.77c.898 0 1.627.729 1.627 1.627v12.823c0 7.29-3.646 11.456-10.675 11.456-7.03 0-10.675-4.166-10.675-11.456v-23.692c0-7.29 3.645-11.456 10.675-11.456 7.029 0 10.675 4.166 10.675 11.456v2.798c0 .899-.729 1.627-1.627 1.627h-3.515c-.899 0-1.628-.728-1.628-1.627v-3.254c0-3.255-1.432-4.491-3.71-4.491-2.279 0-3.71 1.236-3.71 4.491v24.603c0 3.255 1.431 4.427 3.71 4.427 2.278 0 3.71-1.172 3.71-4.427v-6.769c0-.898-.728-1.627-1.627-1.627s-1.627-.728-1.627-1.627v-3.255c0-.898.728-1.627 1.627-1.627m34.0806 6.5092v10.74c0 .899.729 1.627 1.627 1.627h2.473c2.408 0 3.71-1.106 3.71-4.491v-3.971c0-4.23-1.367-5.532-4.621-5.532h-1.562c-.898 0-1.627.728-1.627 1.627m0-18.55v8.787c0 .899.729 1.627 1.627 1.627h1.171c2.668 0 4.296-1.172 4.296-4.817v-2.538c0-3.255-1.106-4.686-3.645-4.686h-1.822c-.898 0-1.627.728-1.627 1.627m14.254 2.343v1.627c0 3.599-.844 6.2-2.681 7.891-.747.688-.615 1.855.18 2.485 2.284 1.811 3.217 4.762 3.217 8.565v3.71c0 7.03-3.71 10.805-10.87 10.805h-9.633c-.899 0-1.627-.729-1.627-1.627v-42.309c0-.898.728-1.627 1.627-1.627h9.177c7.421 0 10.61 3.45 10.61 10.48m15.6827 24.6033c0 3.255 1.431 4.491 3.71 4.491 2.278 0 3.71-1.236 3.71-4.491v-24.603c0-3.255-1.432-4.492-3.71-4.492-2.279 0-3.71 1.237-3.71 4.492v24.603zm-7.16-24.148c0-7.29 3.841-11.455 10.87-11.455 7.03 0 10.869 4.165 10.869 11.455v23.692c0 7.291-3.839 11.456-10.869 11.456-7.029 0-10.87-4.165-10.87-11.456v-23.692zm35.6662-10.9351c.899 0 1.627.729 1.627 1.627v33.521c0 3.255 1.433 4.426 3.71 4.426 2.278 0 3.711-1.171 3.711-4.426v-33.521c0-.898.728-1.627 1.627-1.627h3.515c.898 0 1.627.729 1.627 1.627v33.066c0 7.289-3.645 11.455-10.675 11.455-7.03 0-10.675-4.166-10.675-11.455v-33.066c0-.898.729-1.627 1.627-1.627h3.906zm31.1744 24.8216v19.114c0 .898-.729 1.627-1.627 1.627h-3.189c-.899 0-1.627-.729-1.627-1.627v-42.308c0-.899.728-1.628 1.627-1.628h6.108c.736 0 1.38.494 1.572 1.204l3.831 14.209c.495 1.835 3.198 1.477 3.198-.424v-13.361c0-.899.729-1.628 1.628-1.628h3.124c.898 0 1.627.729 1.627 1.628v42.308c0 .898-.729 1.627-1.627 1.627h-4.482c-.735 0-1.379-.493-1.57-1.203l-5.395-19.962c-.496-1.835-3.198-1.477-3.198.424m25.0547-24.8216h18.876c.899 0 1.627.729 1.627 1.627v3.255c0 .899-.728 1.627-1.627 1.627h-4.231c-.898 0-1.627.729-1.627 1.627v35.799c0 .899-.728 1.628-1.627 1.628h-3.905c-.898 0-1.627-.729-1.627-1.628v-35.799c0-.898-.728-1.627-1.627-1.627h-4.232c-.899 0-1.627-.728-1.627-1.627v-3.255c0-.898.728-1.627 1.627-1.627m34.3607 30.2351l-8.359-28.145c-.31-1.043.472-2.09 1.56-2.09h4.05c.739 0 1.386.498 1.574 1.213l3.574 13.575c.426 1.617 2.722 1.617 3.147 0l3.575-13.575c.188-.715.835-1.213 1.574-1.213h3.399c1.088 0 1.87 1.047 1.56 2.09l-8.359 28.145c-.045.15-.067.306-.067.463v13.237c0 .899-.729 1.628-1.628 1.628h-3.905c-.899 0-1.628-.729-1.628-1.628v-13.237c0-.157-.022-.313-.067-.463m-156.4977 49.4888c1.122 0 2.139-.368 2.139-1.367v-4.42c0-1.017-1.017-1.437-2.139-1.437h-.922c-.585 0-1.06.474-1.06 1.059v5.106c0 .585.475 1.059 1.06 1.059h.922zm0-9.82c2.455 0 4.734 1.228 4.734 4.033v4.42c0 2.787-2.279 3.963-4.734 3.963h-3.501c-.585 0-1.06-.475-1.06-1.06v-10.296c0-.585.475-1.06 1.06-1.06h3.501zm10.7392 12.4156h-.46c-.585 0-1.06-.474-1.06-1.059v-10.297c0-.585.475-1.059 1.06-1.059h.46c.585 0 1.059.474 1.059 1.059v10.297c0 .585-.474 1.059-1.059 1.059m6.4047-3.0911c.41-.315.961-.256 1.366.066 1.393 1.106 3.806.919 3.895-.57.053-1.069-1.103-1.315-2.384-1.49-1.946-.298-3.963-1.21-3.928-3.946.14-2.35 2.298-3.577 4.524-3.577 1.194 0 2.348.345 3.287 1.156.536.463.497 1.308-.091 1.702l-.359.24c-.412.276-.938.202-1.318-.116-.443-.371-.964-.545-1.519-.545-.982 0-1.842.369-1.893 1.228v.018c.017 1.016 1.052 1.157 2.139 1.385 2.157.403 4.262 1.192 4.139 4.12-.211 2.333-2.455 3.595-4.718 3.595-1.271 0-2.563-.49-3.569-1.469-.449-.437-.368-1.186.13-1.568l.299-.229zm19.9506.0706c.587.329.751 1.14.281 1.622-1.024 1.052-2.341 1.574-3.625 1.574-2.403 0-4.875-1.386-4.875-4.121v-4.525c0-2.717 2.419-4.12 4.875-4.12 1.263 0 2.631.495 3.579 1.548.465.516.339 1.332-.272 1.663l-.277.151c-.42.228-.918.121-1.269-.204-.53-.491-1.256-.716-1.954-.703-1.105.017-2.123.631-2.123 1.665v4.525c0 1.017.982 1.613 2.07 1.631.697.013 1.443-.22 1.98-.737.327-.315.797-.424 1.192-.203l.418.234zm7.1928-.9254c0 1.052 1.262 1.561 2.525 1.561 1.264-.018 2.507-.526 2.507-1.561v-4.506c0-1.07-1.262-1.596-2.524-1.579-1.246 0-2.508.544-2.508 1.579v4.506zm-2.561-4.506c0-2.771 2.544-4.156 5.086-4.138 2.543 0 5.085 1.385 5.085 4.138v4.506c0 2.754-2.542 4.139-5.085 4.139-2.542 0-5.086-1.368-5.086-4.139v-4.506zm19.5338 1.5602c1.139 0 1.859-.456 1.859-1.543 0-1.052-.773-1.421-1.859-1.385h-1.238c-.585 0-1.059.474-1.059 1.06v.809c0 .585.474 1.059 1.059 1.059h1.238zm-1.385 2.35h-.912v3.482c0 .585-.475 1.06-1.06 1.06h-.477c-.585 0-1.06-.475-1.06-1.06v-10.296c0-.585.475-1.059 1.06-1.059h3.834c2.489 0 4.366 1.139 4.436 3.963 0 1.688-.568 2.731-1.589 3.302-.573.32-.74 1.063-.335 1.579l1.457 1.857c.545.696.05 1.714-.834 1.714h-.477c-.328 0-.637-.152-.837-.41l-3.206-4.132zm14.7621 1.9461c1.122 0 2.139-.368 2.139-1.367v-4.42c0-1.017-1.017-1.437-2.139-1.437h-.922c-.585 0-1.06.474-1.06 1.059v5.106c0 .585.475 1.059 1.06 1.059h.922zm0-9.82c2.455 0 4.734 1.228 4.734 4.033v4.42c0 2.787-2.279 3.963-4.734 3.963h-3.501c-.585 0-1.06-.475-1.06-1.06v-10.296c0-.585.475-1.06 1.06-1.06h3.501zm-54.1988 29.8257c-.269-.365-.798-.404-1.13-.094-.615.574-1.097 1.172-1.445 1.795-.462.827-.693 1.708-.693 2.642 0 1.533.509 2.804 1.523 3.815 1.015 1.01 2.309 1.514 3.883 1.514.427 0 .873-.06 1.341-.182.466-.122.923-.3 1.371-.533.273-.153.499-.287.677-.404.178-.116.346-.241.509-.373l-6.036-8.18zm1.514-2.236l5.657 7.601c.354.477 1.083.367 1.305-.184.1-.246.185-.51.256-.792.192-.762.29-1.671.29-2.726 0-.144-.009-.466-.019-.779-.014-.424.325-.774.749-.774h.941c.425 0 .765.351.751.776-.049 1.437-.232 2.97-.549 4.013-.314 1.032-.764 1.945-1.349 2.74-.201.273-.216.639-.014.911l1.357 1.83c.367.494.014 1.196-.602 1.196h-1.368c-.242 0-.469-.117-.61-.314l-.509-.712c-.238-.332-.703-.419-1.034-.179-.67.486-1.37.862-2.1 1.129-.944.345-1.955.518-3.03.518-2.192 0-4.005-.683-5.436-2.049-1.432-1.365-2.147-3.083-2.147-5.155 0-1.39.35-2.679 1.049-3.867.606-1.026 1.475-1.987 2.61-2.883.295-.234.397-.647.201-.969-.331-.542-.587-1.075-.769-1.599-.244-.701-.366-1.412-.366-2.133 0-1.523.505-2.725 1.515-3.609 1.01-.883 2.393-1.325 4.15-1.325.66 0 1.322.061 1.987.184.498.09 1.008.213 1.532.367.316.093.531.391.531.72v.97c0 .538-.553.905-1.044.685-.265-.118-.534-.218-.806-.299-.635-.188-1.301-.281-2.003-.281-.984 0-1.761.231-2.329.693-.569.461-.852 1.083-.852 1.865 0 .599.146 1.226.44 1.881.296.655.832 1.504 1.615 2.55zm26.8164 13.186c-1.062 0-1.924-.861-1.924-1.924 0-1.062.862-1.924 1.924-1.924 1.062 0 1.924.862 1.924 1.924 0 1.063-.862 1.924-1.924 1.924m-3.2528-12.9506c.587.329.751 1.14.281 1.622-1.024 1.052-2.34 1.574-3.625 1.574-2.403 0-4.875-1.386-4.875-4.121v-4.525c0-2.717 2.419-4.12 4.875-4.12 1.264 0 2.631.495 3.579 1.548.465.516.339 1.332-.271 1.663l-.278.15c-.421.228-.918.122-1.269-.203-.53-.491-1.256-.716-1.954-.703-1.105.017-2.123.631-2.123 1.665v4.525c0 1.017.982 1.613 2.07 1.631.697.013 1.443-.221 1.98-.738.327-.314.797-.423 1.192-.202l.418.234zm7.1926-.9255c0 1.052 1.262 1.561 2.525 1.561 1.264-.018 2.507-.526 2.507-1.561v-4.506c0-1.07-1.262-1.596-2.524-1.579-1.246 0-2.508.544-2.508 1.579v4.506zm-2.561-4.506c0-2.771 2.544-4.156 5.086-4.138 2.543 0 5.085 1.385 5.085 4.138v4.506c0 2.754-2.542 4.139-5.085 4.139-2.542 0-5.086-1.368-5.086-4.139v-4.506z" mask="url(#b)"/>
    <g opacity=".1" mask="url(#b)">
      <path fill="#FFF" d="M105.5094 142.7589c-1.309 0-2.369 1.059-2.369 2.369v83.01c0 1.309 1.06 2.368 2.369 2.368 1.309 0 2.369-1.059 2.369-2.368v-83.01c0-1.31-1.06-2.369-2.369-2.369"/>
      <g transform="translate(103 238.523)">
        <mask id="d" fill="#fff">
          <use xlink:href="#c"/>
        </mask>
        <path fill="#FFF" d="M2.5094.2684c-1.309 0-2.369 1.059-2.369 2.369v64.862c0 1.309 1.06 2.368 2.369 2.368 1.309 0 2.369-1.059 2.369-2.368V2.6374c0-1.31-1.06-2.369-2.369-2.369" mask="url(#d)"/>
      </g>
      <g transform="translate(117 22.523)">
        <mask id="f" fill="#fff">
          <use xlink:href="#e"/>
        </mask>
        <path fill="#FFF" d="M27.2064 216.3354c-2.314-4.817-5.4-9.282-9.289-13.173-8.158-8.155-12.652-19.004-12.652-30.546v-26.667c2.316 4.825 5.407 9.296 9.303 13.192 8.148 8.151 12.638 18.99 12.638 30.518v26.676zm-21.941-91.09v-153.612c0-1.309-1.06-2.368-2.369-2.368-1.309 0-2.368 1.059-2.368 2.368v200.983c0 12.805 4.986 24.842 14.04 33.896 8.148 8.151 12.638 18.99 12.638 30.518v46.468c0 1.31 1.059 2.369 2.369 2.369 1.309 0 2.368-1.059 2.368-2.369v-93.839c0-12.791-4.982-24.819-14.026-33.868-8.158-8.155-12.652-19.004-12.652-30.546z" mask="url(#f)"/>
      </g>
      <g transform="translate(130 33.523)">
        <mask id="h" fill="#fff">
          <use xlink:href="#g"/>
        </mask>
        <path fill="#FFF" d="M26.2133-29.5225c-1.309 0-2.369 1.059-2.369 2.369v87.117c0 5.029-4.091 9.118-9.12 9.118-5.028 0-9.12-4.089-9.12-9.118v-87.117c0-1.31-1.059-2.369-2.369-2.369-1.309 0-2.368 1.059-2.368 2.369v87.117c0 7.638 6.217 13.855 13.857 13.855s13.858-6.217 13.858-13.855v-87.117c0-1.31-1.06-2.369-2.369-2.369" mask="url(#h)"/>
      </g>
      <g transform="translate(165 42.523)">
        <mask id="j" fill="#fff">
          <use xlink:href="#i"/>
        </mask>
        <path fill="#FFF" d="M3.056-38.5225c-1.309 0-2.369 1.059-2.369 2.369v82.024c0 1.309 1.06 2.368 2.369 2.368 1.309 0 2.369-1.059 2.369-2.368v-82.024c0-1.31-1.06-2.369-2.369-2.369" mask="url(#j)"/>
      </g>
      <path fill="#FFF" d="M67.437 256.6757c6.095 0 11.052-4.959 11.052-11.052v-26.845c0-6.092-4.957-11.051-11.052-11.051-1.309 0-2.369 1.059-2.369 2.368s1.06 2.369 2.369 2.369c3.481 0 6.315 2.831 6.315 6.314v26.845c0 3.484-2.834 6.315-6.315 6.315-3.483 0-6.317-2.831-6.317-6.315v-26.845c0-1.309-1.059-2.368-2.368-2.368-1.31 0-2.369 1.059-2.369 2.368v26.845c0 6.093 4.959 11.052 11.054 11.052"/>
      <path fill="#FFF" d="M72.5673 192.725c-8.924 0-16.184 7.263-16.184 16.187 0 1.309 1.059 2.368 2.368 2.368s2.369-1.059 2.369-2.368c0-6.315 5.135-11.45 11.447-11.45 6.312 0 11.449 5.135 11.449 11.45v10.265c0 1.309 1.06 2.368 2.369 2.368 1.309 0 2.369-1.059 2.369-2.368v-10.265c0-8.924-7.261-16.187-16.187-16.187m13.818 37.1103c-1.309 0-2.369 1.059-2.369 2.369v24.869c0 9.141-7.438 16.58-16.579 16.58-9.141 0-16.58-7.439-16.58-16.58v-9.33c0-1.31-1.059-2.369-2.369-2.369-1.309 0-2.368 1.059-2.368 2.369v9.33c0 11.755 9.562 21.317 21.317 21.317 11.754 0 21.317-9.562 21.317-21.317v-24.869c0-1.31-1.06-2.369-2.369-2.369"/>
      <g transform="translate(46 117.523)">
        <mask id="l" fill="#fff">
          <use xlink:href="#k"/>
        </mask>
        <path fill="#FFF" d="M2.4887 116.3925c1.309 0 2.369-1.059 2.369-2.369V-2.8535c0-1.309-1.06-2.369-2.369-2.369-1.309 0-2.369 1.06-2.369 2.369v116.877c0 1.31 1.06 2.369 2.369 2.369" mask="url(#l)"/>
      </g>
      <g transform="translate(57 21.523)">
        <mask id="n" fill="#fff">
          <use xlink:href="#m"/>
        </mask>
        <path fill="#FFF" d="M32.7624-29.7347c-1.309 0-2.369 1.059-2.369 2.369v171.477c0 7.037-5.724 12.764-12.763 12.764-7.038 0-12.765-5.727-12.765-12.764v-78.948c0-1.309-1.06-2.369-2.369-2.369-1.309 0-2.369 1.06-2.369 2.369v78.948c0 9.65 7.853 17.501 17.503 17.501s17.501-7.851 17.501-17.501v-171.477c0-1.31-1.06-2.369-2.369-2.369" mask="url(#n)"/>
      </g>
      <g transform="translate(67 25.523)">
        <mask id="p" fill="#fff">
          <use xlink:href="#o"/>
        </mask>
        <path fill="#FFF" d="M7.6305 142.3508c3.879 0 7.036-3.155 7.036-7.036v-45.072c0-1.309-1.059-2.369-2.368-2.369s-2.369 1.06-2.369 2.369v45.072c0 1.267-1.031 2.299-2.299 2.299-1.27 0-2.301-1.032-2.301-2.299v-166.681c0-1.309-1.06-2.368-2.369-2.368-1.309 0-2.369 1.059-2.369 2.368v166.681c0 3.881 3.158 7.036 7.039 7.036" mask="url(#p)"/>
      </g>
      <g transform="translate(103 18.523)">
        <mask id="r" fill="#fff">
          <use xlink:href="#q"/>
        </mask>
        <path fill="#FFF" d="M2.5094-26.7347c-1.309 0-2.369 1.059-2.369 2.369v137.661c0 1.309 1.06 2.368 2.369 2.368 1.309 0 2.369-1.059 2.369-2.368v-137.661c0-1.31-1.06-2.369-2.369-2.369" mask="url(#r)"/>
      </g>
      <path fill="#FFF" d="M48.4887 104.4041c1.309 0 2.369-1.059 2.369-2.369V-5.8429c0-1.309-1.06-2.369-2.369-2.369-1.309 0-2.369 1.06-2.369 2.369v107.878c0 1.31 1.06 2.369 2.369 2.369"/>
      <g transform="translate(76 25.523)">
        <mask id="t" fill="#fff">
          <use xlink:href="#s"/>
        </mask>
        <path fill="#FFF" d="M3.2982 72.3445c1.309 0 2.369-1.059 2.369-2.369v-101.342c0-1.309-1.06-2.368-2.369-2.368-1.309 0-2.369 1.059-2.369 2.368v101.342c0 1.31 1.06 2.369 2.369 2.369" mask="url(#t)"/>
      </g>
      <g transform="translate(29 117.523)">
        <mask id="v" fill="#fff">
          <use xlink:href="#u"/>
        </mask>
        <path fill="#FFF" d="M2.4694-125.7347c-1.309 0-2.369 1.059-2.369 2.369v164.737c0 1.309 1.06 2.369 2.369 2.369 1.309 0 2.369-1.06 2.369-2.369v-164.737c0-1.31-1.06-2.369-2.369-2.369" mask="url(#v)"/>
      </g>
      <g transform="translate(29 169.523)">
        <mask id="x" fill="#fff">
          <use xlink:href="#w"/>
        </mask>
        <path fill="#FFF" d="M2.4694.192c-1.309 0-2.369 1.059-2.369 2.369v133.938c0 1.309 1.06 2.369 2.369 2.369 1.309 0 2.369-1.06 2.369-2.369V2.561c0-1.31-1.06-2.369-2.369-2.369" mask="url(#x)"/>
      </g>
      <g transform="translate(17 117.523)">
        <mask id="z" fill="#fff">
          <use xlink:href="#y"/>
        </mask>
        <path fill="#FFF" d="M2.6267-125.7347c-1.309 0-2.369 1.059-2.369 2.369v311.865c0 1.309 1.06 2.368 2.369 2.368 1.309 0 2.369-1.059 2.369-2.368v-311.865c0-1.31-1.06-2.369-2.369-2.369" mask="url(#z)"/>
      </g>
      <g transform="translate(165 102.523)">
        <mask id="B" fill="#fff">
          <use xlink:href="#A"/>
        </mask>
        <path fill="#FFF" d="M3.056.2158c-1.309 0-2.369 1.059-2.369 2.369v200.914c0 1.309 1.06 2.369 2.369 2.369 1.309 0 2.369-1.06 2.369-2.369V2.5848c0-1.31-1.06-2.369-2.369-2.369" mask="url(#B)"/>
      </g>
      <path fill="#FFF" d="M144.7245 159.0056c-5.029 0-9.12-4.089-9.12-9.118v-.135c2.443 2.155 5.613 3.507 9.12 3.507 3.507 0 6.677-1.352 9.12-3.507v.135c0 5.029-4.091 9.118-9.12 9.118m9.071-19.12c-.258 4.799-4.209 8.637-9.071 8.637s-8.813-3.838-9.071-8.637c.258-4.799 4.209-8.636 9.071-8.636s8.813 3.837 9.071 8.636m-9.071-19.119c5.029 0 9.12 4.089 9.12 9.118v.135c-2.443-2.156-5.613-3.507-9.12-3.507-3.507 0-6.677 1.351-9.12 3.507v-.135c0-5.029 4.091-9.118 9.12-9.118m0-4.737c-7.64 0-13.857 6.217-13.857 13.855v9.516c0 .166.043.321.049.485-.006.165-.049.32-.049.486v9.516c0 7.638 6.217 13.855 13.857 13.855s13.857-6.217 13.857-13.855v-9.516c0-.166-.043-.321-.049-.486.006-.164.049-.319.049-.485v-9.516c0-7.638-6.217-13.855-13.857-13.855m36.754 65.7347c-1.309 0-2.369 1.059-2.369 2.369v66.986c0 1.31 1.06 2.369 2.369 2.369 1.309 0 2.369-1.059 2.369-2.369v-66.986c0-1.31-1.06-2.369-2.369-2.369"/>
      <g transform="translate(179 42.523)">
        <mask id="D" fill="#fff">
          <use xlink:href="#C"/>
        </mask>
        <path fill="#FFF" d="M2.4785-38.5225c-1.309 0-2.369 1.059-2.369 2.369v152.525c0 1.309 1.06 2.369 2.369 2.369 1.309 0 2.369-1.06 2.369-2.369v-152.525c0-1.31-1.06-2.369-2.369-2.369" mask="url(#D)"/>
      </g>
      <g transform="translate(190 44.523)">
        <mask id="F" fill="#fff">
          <use xlink:href="#E"/>
        </mask>
        <path fill="#FFF" d="M3.3212-40.5225c-1.309 0-2.369 1.059-2.369 2.369v133.012c0 1.31 1.06 2.369 2.369 2.369 1.309 0 2.369-1.059 2.369-2.369v-133.012c0-1.31-1.06-2.369-2.369-2.369" mask="url(#F)"/>
      </g>
      <path fill="#FFF" d="M193.3212 153.26c-1.309 0-2.369 1.059-2.369 2.369v50.849c0 1.309 1.06 2.369 2.369 2.369 1.309 0 2.369-1.06 2.369-2.369v-50.849c0-1.31-1.06-2.369-2.369-2.369"/>
      <g transform="translate(190 223.523)">
        <mask id="H" fill="#fff">
          <use xlink:href="#G"/>
        </mask>
        <path fill="#FFF" d="M3.3212.3262c-1.309 0-2.369 1.059-2.369 2.369v79.804c0 1.309 1.06 2.368 2.369 2.368 1.309 0 2.369-1.059 2.369-2.368V2.6952c0-1.31-1.06-2.369-2.369-2.369" mask="url(#H)"/>
      </g>
      <g transform="translate(117 240.523)">
        <mask id="J" fill="#fff">
          <use xlink:href="#I"/>
        </mask>
        <path fill="#FFF" d="M2.8965.3779c-1.309 0-2.369 1.059-2.369 2.369v62.752c0 1.309 1.06 2.369 2.369 2.369 1.309 0 2.369-1.06 2.369-2.369V2.7469c0-1.31-1.06-2.369-2.369-2.369" mask="url(#J)"/>
      </g>
      <g transform="translate(131 255.523)">
        <mask id="L" fill="#fff">
          <use xlink:href="#K"/>
        </mask>
        <path fill="#FFF" d="M2.9319.4958c-1.309 0-2.369 1.059-2.369 2.369v47.634c0 1.309 1.06 2.369 2.369 2.369 1.309 0 2.369-1.06 2.369-2.369V2.8648c0-1.31-1.06-2.369-2.369-2.369" mask="url(#L)"/>
      </g>
      <path fill="#FFF" d="M156.2133 170.7373c-1.309 0-2.369 1.059-2.369 2.369v8.576c0 1.309 1.06 2.369 2.369 2.369 1.309 0 2.369-1.06 2.369-2.369v-8.576c0-1.31-1.06-2.369-2.369-2.369"/>
      <g transform="translate(206 184.523)">
        <mask id="N" fill="#fff">
          <use xlink:href="#M"/>
        </mask>
        <path fill="#FFF" d="M2.9134.9661c-1.309 0-2.369 1.059-2.369 2.369v118.164c0 1.309 1.06 2.368 2.369 2.368 1.309 0 2.369-1.059 2.369-2.368V3.3351c0-1.31-1.06-2.369-2.369-2.369" mask="url(#N)"/>
      </g>
      <g transform="translate(206 49.523)">
        <mask id="P" fill="#fff">
          <use xlink:href="#O"/>
        </mask>
        <path fill="#FFF" d="M2.9134-66.8207c-1.309 0-2.369 1.059-2.369 2.369v88.164c0 1.309 1.06 2.368 2.369 2.368 1.309 0 2.369-1.059 2.369-2.368v-88.164c0-1.31-1.06-2.369-2.369-2.369" mask="url(#P)"/>
      </g>
      <path fill="#FFF" d="M224.9545 103.0938c1.086-6.489 3.614-12.591 7.438-17.949-1.086 6.49-3.615 12.593-7.438 17.949m-3.899 9.464c.006.001.012.001.017.003.27.107.56.175.868.175.169 0 .316-.063.475-.096.144-.029.292-.03.429-.086.291-.121.554-.294.772-.513l.005-.004c9.125-9.127 14.154-21.261 14.154-34.168 0-.199-.067-.375-.113-.56-.027-.109-.023-.224-.067-.33-.352-.867-1.196-1.478-2.189-1.478-.657 0-1.251.268-1.68.701l-.004.002c-9.125 9.122-14.151 21.257-14.151 34.163 0 .996.616 1.84 1.484 2.191"/>
      <g transform="translate(219 10.523)">
        <mask id="R" fill="#fff">
          <use xlink:href="#Q"/>
        </mask>
        <path fill="#FFF" d="M5.3089 230.0014v-11.85c0-11.639 4.534-22.585 12.773-30.828 3.948-3.944 7.076-8.476 9.414-13.369v11.847c0 11.639-4.534 22.584-12.773 30.823-3.948 3.949-7.076 8.484-9.414 13.377zm0-67.9c0-11.643 4.534-22.584 12.773-30.823 3.948-3.948 7.076-8.483 9.414-13.375v35.256c0 11.644-4.534 22.589-12.773 30.824-3.948 3.948-7.076 8.484-9.414 13.377v-35.259zm12.773-45.034c3.499-3.5 6.382-7.448 8.624-11.706-1.621 8.499-5.726 16.32-11.983 22.577-3.5 3.499-6.383 7.447-8.625 11.706 1.62-8.499 5.726-16.319 11.984-22.577zm14.151 68.734v-230.101c-2.096-2.366-4.737-.922-4.737 1.146v126.052c0 11.644-4.534 22.59-12.773 30.829-9.125 9.122-14.151 21.256-14.151 34.163v147.476c0 1.239.893 2.367 2.126 2.489 1.418.141 2.611-.967 2.611-2.356v-44.711c0-11.64 4.534-22.58 12.773-30.824 9.127-9.127 14.151-21.257 14.151-34.163z" mask="url(#R)"/>
      </g>
      <g transform="translate(263 22.523)">
        <mask id="T" fill="#fff">
          <use xlink:href="#S"/>
        </mask>
        <path fill="#FFF" d="M3.3505-39.8926c-1.309 0-2.369 1.059-2.369 2.369v321.023c0 1.309 1.06 2.368 2.369 2.368 1.309 0 2.369-1.059 2.369-2.368v-321.023c0-1.31-1.06-2.369-2.369-2.369" mask="url(#T)"/>
      </g>
      <g transform="translate(279 158.523)">
        <mask id="V" fill="#fff">
          <use xlink:href="#U"/>
        </mask>
        <path fill="#FFF" d="M3.3381.4826c-1.309 0-2.369 1.059-2.369 2.369v144.647c0 1.31 1.06 2.369 2.369 2.369 1.309 0 2.369-1.059 2.369-2.369V2.8516c0-1.31-1.06-2.369-2.369-2.369" mask="url(#V)"/>
      </g>
      <g transform="translate(279 65.523)">
        <mask id="X" fill="#fff">
          <use xlink:href="#W"/>
        </mask>
        <path fill="#FFF" d="M.9696-39.0638v117.527c0 1.239.893 2.367 2.126 2.489 1.418.141 2.611-.967 2.611-2.356v-116.515c0-2.067-2.642-3.511-4.737-1.145" mask="url(#X)"/>
      </g>
      <g transform="translate(233 255.523)">
        <mask id="Z" fill="#fff">
          <use xlink:href="#Y"/>
        </mask>
        <path fill="#FFF" d="M2.4021.7133c-1.309 0-2.369 1.059-2.369 2.369v47.417c0 1.309 1.06 2.368 2.369 2.368 1.309 0 2.369-1.059 2.369-2.368V3.0823c0-1.31-1.06-2.369-2.369-2.369" mask="url(#Z)"/>
      </g>
      <g transform="translate(243 234.523)">
        <mask id="ab" fill="#fff">
          <use xlink:href="#aa"/>
        </mask>
        <path fill="#FFF" d="M7.3628.7726c-3.918 0-7.106 3.187-7.106 7.106v61.17c0 1.309 1.06 2.369 2.369 2.369 1.309 0 2.368-1.06 2.368-2.369v-61.17c0-1.305 1.064-2.369 2.369-2.369 1.305 0 2.369 1.064 2.369 2.369v61.17c0 1.309 1.059 2.369 2.368 2.369s2.369-1.06 2.369-2.369v-61.17c0-3.919-3.188-7.106-7.106-7.106" mask="url(#ab)"/>
      </g>
      <g transform="translate(296 117.523)">
        <mask id="ad" fill="#fff">
          <use xlink:href="#ac"/>
        </mask>
        <path fill="#FFF" d="M26.3951-4.1258c-14.526 0-26.341 11.815-26.341 26.336v32.475c0 1.309 1.06 2.369 2.369 2.369 1.309 0 2.368-1.06 2.368-2.369v-32.475c0-11.907 9.692-21.599 21.627-21.599 11.912 0 21.599 9.692 21.599 21.599v84.32c0 1.309 1.06 2.368 2.369 2.368 1.309 0 2.368-1.059 2.368-2.368v-84.32c0-14.521-11.815-26.336-26.359-26.336" mask="url(#ad)"/>
      </g>
      <g transform="translate(296 183.523)">
        <mask id="af" fill="#fff">
          <use xlink:href="#ae"/>
        </mask>
        <path fill="#FFF" d="M2.4229.7409c-1.309 0-2.369 1.059-2.369 2.369v41.608c0 1.309 1.06 2.369 2.369 2.369 1.309 0 2.369-1.06 2.369-2.369V3.1099c0-1.31-1.06-2.369-2.369-2.369" mask="url(#af)"/>
      </g>
      <g transform="translate(305 124.523)">
        <mask id="ah" fill="#fff">
          <use xlink:href="#ag"/>
        </mask>
        <path fill="#FFF" d="M29.2471 73.4387c0 6.532-5.311 11.843-11.843 11.843s-11.842-5.311-11.842-11.843v-56.438c0-6.532 5.31-11.843 11.842-11.843 6.532 0 11.843 5.311 11.843 11.843v56.438zM17.4041.4207c-9.141 0-16.58 7.439-16.58 16.58v56.438c0 9.141 7.439 16.58 16.58 16.58 9.141 0 16.58-7.439 16.58-16.58v-56.438c0-9.141-7.439-16.58-16.58-16.58z" mask="url(#ah)"/>
      </g>
      <path fill="#FFF" d="M336.6156 263.7999c-1.309 0-2.369 1.059-2.369 2.369v39.853c0 1.309 1.06 2.369 2.369 2.369 1.309 0 2.369-1.06 2.369-2.369v-39.853c0-1.31-1.06-2.369-2.369-2.369"/>
      <path fill="#FFF" d="M322.4044 219.8245c-9.141 0-16.58 7.439-16.58 16.58v69.617c0 1.31 1.06 2.369 2.369 2.369 1.309 0 2.368-1.059 2.368-2.369v-69.617c0-6.532 5.311-11.843 11.843-11.843 5.715 0 10.494 4.065 11.601 9.456-1.227-.624-2.593-1.009-4.061-1.009-4.986 0-9.043 4.057-9.043 9.044v63.969c0 1.31 1.059 2.369 2.368 2.369s2.369-1.059 2.369-2.369v-63.969c0-2.373 1.933-4.307 4.306-4.307 2.374 0 4.303 1.934 4.303 4.307v11.792c0 1.309 1.059 2.369 2.368 2.369s2.369-1.06 2.369-2.369v-17.44c0-9.141-7.439-16.58-16.58-16.58m1.7764-25.3046c0 .981-.796 1.776-1.776 1.776-.963 0-1.777-.814-1.777-1.776v-49.393c0-.962.814-1.776 1.777-1.776.98 0 1.776.796 1.776 1.776v49.393zm-1.776-55.906c-3.59 0-6.514 2.924-6.514 6.513v49.393c0 3.59 2.924 6.514 6.514 6.514 3.589 0 6.513-2.924 6.513-6.514v-49.393c0-3.589-2.924-6.513-6.513-6.513zm35.2825-112.1547v62.027c0 8.791-7.127 15.918-15.918 15.918h-5.667c-8.792 0-15.918-7.127-15.918-15.918v-62.027c-2.096-2.366-4.738-.922-4.738 1.145v60.882c0 11.407 9.248 20.655 20.656 20.655h5.667c11.407 0 20.655-9.248 20.655-20.655v-60.882c0-2.067-2.642-3.511-4.737-1.145"/>
      <path fill="#FFF" d="M337.3327 96.5815h3.206c7.018 0 12.708-5.689 12.708-12.708v-57.414c-2.096-2.367-4.737-.922-4.737 1.145v56.269c0 4.402-3.569 7.971-7.971 7.971h-3.206c-4.402 0-7.971-3.569-7.971-7.971v-57.414c-2.095-2.367-4.737-.922-4.737 1.145v56.269c0 7.019 5.69 12.708 12.708 12.708"/>
    </g>
  </g>
</svg>