<svg xmlns="http://www.w3.org/2000/svg" xmlns:xlink="http://www.w3.org/1999/xlink" version="1.1" id="Layer_1" x="0px" y="0px" style="enable-background:new 0 0 141.7 141.7;" xml:space="preserve" viewBox="17.9 46.9 105.84 47.93">
<style type="text/css">
	.st0{fill:#614EFA;}
</style>
<g>
	<path class="st0" d="M66.3,84.4h6.4c0.3,0,0.6-0.2,0.6-0.6V59.3c0-0.3-0.2-0.6-0.6-0.6h-6.4c-0.3,0-0.6,0.2-0.6,0.6v24.5   C65.7,84.2,66,84.4,66.3,84.4z"/>
	<path class="st0" d="M29.9,71.4l12-12c0.2-0.2,0.1-0.6-0.2-0.6H32c-0.1,0-0.2,0-0.2,0.1l-6.3,6.3V48.8c0-0.2-0.2-0.4-0.5-0.3   l-6.9,2.8c-0.1,0.1-0.2,0.2-0.2,0.3V84c0,0.3,0.2,0.6,0.6,0.6H25c0.3,0,0.6-0.2,0.6-0.6v-6.3l6.7,6.7c0.1,0.1,0.1,0.1,0.2,0.1h9.7   c0.3,0,0.4-0.4,0.2-0.6L29.9,71.4z"/>
	<path class="st0" d="M123.7,70.7c-0.4-6.3-5.6-11.4-11.9-11.9c-7.5-0.5-13.7,5.4-13.7,12.8l0,0v22.9c0,0.2,0.2,0.4,0.5,0.3l6.7-2.7   c0.2-0.1,0.3-0.3,0.3-0.5v-8.3c1.6,0.7,3.4,1.1,5.3,1.1C118.3,84.4,124.3,78.2,123.7,70.7z M111,76.9c-2.9,0-5.3-2.4-5.3-5.3   s2.4-5.3,5.3-5.3s5.3,2.4,5.3,5.3S113.9,76.9,111,76.9z"/>
	<path class="st0" d="M86,65L86,65c1.3,0,2.4,0.7,3.3,2c0.1,0.2,0.4,0.3,0.6,0.2l5.2-2.1c0.3-0.1,0.4-0.4,0.3-0.7   c-1.3-3.1-5.3-5.5-9.5-5.5c-5.5,0-9.9,3.5-9.9,7.8c0,2.3,1.3,4.3,3.2,5.6c1.7,1.2,3.6,1.9,5.6,2.4c0.1,0,0.1,0,0.2,0   c2.6,0.6,3,1.3,3,2c0,0.9-1.1,1.6-2.4,1.6c-1.4,0-2.6-0.9-3.6-2.3c-0.1-0.2-0.4-0.3-0.7-0.2l-5.1,2.1C76,78,75.9,78.3,76,78.6   c1.5,4,5.4,5.8,9.6,5.8c5.5,0,9.9-3.5,9.9-7.8c0-0.9-0.2-1.8-0.6-2.7c-0.4-0.8-1.3-2.5-3.9-3.7c-1.4-0.7-5.4-1.8-6.8-2.6   c-0.5-0.3-0.7-0.7-0.7-1.1C83.6,65.7,84.6,65,86,65z"/>
	<circle class="st0" cx="69.5" cy="51.6" r="4.7"/>
	<path class="st0" d="M62.8,58.8c0.2,0,0.4,0.2,0.3,0.5l-2.8,6.9c-0.1,0.1-0.2,0.2-0.3,0.2h-2c-2.9,0-5.3,2.4-5.3,5.3V84   c0,0.3-0.2,0.5-0.5,0.5h-6.4c-0.3,0-0.6-0.2-0.6-0.6V71.6c0-7.1,5.7-12.8,12.8-12.8H62.8z"/>
</g>
</svg>