<svg xmlns="http://www.w3.org/2000/svg" width="572" height="504" xmlns:xlink="http://www.w3.org/1999/xlink">
  <defs>
    <path id="a" d="M192.188 235.0815V.539H0v234.5425h192.188z"/>
    <path id="c" d="M.4098 353h68.746V.16019623H.4098V353z"/>
    <path id="e" d="M280.53 88.11315V176.226H0V.0003h280.53v88.11285z"/>
    <path id="g" d="M9.847 33.25v-33H.801v33h9.046z"/>
    <path id="i" d="M.848.25v33h9.3203v-33H.848z"/>
    <path id="k" d="M.4239 21.32h12.87V0H.4239z"/>
    <path id="m" d="M.6753 21.32h12.87V0H.6753z"/>
    <path id="o" d="M177.695 103.7662V.0462H.0001823v103.72H177.695z"/>
    <path id="q" d="M119.038263.853H.6567343v103.7197H119.038263V.853z"/>
    <path id="s" d="M63.106 37.0249V.1899H.00013376v36.835H63.106z"/>
    <path id="u" d="M3.983 11.8831V.1631H.7706v11.72H3.983z"/>
    <path id="w" d="M.123.1631v11.72h3.3101V.1631H.123z"/>
    <path id="y" d="M3.983 11.8233V.1033H.7706v11.72H3.983z"/>
    <path id="A" d="M.123.1033v11.72h3.3101V.1033H.123z"/>
    <path id="C" d="M9.847 33.25v-33H.801v33h9.046z"/>
    <path id="E" d="M.848.25v33h9.3203v-33H.848z"/>
    <path id="G" d="M.4239 25.986h12.87V0H.4239z"/>
    <path id="I" d="M.6753 25.986h12.87V0H.6753z"/>
    <path id="K" d="M9.847 33.2393v-33H.801v33h9.046z"/>
    <path id="M" d="M.848.2393v33h9.3203v-33H.848z"/>
    <path id="O" d="M177.695 104.6525V.9325H.0001823v103.72H177.695z"/>
  </defs>
  <g fill="none" fill-rule="evenodd">
    <g transform="translate(131 .46)">
      <mask id="b" fill="#fff">
        <use xlink:href="#a"/>
      </mask>
      <path fill="#3F4C76" d="M113.7325 235.0815h-35.277c-43.33 0-78.456-35.126-78.456-78.456v-77.631c0-43.33 35.126-78.456 78.456-78.456h35.277c43.33 0 78.456 35.126 78.456 78.456v77.631c0 43.33-35.126 78.456-78.456 78.456" mask="url(#b)"/>
    </g>
    <path fill="#3E4455" d="M264.5776 158.5337l-22.536 22.536c-2.518 2.518-6.823.738-6.829-2.823l-.113-80.233c-.003-2.209-1.796-3.997-4.005-3.994l-8 .011c-2.21.003-3.998 1.796-3.995 4.006l.053 37.222c.005 3.567-4.307 5.356-6.829 2.834l-2.842-2.842c-1.562-1.562-4.095-1.562-5.657 0l-5.657 5.657c-1.562 1.562-1.562 4.095 0 5.657l19.861 19.862c.749.748 1.17 1.763 1.172 2.822l.113 79.989c.005 3.566-4.307 5.356-6.829 2.834l-.425-.425c-1.562-1.562-4.095-1.562-5.657 0l-5.657 5.658c-1.562 1.562-1.562 4.094.001 5.656l17.443 17.444c.749.749 1.17 1.764 1.172 2.823l.312 221.233 16-.023-.413-292.297c-.001-1.063.42-2.082 1.172-2.834l39.459-39.459c1.562-1.562 1.562-4.094 0-5.657l-5.657-5.657c-1.562-1.562-4.095-1.562-5.657 0"/>
    <path fill="#47537B" d="M370.4473 276.6522h-18.579c-31.96 0-57.868-25.909-57.868-57.868v-83.741c0-11.621 9.421-21.043 21.043-21.043h92.229c11.622 0 21.043 9.422 21.043 21.043v83.741c0 31.959-25.908 57.868-57.868 57.868"/>
    <g transform="translate(325 151.072)">
      <mask id="d" fill="#fff">
        <use xlink:href="#c"/>
      </mask>
      <path fill="#5E6271" d="M67.9843 57.2712l-5.657-5.657c-1.562-1.563-4.095-1.563-5.657-.001l-6.594 6.594c-2.517 2.518-6.822.739-6.828-2.822l-.084-51.231c-.004-2.209-1.797-3.997-4.006-3.994l-8 .013c-2.21.004-3.998 1.797-3.994 4.007l.035 21.326c.006 3.567-4.307 5.357-6.829 2.835l-7.475-7.476c-1.562-1.563-4.095-1.563-5.657 0l-5.657 5.657c-1.562 1.562-1.562 4.095 0 5.657l24.502 24.503c.749.749 1.17 1.763 1.172 2.822l.482 293.496 16-.026-.433-263.703c-.002-1.063.42-2.083 1.171-2.835l23.509-23.508c1.562-1.562 1.562-4.095 0-5.657" mask="url(#d)"/>
    </g>
    <g transform="translate(128 329)">
      <mask id="f" fill="#fff">
        <use xlink:href="#e"/>
      </mask>
      <path fill="#161A29" d="M0 138.5113v-19.131c0-13.391 10.855-24.245 24.245-24.245s24.245 10.854 24.245 24.245v4.43c0 7.439 6.031 13.47 13.47 13.47 7.439 0 13.469-6.031 13.469-13.47v-55.743c0-12.299 9.971-22.27 22.271-22.27h.004c12.3 0 22.271 9.971 22.271 22.27v6.647c0 4.859 3.938 8.797 8.797 8.797 4.858 0 8.797-3.938 8.797-8.797v-31.25c0-24.005 19.459-43.464 43.463-43.464h.001c24.005 0 43.464 19.459 43.464 43.464v65.414c0 5.654 4.583 10.237 10.237 10.237s10.237-4.583 10.237-10.237v-7.543c0-9.819 7.96-17.78 17.78-17.78 9.819 0 17.779 7.961 17.779 17.78v74.891H0v-37.715z" mask="url(#f)"/>
    </g>
    <path fill="#5E6271" d="M55.848 503.466h70V352.984h-70"/>
    <path fill="#676B78" d="M90.9846 475.397c-3.539 0-6.435-2.896-6.435-6.435v-20.13c0-3.539 2.896-6.435 6.435-6.435 3.539 0 6.435 2.896 6.435 6.435v20.13c0 3.539-2.896 6.435-6.435 6.435"/>
    <g transform="translate(116 442.147)">
      <mask id="h" fill="#fff">
        <use xlink:href="#g"/>
      </mask>
      <path fill="#676B78" d="M7.236 33.25c-3.539 0-6.435-2.896-6.435-6.435V6.685C.801 3.146 3.697.25 7.236.25c3.539 0 6.435 2.896 6.435 6.435v20.13c0 3.539-2.896 6.435-6.435 6.435" mask="url(#h)"/>
    </g>
    <g transform="translate(55 442.147)">
      <mask id="j" fill="#fff">
        <use xlink:href="#i"/>
      </mask>
      <path fill="#676B78" d="M3.7333 33.25c-3.539 0-6.435-2.896-6.435-6.435V6.685c0-3.539 2.896-6.435 6.435-6.435 3.539 0 6.435 2.896 6.435 6.435v20.13c0 3.539-2.896 6.435-6.435 6.435" mask="url(#j)"/>
    </g>
    <path fill="#676B78" d="M74.8589 435.647c-3.539 0-6.435-2.896-6.435-6.435v-20.13c0-3.539 2.896-6.435 6.435-6.435 3.539 0 6.435 2.896 6.435 6.435v20.13c0 3.539-2.896 6.435-6.435 6.435m32.2514 0c-3.539 0-6.435-2.896-6.435-6.435v-20.13c0-3.539 2.896-6.435 6.435-6.435 3.539 0 6.435 2.896 6.435 6.435v20.13c0 3.539-2.896 6.435-6.435 6.435"/>
    <g transform="translate(68 482.147)">
      <mask id="l" fill="#fff">
        <use xlink:href="#k"/>
      </mask>
      <path fill="#676B78" d="M6.8589 33c-3.539 0-6.435-2.896-6.435-6.435V6.435C.4239 2.896 3.3199 0 6.8589 0c3.539 0 6.435 2.896 6.435 6.435v20.13c0 3.539-2.896 6.435-6.435 6.435" mask="url(#l)"/>
    </g>
    <g transform="translate(100 482.147)">
      <mask id="n" fill="#fff">
        <use xlink:href="#m"/>
      </mask>
      <path fill="#676B78" d="M7.1103 33c-3.539 0-6.435-2.896-6.435-6.435V6.435C.6753 2.896 3.5713 0 7.1103 0c3.539 0 6.435 2.896 6.435 6.435v20.13c0 3.539-2.896 6.435-6.435 6.435" mask="url(#n)"/>
    </g>
    <g transform="translate(2 337.147)">
      <mask id="p" fill="#fff">
        <use xlink:href="#o"/>
      </mask>
      <path fill="#3F4C76" d="M176.877 85.9362L125.599.0462H52.087L.818 85.9362c-2.842 7.806 2.001 16.575 10.226 17.738.421.06.868.092 1.346.092 7.575 0 7.575-8 15.149-8 7.573 0 7.573 8 15.145 8 7.574 0 7.574-8 15.149-8 7.573 0 7.573 8 15.146 8 7.574 0 7.574-8 15.147-8 7.572 0 7.572 8 15.145 8 7.573 0 7.573-8 15.147-8 7.573 0 7.573 8 15.145 8 .259 0 .489-.032.731-.05v.001c.24.018.469.049.727.049 7.573 0 7.573-8 15.147-8 7.573 0 7.573 8 15.145 8 .475 0 .92-.032 1.339-.091 8.226-1.157 13.068-9.933 10.225-17.739" mask="url(#p)"/>
    </g>
    <g transform="translate(31 254.147)">
      <mask id="r" fill="#fff">
        <use xlink:href="#q"/>
      </mask>
      <path fill="#47537B" d="M1.1258 86.4677c-2.02 7.875 2.663 16.187 10.609 17.907.59.127 1.234.198 1.944.198 7.574 0 7.574-8 15.149-8 7.573 0 7.573 8 15.147 8 7.573 0 7.573-8 15.146-8s7.573 8 15.145 8c7.574 0 7.574-8 15.147-8s7.573 8 15.146 8c.258 0 .488-.031.73-.049.241.018.469.049.727.049.71 0 1.354-.071 1.944-.198 7.947-1.72 12.63-10.034 10.609-17.91l-48.47-79.839c-2.176-3.584-6.065-5.773-10.257-5.773h-.006c-4.193 0-8.083 2.189-10.258 5.775l-48.452 79.84z" mask="url(#r)"/>
    </g>
    <path fill="#5E6271" d="M525.123 505h24.86v-73.607h-24.86"/>
    <g transform="translate(506 411)">
      <mask id="t" fill="#fff">
        <use xlink:href="#s"/>
      </mask>
      <path fill="#3F4C76" d="M62.8159 30.6929L44.6049.1899h-26.107L.2909 30.6929c-1.01 2.772.71 5.887 3.631 6.3.15.021.309.032.478.032 2.69 0 2.69-2.841 5.38-2.841s2.69 2.841 5.379 2.841c2.69 0 2.69-2.841 5.38-2.841 2.689 0 2.689 2.841 5.379 2.841 2.689 0 2.689-2.841 5.379-2.841 2.689 0 2.689 2.841 5.379 2.841 2.689 0 2.689-2.841 5.379-2.841 2.689 0 2.689 2.841 5.379 2.841.092 0 .173-.011.259-.018v.001c.086.006.167.017.258.017 2.69 0 2.69-2.841 5.38-2.841 2.689 0 2.689 2.841 5.378 2.841.169 0 .327-.011.476-.032 2.921-.411 4.64-3.528 3.631-6.3" mask="url(#t)"/>
    </g>
    <path fill="#47537B" d="M516.6988 412.4051c-.717 2.797.946 5.749 3.768 6.359.209.046.438.071.69.071 2.69 0 2.69-2.841 5.38-2.841s2.69 2.841 5.379 2.841c2.69 0 2.69-2.841 5.379-2.841 2.69 0 2.69 2.841 5.379 2.841 2.69 0 2.69-2.841 5.379-2.841 2.69 0 2.69 2.841 5.379 2.841.092 0 .173-.011.259-.018.086.007.167.018.259.018.252 0 .48-.025.69-.071 2.822-.61 4.485-3.563 3.768-6.36l-17.214-28.354c-.773-1.273-2.154-2.05-3.643-2.05h-.002c-1.489 0-2.87.777-3.643 2.051l-17.207 28.354z"/>
    <path fill="#676B78" d="M537.6019 487.8831c-1.257 0-2.285-1.028-2.285-2.285v-7.149c0-1.257 1.028-2.286 2.285-2.286 1.257 0 2.285 1.029 2.285 2.286v7.149c0 1.257-1.028 2.285-2.285 2.285"/>
    <g transform="translate(546 476)">
      <mask id="v" fill="#fff">
        <use xlink:href="#u"/>
      </mask>
      <path fill="#676B78" d="M3.0556 11.8831c-1.257 0-2.285-1.028-2.285-2.285v-7.149c0-1.257 1.028-2.286 2.285-2.286 1.257 0 2.285 1.029 2.285 2.286v7.149c0 1.257-1.028 2.285-2.285 2.285" mask="url(#v)"/>
    </g>
    <g transform="translate(525 476)">
      <mask id="x" fill="#fff">
        <use xlink:href="#w"/>
      </mask>
      <path fill="#676B78" d="M1.1481 11.8831c-1.257 0-2.285-1.028-2.285-2.285v-7.149c0-1.257 1.028-2.286 2.285-2.286 1.257 0 2.285 1.029 2.285 2.286v7.149c0 1.257-1.028 2.285-2.285 2.285" mask="url(#x)"/>
    </g>
    <path fill="#676B78" d="M531.875 473.7663c-1.257 0-2.285-1.028-2.285-2.285v-7.149c0-1.257 1.028-2.286 2.285-2.286 1.257 0 2.285 1.029 2.285 2.286v7.149c0 1.257-1.028 2.285-2.285 2.285m11.4537 0c-1.257 0-2.285-1.028-2.285-2.285v-7.149c0-1.257 1.028-2.286 2.285-2.286 1.257 0 2.285 1.029 2.285 2.286v7.149c0 1.257-1.028 2.285-2.285 2.285m-11.4537 28.2336c-1.257 0-2.285-1.028-2.285-2.285v-7.149c0-1.257 1.028-2.286 2.285-2.286 1.257 0 2.285 1.029 2.285 2.286v7.149c0 1.257-1.028 2.285-2.285 2.285m11.4537 0c-1.257 0-2.285-1.028-2.285-2.285v-7.149c0-1.257 1.028-2.286 2.285-2.286 1.257 0 2.285 1.029 2.285 2.286v7.149c0 1.257-1.028 2.285-2.285 2.285m-5.7268-42.1766c-1.257 0-2.285-1.028-2.285-2.285v-7.149c0-1.257 1.028-2.286 2.285-2.286 1.257 0 2.285 1.029 2.285 2.286v7.149c0 1.257-1.028 2.285-2.285 2.285"/>
    <g transform="translate(546 448)">
      <mask id="z" fill="#fff">
        <use xlink:href="#y"/>
      </mask>
      <path fill="#676B78" d="M3.0556 11.8233c-1.257 0-2.285-1.028-2.285-2.285v-7.149c0-1.257 1.028-2.286 2.285-2.286 1.257 0 2.285 1.029 2.285 2.286v7.149c0 1.257-1.028 2.285-2.285 2.285" mask="url(#z)"/>
    </g>
    <g transform="translate(525 448)">
      <mask id="B" fill="#fff">
        <use xlink:href="#A"/>
      </mask>
      <path fill="#676B78" d="M1.1481 11.8233c-1.257 0-2.285-1.028-2.285-2.285v-7.149c0-1.257 1.028-2.286 2.285-2.286 1.257 0 2.285 1.029 2.285 2.286v7.149c0 1.257-1.028 2.285-2.285 2.285" mask="url(#B)"/>
    </g>
    <path fill="#5E6271" d="M395.848 504.247h70V326.275h-70"/>
    <path fill="#676B78" d="M430.9846 471.511c-3.539 0-6.435-2.896-6.435-6.435v-20.13c0-3.539 2.896-6.435 6.435-6.435 3.539 0 6.435 2.896 6.435 6.435v20.13c0 3.539-2.896 6.435-6.435 6.435"/>
    <g transform="translate(456 438.26)">
      <mask id="D" fill="#fff">
        <use xlink:href="#C"/>
      </mask>
      <path fill="#676B78" d="M7.236 33.25c-3.539 0-6.435-2.896-6.435-6.435V6.685C.801 3.146 3.697.25 7.236.25c3.539 0 6.435 2.896 6.435 6.435v20.13c0 3.539-2.896 6.435-6.435 6.435" mask="url(#D)"/>
    </g>
    <g transform="translate(395 438.26)">
      <mask id="F" fill="#fff">
        <use xlink:href="#E"/>
      </mask>
      <path fill="#676B78" d="M3.7333 33.25c-3.539 0-6.435-2.896-6.435-6.435V6.685c0-3.539 2.896-6.435 6.435-6.435 3.539 0 6.435 2.896 6.435 6.435v20.13c0 3.539-2.896 6.435-6.435 6.435" mask="url(#F)"/>
    </g>
    <path fill="#676B78" d="M414.8589 431.761c-3.539 0-6.435-2.896-6.435-6.435v-20.13c0-3.539 2.896-6.435 6.435-6.435 3.539 0 6.435 2.896 6.435 6.435v20.13c0 3.539-2.896 6.435-6.435 6.435m32.2514 0c-3.539 0-6.435-2.896-6.435-6.435v-20.13c0-3.539 2.896-6.435 6.435-6.435 3.539 0 6.435 2.896 6.435 6.435v20.13c0 3.539-2.896 6.435-6.435 6.435"/>
    <g transform="translate(408 478.26)">
      <mask id="H" fill="#fff">
        <use xlink:href="#G"/>
      </mask>
      <path fill="#676B78" d="M6.8589 33c-3.539 0-6.435-2.896-6.435-6.435V6.435C.4239 2.896 3.3199 0 6.8589 0c3.539 0 6.435 2.896 6.435 6.435v20.13c0 3.539-2.896 6.435-6.435 6.435" mask="url(#H)"/>
    </g>
    <g transform="translate(440 478.26)">
      <mask id="J" fill="#fff">
        <use xlink:href="#I"/>
      </mask>
      <path fill="#676B78" d="M7.1103 33c-3.539 0-6.435-2.896-6.435-6.435V6.435C.6753 2.896 3.5713 0 7.1103 0c3.539 0 6.435 2.896 6.435 6.435v20.13c0 3.539-2.896 6.435-6.435 6.435" mask="url(#J)"/>
    </g>
    <path fill="#676B78" d="M430.9846 392.5003c-3.539 0-6.435-2.896-6.435-6.435v-20.13c0-3.539 2.896-6.435 6.435-6.435 3.539 0 6.435 2.896 6.435 6.435v20.13c0 3.539-2.896 6.435-6.435 6.435"/>
    <g transform="translate(456 359.26)">
      <mask id="L" fill="#fff">
        <use xlink:href="#K"/>
      </mask>
      <path fill="#676B78" d="M7.236 33.2393c-3.539 0-6.435-2.896-6.435-6.435v-20.13c0-3.539 2.896-6.435 6.435-6.435 3.539 0 6.435 2.896 6.435 6.435v20.13c0 3.539-2.896 6.435-6.435 6.435" mask="url(#L)"/>
    </g>
    <g transform="translate(395 359.26)">
      <mask id="N" fill="#fff">
        <use xlink:href="#M"/>
      </mask>
      <path fill="#676B78" d="M3.7333 33.2393c-3.539 0-6.435-2.896-6.435-6.435v-20.13c0-3.539 2.896-6.435 6.435-6.435 3.539 0 6.435 2.896 6.435 6.435v20.13c0 3.539-2.896 6.435-6.435 6.435" mask="url(#N)"/>
    </g>
    <g transform="translate(342 280.26)">
      <mask id="P" fill="#fff">
        <use xlink:href="#O"/>
      </mask>
      <path fill="#47537B" d="M176.877 86.8225L125.599.9325H52.087L.818 86.8225c-2.842 7.806 2.001 16.575 10.226 17.738.421.06.868.092 1.346.092 7.575 0 7.575-8 15.149-8 7.573 0 7.573 8 15.145 8 7.574 0 7.574-8 15.149-8 7.573 0 7.573 8 15.146 8 7.574 0 7.574-8 15.147-8 7.572 0 7.572 8 15.145 8 7.573 0 7.573-8 15.147-8 7.573 0 7.573 8 15.145 8 .259 0 .489-.032.731-.05v.001c.24.018.469.049.727.049 7.573 0 7.573-8 15.147-8 7.573 0 7.573 8 15.145 8 .475 0 .92-.032 1.339-.091 8.226-1.157 13.068-9.933 10.225-17.739" mask="url(#P)"/>
    </g>
    <path fill="#66739D" d="M372.1258 284.6151c-2.02 7.875 2.663 16.187 10.609 17.907.59.127 1.234.198 1.944.198 7.574 0 7.574-8 15.149-8 7.573 0 7.573 8 15.147 8 7.573 0 7.573-8 15.146-8s7.573 8 15.145 8c7.574 0 7.574-8 15.147-8s7.573 8 15.146 8c.258 0 .488-.031.73-.049.241.018.469.049.727.049.71 0 1.354-.071 1.944-.198 7.947-1.72 12.63-10.034 10.609-17.91l-48.47-79.839c-2.176-3.584-6.065-5.773-10.257-5.773h-.006c-4.193 0-8.083 2.189-10.258 5.775l-48.452 79.84z"/>
    <path d="M0 0h572v504H0z"/>
  </g>
</svg>